<svg xmlns="http://www.w3.org/2000/svg" width="124" height="70.441" viewBox="0 0 124 70.441"><g transform="translate(-3585 -1832.542)"><g transform="translate(3585 1832.542)"><path d="M9.761,17.48H5.145a1.153,1.153,0,0,0-1.154,1.154V23.25A1.153,1.153,0,0,0,5.145,24.4H9.761a1.153,1.153,0,0,0,1.154-1.154V18.634A1.154,1.154,0,0,0,9.761,17.48ZM8.607,22.1H6.3V19.788H8.607Z" transform="translate(0.625 0.984)" fill="#162162"/><path d="M18.761,17.48H14.145a1.153,1.153,0,0,0-1.154,1.154V23.25A1.153,1.153,0,0,0,14.145,24.4h4.616a1.153,1.153,0,0,0,1.154-1.154V18.634A1.154,1.154,0,0,0,18.761,17.48ZM17.607,22.1H15.3V19.788h2.308Z" transform="translate(2.012 0.984)" fill="#162162"/><path d="M27.761,17.48H23.145a1.153,1.153,0,0,0-1.154,1.154V23.25A1.153,1.153,0,0,0,23.145,24.4h4.616a1.153,1.153,0,0,0,1.154-1.154V18.634A1.154,1.154,0,0,0,27.761,17.48ZM26.607,22.1H24.3V19.788h2.308Z" transform="translate(3.398 0.984)" fill="#162162"/><path d="M36.761,17.48H32.145a1.153,1.153,0,0,0-1.154,1.154V23.25A1.153,1.153,0,0,0,32.145,24.4h4.616a1.153,1.153,0,0,0,1.154-1.154V18.634A1.154,1.154,0,0,0,36.761,17.48ZM35.607,22.1H33.3V19.788h2.308Z" transform="translate(4.785 0.984)" fill="#162162"/><path d="M9.761,25.48H5.145a1.153,1.153,0,0,0-1.154,1.154V31.25A1.153,1.153,0,0,0,5.145,32.4H9.761a1.153,1.153,0,0,0,1.154-1.154V26.634A1.154,1.154,0,0,0,9.761,25.48ZM8.607,30.1H6.3V27.788H8.607Z" transform="translate(0.625 2.216)" fill="#162162"/><path d="M18.761,25.48H14.145a1.153,1.153,0,0,0-1.154,1.154V31.25A1.153,1.153,0,0,0,14.145,32.4h4.616a1.153,1.153,0,0,0,1.154-1.154V26.634A1.154,1.154,0,0,0,18.761,25.48ZM17.607,30.1H15.3V27.788h2.308Z" transform="translate(2.012 2.216)" fill="#162162"/><path d="M27.761,25.48H23.145a1.153,1.153,0,0,0-1.154,1.154V31.25A1.153,1.153,0,0,0,23.145,32.4h4.616a1.153,1.153,0,0,0,1.154-1.154V26.634A1.154,1.154,0,0,0,27.761,25.48ZM26.607,30.1H24.3V27.788h2.308Z" transform="translate(3.398 2.216)" fill="#162162"/><path d="M9.761,33.48H5.145a1.153,1.153,0,0,0-1.154,1.154V39.25A1.153,1.153,0,0,0,5.145,40.4H9.761a1.153,1.153,0,0,0,1.154-1.154V34.634A1.154,1.154,0,0,0,9.761,33.48ZM8.607,38.1H6.3V35.788H8.607Z" transform="translate(0.625 3.449)" fill="#162162"/><path d="M18.761,33.48H14.145a1.153,1.153,0,0,0-1.154,1.154V39.25A1.153,1.153,0,0,0,14.145,40.4h4.616a1.153,1.153,0,0,0,1.154-1.154V34.634A1.154,1.154,0,0,0,18.761,33.48ZM17.607,38.1H15.3V35.788h2.308Z" transform="translate(2.012 3.449)" fill="#162162"/><path d="M27.761,33.48H23.145a1.153,1.153,0,0,0-1.154,1.154V39.25A1.153,1.153,0,0,0,23.145,40.4h4.616a1.153,1.153,0,0,0,1.154-1.154V34.634A1.154,1.154,0,0,0,27.761,33.48ZM26.607,38.1H24.3V35.788h2.308Z" transform="translate(3.398 3.449)" fill="#162162"/><path d="M9.761,41.48H5.145a1.153,1.153,0,0,0-1.154,1.154V47.25A1.153,1.153,0,0,0,5.145,48.4H9.761a1.153,1.153,0,0,0,1.154-1.154V42.634A1.154,1.154,0,0,0,9.761,41.48ZM8.607,46.1H6.3V43.788H8.607Z" transform="translate(0.625 4.681)" fill="#162162"/><path d="M18.761,41.48H14.145a1.153,1.153,0,0,0-1.154,1.154V47.25A1.153,1.153,0,0,0,14.145,48.4h4.616a1.153,1.153,0,0,0,1.154-1.154V42.634A1.154,1.154,0,0,0,18.761,41.48ZM17.607,46.1H15.3V43.788h2.308Z" transform="translate(2.012 4.681)" fill="#162162"/><path d="M27.761,41.48H23.145a1.153,1.153,0,0,0-1.154,1.154V47.25A1.153,1.153,0,0,0,23.145,48.4h4.616a1.153,1.153,0,0,0,1.154-1.154V42.634A1.154,1.154,0,0,0,27.761,41.48ZM26.607,46.1H24.3V43.788h2.308Z" transform="translate(3.398 4.681)" fill="#162162"/><path d="M36.761,25.48H32.145a1.153,1.153,0,0,0-1.154,1.154V31.25A1.153,1.153,0,0,0,32.145,32.4h4.616a1.153,1.153,0,0,0,1.154-1.154V26.634A1.154,1.154,0,0,0,36.761,25.48ZM35.607,30.1H33.3V27.788h2.308Z" transform="translate(4.785 2.216)" fill="#162162"/><path d="M41.145,32.4h4.616a1.153,1.153,0,0,0,1.154-1.154V26.634a1.153,1.153,0,0,0-1.154-1.154H41.145a1.153,1.153,0,0,0-1.154,1.154V31.25A1.153,1.153,0,0,0,41.145,32.4ZM42.3,27.788h2.308V30.1H42.3Z" transform="translate(6.171 2.216)" fill="#162162"/><path d="M41.145,24.4h4.616a1.153,1.153,0,0,0,1.154-1.154V18.634a1.153,1.153,0,0,0-1.154-1.154H41.145a1.153,1.153,0,0,0-1.154,1.154V23.25A1.153,1.153,0,0,0,41.145,24.4ZM42.3,19.788h2.308V22.1H42.3Z" transform="translate(6.171 0.984)" fill="#162162"/><path d="M57.713,37.32l-.02-27.763h0A3.467,3.467,0,0,0,54.231,6.1H50.769V4.366a2.885,2.885,0,1,0-5.77,0V6.1H38.075V4.366a2.885,2.885,0,1,0-5.77,0V6.1H25.38V4.366a2.885,2.885,0,1,0-5.77,0V6.1H12.686V4.366a2.885,2.885,0,1,0-5.77,0V6.1H3.453A3.466,3.466,0,0,0-.009,9.559V64.992a1.153,1.153,0,0,0,1.154,1.154l42.5-.021A17.314,17.314,0,1,0,57.713,37.32ZM2.3,59.183H39.845q.164.6.369,1.173l-37.915,0Zm37.085-6.924H38.1V49.95h1.763A17.188,17.188,0,0,0,39.385,52.258ZM41.558,38.41H36.941a1.153,1.153,0,0,0-1.154,1.154V44.18a1.153,1.153,0,0,0,1.154,1.154h4.616a1.133,1.133,0,0,0,.406-.082,17.371,17.371,0,0,0-1.289,2.39H36.943A1.153,1.153,0,0,0,35.789,48.8v4.616a1.153,1.153,0,0,0,1.154,1.154h2.269c0,.008,0,.017,0,.024a17.353,17.353,0,0,0,.168,2.284H2.3V17.637H55.391l.014,19.681a17.3,17.3,0,0,0-12.7,6.874s0-.007,0-.012V39.564A1.154,1.154,0,0,0,41.558,38.41ZM40.4,40.718v2.308H38.1V40.718Zm6.9-36.353a.577.577,0,1,1,1.154,0v5.77a.577.577,0,1,1-1.154,0Zm-12.695,0a.577.577,0,1,1,1.154,0v5.77a.577.577,0,1,1-1.154,0Zm-12.695,0a.577.577,0,1,1,1.154,0v5.77a.577.577,0,1,1-1.154,0Zm-12.695,0a.577.577,0,1,1,1.154,0v5.77a.577.577,0,0,1-1.154,0ZM3.453,8.4H6.915v1.731a2.885,2.885,0,1,0,5.77,0V8.4H19.61v1.731a2.885,2.885,0,1,0,5.77,0V8.4H32.3v1.731a2.885,2.885,0,1,0,5.77,0V8.4H45v1.731a2.885,2.885,0,1,0,5.77,0V8.4h3.462a1.154,1.154,0,0,1,1.154,1.154h0l0,5.769H2.3V9.558A1.155,1.155,0,0,1,3.453,8.4ZM2.3,63.838V62.665l38.917,0c.21.4.441.778.68,1.155Zm54.24,5.777A15.023,15.023,0,1,1,71.563,54.592,15.041,15.041,0,0,1,56.54,69.615Z" transform="translate(0.009 -1.481)" fill="#162162"/><path d="M53.878,38.477a6.8,6.8,0,0,0-3.466.949,6.8,6.8,0,0,0-3.466-.949A6.93,6.93,0,0,0,40.022,45.4,6.856,6.856,0,0,0,42.4,50.611L43.5,58.257a31.268,31.268,0,0,0,.114.339,1.142,1.142,0,0,0,.132.2,1.208,1.208,0,0,0,.119.145,1.078,1.078,0,0,0,.2.132.986.986,0,0,0,.162.095,1.158,1.158,0,0,0,.317.065,1.039,1.039,0,0,0,.1.022H46.37a3.466,3.466,0,0,0,3.462-3.462V52.9a.577.577,0,0,1,1.154,0v2.887a3.466,3.466,0,0,0,3.462,3.462h1.737a1.037,1.037,0,0,0,.1-.022,1.109,1.109,0,0,0,.317-.065,3.482,3.482,0,0,0,.358-.226,1.33,1.33,0,0,0,.119-.145,1.133,1.133,0,0,0,.132-.2,1.254,1.254,0,0,0,.061-.182,1.018,1.018,0,0,0,.053-.158l1.093-7.644A6.859,6.859,0,0,0,60.8,45.4,6.932,6.932,0,0,0,53.878,38.477Zm2.77,10.617c-.027.021-.04.051-.066.073a1.153,1.153,0,0,0-.233.263,1.114,1.114,0,0,0-.122.344c-.006.028-.024.051-.028.08l-1.014,7.088h-.735a1.154,1.154,0,0,1-1.154-1.154V52.9a2.885,2.885,0,1,0-5.77,0v2.887a1.154,1.154,0,0,1-1.154,1.154h-.729l-1.014-7.091a.879.879,0,0,0-.032-.092,1.163,1.163,0,0,0-.118-.33,1.136,1.136,0,0,0-.3-.339,4.606,4.606,0,1,1,5.542-7.357,1.151,1.151,0,0,0,1.391,0,4.607,4.607,0,1,1,5.541,7.362Z" transform="translate(6.176 4.218)" fill="#162162"/></g><g transform="translate(3673.3 1849.873)"><circle cx="18" cy="18" r="18" transform="translate(-0.3 0.127)" fill="#36a0fc"/><text transform="translate(11.7 25.127)" fill="#f4faff" font-size="20" font-family="Nunito-Bold, Nunito" font-weight="700"><tspan x="0" y="0">3</tspan></text></g></g></svg>