<svg xmlns="http://www.w3.org/2000/svg" width="124" height="72.623" viewBox="0 0 124 72.623"><g transform="translate(-3585 -1942.004)"><g transform="translate(3585 1942.004)"><g transform="translate(0 0)"><g transform="translate(35.698 0)"><path d="M268.087,6.722l-4.232-2.538a1.236,1.236,0,0,0-1.161-.057l-8.72,4.13-9.983-4.076a1.236,1.236,0,0,0-.745-.059l-4.924,1.15a1.231,1.231,0,0,0-.4,2.229l7.408,4.849-5.488,2.6-4.279-2.143a2.462,2.462,0,0,0-3.455,2.923l1.534,5A2.452,2.452,0,0,0,236,22.47h3.832a1.23,1.23,0,0,0,.432-.078l7.97-2.99-1.009,9.087A1.232,1.232,0,0,0,249,29.727l4.924-2.462a1.235,1.235,0,0,0,.617-.711l3.532-10.595,9.848-4.924a2.462,2.462,0,0,0,.166-4.313Zm-26.4.291,1.742-.406,7.535,3.077-3.015,1.428Zm14.833,6.972a1.235,1.235,0,0,0-.617.711l-3.532,10.595-2.443,1.221.981-8.83a1.23,1.23,0,0,0-1.225-1.366,1.251,1.251,0,0,0-.432.078l-9.638,3.615H236l-1.534-5,4.815,2.408a1.23,1.23,0,0,0,1.077.011l22.793-10.8,3.667,2.2Z" transform="translate(-232.005 -4.009)" fill="#162162"/></g><g transform="translate(0 34.464)"><path d="M70.164,242.763H68.682l-7.8-13.182c-.023-.039-.049-.076-.076-.113a3.711,3.711,0,0,0-2.953-1.476H6.847a3.7,3.7,0,0,0-3.6,2.861L.922,242.825A1.215,1.215,0,0,0,0,243.994v11.079a6.162,6.162,0,0,0,6.155,6.155H9.047a7.374,7.374,0,0,0,13.91,0h30.1a7.374,7.374,0,0,0,13.91,0H67.7a6.162,6.162,0,0,0,6.155-6.155v-8.617A3.7,3.7,0,0,0,70.164,242.763Zm-19.7-12.309h7.386a1.241,1.241,0,0,1,.95.448l7.016,11.861H50.469Zm-16,0h13.54v12.309H34.466Zm-16,0H32v12.309H18.464Zm-12.813.933a1.231,1.231,0,0,1,1.2-.933H16v12.309H3.442ZM16,263.689a4.924,4.924,0,1,1,4.924-4.924A4.929,4.929,0,0,1,16,263.689Zm44.006,0a4.924,4.924,0,1,1,4.924-4.924A4.929,4.929,0,0,1,60.009,263.689Zm11.386-8.617a3.7,3.7,0,0,1-3.693,3.693h-.308a7.386,7.386,0,1,0-14.771,0H50.469V247.687H48.007v11.079H34.466V247.687H32v11.079H23.388a7.386,7.386,0,1,0-14.771,0H6.155a3.7,3.7,0,0,1-3.693-3.693v-9.848h67.7a1.232,1.232,0,0,1,1.231,1.231Z" transform="translate(0 -227.992)" fill="#162162"/></g><g transform="translate(21.902 15.521)"><path d="M144.571,104.88a6.22,6.22,0,0,0-2.227,2.075l2.07,1.332a3.723,3.723,0,0,1,1.339-1.248Z" transform="translate(-142.344 -104.88)" fill="#162162"/></g><g transform="translate(27.081 14.769)"><rect width="2.462" height="2.462" fill="#162162"/></g><g transform="translate(38.22 25.003)"><path d="M249.254,166.5l-.862,2.306a3.71,3.71,0,0,1,1.5,1.045l1.86-1.614A6.2,6.2,0,0,0,249.254,166.5Z" transform="translate(-248.392 -166.504)" fill="#162162"/></g><g transform="translate(40.537 29.465)"><path d="M265.862,195.5l-2.406.519a3.727,3.727,0,0,1,.084.787v1.408H266V196.81A6.2,6.2,0,0,0,265.862,195.5Z" transform="translate(-263.456 -195.504)" fill="#162162"/></g><g transform="translate(33.764 24.616)"><rect width="2.462" height="2.462" fill="#162162"/></g><g transform="translate(32.005 14.769)"><rect width="2.462" height="2.462" fill="#162162"/></g><g transform="translate(28.84 24.616)"><rect width="2.462" height="2.462" fill="#162162"/></g><g transform="translate(20.926 20.482)"><path d="M138.462,137.562c0-.089,0-.177.01-.263l-2.456-.178c-.011.148-.016.293-.016.442a6.091,6.091,0,0,0,.556,2.558l2.238-1.024A3.666,3.666,0,0,1,138.462,137.562Z" transform="translate(-136 -137.12)" fill="#162162"/></g><g transform="translate(23.393 23.881)"><path d="M153.509,159.216l-1.477,1.97a6.132,6.132,0,0,0,2.816,1.164l.343-2.437A3.67,3.67,0,0,1,153.509,159.216Z" transform="translate(-152.032 -159.216)" fill="#162162"/></g></g></g><g transform="translate(3673.3 1959.873)"><circle cx="18" cy="18" r="18" transform="translate(-0.3 0.127)" fill="#36a0fc"/><text transform="translate(11.7 25.127)" fill="#f4faff" font-size="20" font-family="Nunito-Bold, Nunito" font-weight="700"><tspan x="0" y="0">4</tspan></text></g></g></svg>