<svg xmlns="http://www.w3.org/2000/svg" width="124" height="72.968" viewBox="0 0 124 72.968"><g transform="translate(-3585 -2051.895)"><g transform="translate(3585 2051.895)"><path d="M70.8,51.985,55.971,42.86a2.146,2.146,0,0,0-.267-.135,3.928,3.928,0,0,0-.439-.21,3.505,3.505,0,0,0-.429-.139c-.145-.042-.291-.082-.43-.108a5.08,5.08,0,0,0-.536-.06,2.118,2.118,0,0,0-.284-.023H46.744V31.92h2.279V34.2a1.139,1.139,0,0,0,1.14,1.14h3.421v1.14a1.14,1.14,0,1,0,2.28,0V35.34h2.28v1.14a1.14,1.14,0,0,0,2.28,0V35.34h2.28v1.14a1.14,1.14,0,0,0,2.28,0V35.34h3.423a1.139,1.139,0,0,0,1.14-1.14V27.359a1.139,1.139,0,0,0-1.14-1.14H50.164a1.139,1.139,0,0,0-1.14,1.14v2.28H46.744V5.7h11.4V5.79a7.981,7.981,0,1,0,2.28,0V5.7h7.988a1.139,1.139,0,0,0,1.14-1.14V1.14A1.139,1.139,0,0,0,68.413,0H45.6a4.565,4.565,0,0,0-4.56,4.56V29.645H39.88v0a1.14,1.14,0,1,0-2.28,0v0H36.483V25.083a1.14,1.14,0,1,0-2.28,0v4.563h-1.14v0a1.14,1.14,0,0,0-2.28,0v0H28.5a1.139,1.139,0,0,0-1.14,1.14v3.42a3.424,3.424,0,0,0,3.419,3.42H39.9a3.35,3.35,0,0,0,1.14-.211v1.349H28.5a1.139,1.139,0,0,0-1.14,1.14v2.283H26.244L8.228,17.811a4.584,4.584,0,0,0-3.672-1.85,4.522,4.522,0,0,0-2.707.893,4.573,4.573,0,0,0-.957,6.38L20.263,49.442a.77.77,0,0,0,.154.173,4.507,4.507,0,0,0,.5.529c.092.08.186.158.27.22a5.134,5.134,0,0,0,.608.39c.078.044.158.089.242.127a4.7,4.7,0,0,0,.681.244c.03.01.056.016.084.024v3.577H19.38a1.139,1.139,0,0,0-1.14,1.14v8.072a7.986,7.986,0,0,0-6.841,7.89,1.139,1.139,0,0,0,1.14,1.14H62.7a1.139,1.139,0,0,0,1.14-1.14A17.109,17.109,0,0,0,47.883,54.784V51.308H52.3L66.013,59.75A4.56,4.56,0,1,0,70.8,51.985ZM51.3,28.5H67.269v4.56H64.986v-2.28a1.14,1.14,0,0,0-2.28,0v2.28h-2.28v-2.28a1.14,1.14,0,1,0-2.28,0v2.28h-2.28v-2.28a1.14,1.14,0,1,0-2.28,0v2.28H51.3ZM64.986,13.681a5.7,5.7,0,1,1-5.7-5.7A5.707,5.707,0,0,1,64.986,13.681ZM45.6,2.28H67.273V3.42H45.6a1.139,1.139,0,0,0-1.14,1.14V42.187h-1.14V4.56A2.283,2.283,0,0,1,45.6,2.28Zm-4.56,31.926a1.141,1.141,0,0,1-1.14,1.14H30.782a1.14,1.14,0,0,1-1.139-1.14v-2.28h11.4Zm-11.4,6.838h11.4v1.142h-11.4ZM22.8,63.847h-2.28V57.006H22.8Zm38.706,6.841H13.8a5.709,5.709,0,0,1,5.584-4.56h4.56a1.139,1.139,0,0,0,1.14-1.14V57.006H46.744A14.831,14.831,0,0,1,61.508,70.687ZM45.6,54.726H25.082V51.308H45.6Zm24.744,2.338a2.329,2.329,0,0,1-3.136.746L53.218,49.2a1.14,1.14,0,0,0-.6-.169H23.942a2.191,2.191,0,0,1-.477-.055l-.143-.046a2.432,2.432,0,0,1-.336-.119l-.145-.081a2.428,2.428,0,0,1-.288-.188c-.048-.035-.092-.073-.125-.1a2.376,2.376,0,0,1-.252-.271.484.484,0,0,0-.072-.074s0,0,0,.011L2.727,21.879a2.288,2.288,0,0,1,.479-3.192,2.331,2.331,0,0,1,3.189.481L24.752,44.005a1.137,1.137,0,0,0,.917.462h16.5c.007,0,.013,0,.019,0s.013,0,.019,0h3.384c.006,0,.011,0,.018,0s.013,0,.018,0H53.56c.06.008.121.016.217.022a1.557,1.557,0,0,1,.217.023,2.542,2.542,0,0,1,.263.071,1.193,1.193,0,0,1,.173.056,2.025,2.025,0,0,1,.234.117c.021.01.1.041.119.051L69.6,53.929A2.28,2.28,0,0,1,70.348,57.064Z" transform="translate(-0.003)" fill="#162162"/><path d="M52.171,14h-.011a1.147,1.147,0,1,0,.011,0Z" transform="translate(7.146 1.962)" fill="#162162"/><path d="M51.025,9.14A1.143,1.143,0,1,0,52.171,8h-.011A1.135,1.135,0,0,0,51.025,9.14Z" transform="translate(7.146 1.121)" fill="#162162"/><path d="M54.77,14.78a1.14,1.14,0,0,0,0-2.28h-.013a1.14,1.14,0,0,0,.013,2.28Z" transform="translate(7.51 1.751)" fill="#162162"/><path d="M49.574,9.5h-.013a1.146,1.146,0,1,0,.013,0Z" transform="translate(6.782 1.331)" fill="#162162"/><path d="M54.77,11.778a1.14,1.14,0,0,0,0-2.28h-.013a1.14,1.14,0,0,0,.013,2.28Z" transform="translate(7.51 1.331)" fill="#162162"/><path d="M49.574,12.5h-.013a1.146,1.146,0,1,0,.013,0Z" transform="translate(6.782 1.751)" fill="#162162"/></g><g transform="translate(3673.3 2069.873)"><circle cx="18" cy="18" r="18" transform="translate(-0.3 0.127)" fill="#36a0fc"/><text transform="translate(11.7 25.127)" fill="#f4faff" font-size="20" font-family="Nunito-Bold, Nunito" font-weight="700"><tspan x="0" y="0">5</tspan></text></g></g></svg>