<?xml version="1.0" encoding="utf-8"?>
<!-- Generator: Adobe Illustrator 16.0.0, SVG Export Plug-In . SVG Version: 6.00 Build 0)  -->
<!DOCTYPE svg PUBLIC "-//W3C//DTD SVG 1.1//EN" "http://www.w3.org/Graphics/SVG/1.1/DTD/svg11.dtd">
<svg version="1.1" id="icons" xmlns="http://www.w3.org/2000/svg" xmlns:xlink="http://www.w3.org/1999/xlink" x="0px" y="0px"
	 width="64px" height="64px" viewBox="0 0 64 64" enable-background="new 0 0 64 64" xml:space="preserve">
<g>
	<path d="M53.001-0.055H29c-0.553,0-1,0.447-1,1v6.007H13.998c-0.553,0-1,0.447-1,1v12.996c0,0.553,0.447,1,1,1h2v1
		c0,0.332,0.165,0.642,0.439,0.828c0.168,0.113,0.363,0.172,0.561,0.172c0.126,0,0.252-0.023,0.371-0.071l4.82-1.929L28,21.958
		v3.004c0,0.266,0.105,0.52,0.293,0.707s0.442,0.293,0.707,0.293h0.001l14.837-0.012l5.847,1.948
		c0.104,0.035,0.21,0.052,0.316,0.052c0.207,0,0.412-0.064,0.584-0.188c0.261-0.188,0.416-0.489,0.416-0.811l0.001-1.001h1.999
		c0.553,0,1-0.447,1-1V0.945C54.001,0.393,53.554-0.055,53.001-0.055z M22,19.948c-0.001,0-0.001,0-0.002,0
		c-0.127,0-0.253,0.024-0.371,0.071l-3.629,1.452v-0.523c0-0.553-0.447-1-1-1h-2V8.952H28v11.006L22,19.948z M52.001,23.95h-1.998
		c-0.552,0-0.999,0.447-1,0.999l-0.001,0.614l-4.686-1.562C44.214,23.968,44.107,23.95,44,23.95h-0.001L30,23.961V1.945h22.001
		V23.95z"/>
	<path d="M56.997,40.059c0.002-0.024,0.015-0.047,0.015-0.072v-8.04c0-1.654-1.346-3-3-3H40.005c-1.654,0-3,1.346-3,3v7.958
		c-0.001,0.014-0.008,0.025-0.008,0.039v3.962c0,0.008,0.004,0.014,0.004,0.021c0,0.008-0.004,0.014-0.004,0.021
		c0,3.691,2.016,6.914,5,8.646v2.352h-2c-3.309,0-6,2.691-6,6v1.997c0,0.553,0.447,1,1,1s1-0.447,1-1v-1.997c0-2.206,1.794-4,4-4
		h2.245l1.793,6.273c0.126,0.439,0.526,0.726,0.961,0.726c0.092,0,0.184-0.013,0.275-0.038c0.531-0.152,0.839-0.706,0.688-1.236
		l-1.378-4.823c0.004,0.002,0.009,0.002,0.013,0.004c0.126,0.056,0.26,0.094,0.399,0.094c0.001,0,0.002,0.001,0.003,0.001h0.001
		h0.001c0.001,0,0.002-0.001,0.003-0.001c0.14,0,0.273-0.038,0.399-0.094c0.015-0.007,0.03-0.004,0.044-0.011l1.553-0.776
		l1.553,0.776c0.014,0.007,0.029,0.004,0.044,0.011c0.126,0.056,0.26,0.094,0.399,0.094c0.001,0,0.002,0.001,0.003,0.001h0.001
		h0.001c0.001,0,0.002-0.001,0.003-0.001c0.14,0,0.273-0.038,0.399-0.094c0.004-0.002,0.009-0.002,0.013-0.004l-1.378,4.823
		c-0.151,0.53,0.156,1.084,0.688,1.236c0.092,0.025,0.184,0.038,0.275,0.038c0.435,0,0.835-0.286,0.961-0.726l1.793-6.273h2.245
		c2.206,0,4,1.794,4,4v1.997c0,0.553,0.447,1,1,1s1-0.447,1-1v-1.997c0-3.309-2.691-6-6-6h-2v-2.353c2.984-1.731,5-4.954,5-8.645
		v-0.001v-0.001V40.059z M39.005,31.946c0-0.552,0.448-1,1-1h14.007c0.552,0,1,0.448,1,1v7.04H39.005V31.946z M49.997,55.326l-1,0.5
		l-1.553-0.776c-0.022-0.011-0.047-0.01-0.069-0.019c-0.063-0.026-0.127-0.039-0.194-0.052c-0.062-0.012-0.121-0.024-0.184-0.024
		s-0.122,0.013-0.185,0.024c-0.066,0.013-0.131,0.025-0.193,0.052c-0.022,0.009-0.047,0.008-0.069,0.019l-1.553,0.776l-1-0.5v-1.842
		c0.947,0.299,1.954,0.461,2.999,0.461s2.053-0.162,3.001-0.461V55.326z M46.996,51.945c-4.411,0-7.999-3.588-7.999-7.998
		c0-0.008-0.004-0.014-0.004-0.021c0-0.007,0.004-0.013,0.004-0.021v-2.919h16v2.959v0.001v0.001
		C54.997,48.357,51.408,51.945,46.996,51.945z"/>
	<path d="M48.995,33.966h-1.001v-1.019c0-0.553-0.447-1-1-1s-1,0.447-1,1v1.019h-1.001c-0.553,0-1,0.447-1,1s0.447,1,1,1h1.001
		v0.993c0,0.553,0.447,1,1,1s1-0.447,1-1v-0.993h1.001c0.553,0,1-0.447,1-1S49.548,33.966,48.995,33.966z"/>
	<path d="M10.003,55.056c-3.309,0-6,2.691-6,6v1.999c0,0.553,0.447,1,1,1s1-0.447,1-1v-1.999c0-2.206,1.794-4,4-4h2.764l1.789,0.895
		c0.014,0.007,0.029,0.004,0.044,0.011c0.126,0.056,0.26,0.094,0.399,0.094c0.001,0,0.002,0.001,0.003,0.001h0.001h0.001
		c0.001,0,0.002-0.001,0.003-0.001c0.14,0,0.273-0.038,0.399-0.094c0.015-0.007,0.03-0.004,0.044-0.011l1.553-0.776l1.553,0.776
		c0.014,0.007,0.029,0.004,0.044,0.011c0.126,0.056,0.26,0.094,0.399,0.094c0.001,0,0.002,0.001,0.003,0.001h0.001h0.001
		c0.001,0,0.002-0.001,0.003-0.001c0.14,0,0.273-0.038,0.399-0.094c0.015-0.007,0.03-0.004,0.044-0.011l1.789-0.895h2.764
		c2.206,0,4,1.794,4,4v1.999c0,0.553,0.447,1,1,1s1-0.447,1-1v-1.999c0-3.309-2.691-6-6-6h-2v-2.354c2.984-1.731,5-4.954,5-8.645
		v-6.002c0,0,0,0,0-0.001l0,0c0-2.414-1.721-4.434-4-4.898v-3.101c0-0.553-0.447-1-1-1h-6c-4.963,0-9,4.037-9,9v6.051
		c0,0.006,0.003,0.011,0.003,0.017c0.024,3.663,2.031,6.858,4.997,8.58v2.353H10.003z M16.003,31.056h5v3c0,0.553,0.447,1,1,1
		c1.654,0,3,1.346,3,2.999l0,0c0,0.001,0,0.001,0,0.001v1.144l-1.44-0.973c-0.042-0.028-0.091-0.035-0.135-0.056
		c-0.055-0.026-0.105-0.052-0.164-0.067c-0.068-0.02-0.135-0.025-0.205-0.029c-0.059-0.003-0.115-0.007-0.175,0
		c-0.07,0.009-0.134,0.029-0.2,0.053c-0.041,0.014-0.083,0.012-0.122,0.031c-0.019,0.01-1.881,0.897-5.059,0.897
		c-3.277,0-6.156-0.939-6.186-0.949c-0.021-0.007-0.043-0.002-0.063-0.008c-0.065-0.017-0.131-0.021-0.198-0.024
		c-0.064-0.003-0.127-0.009-0.189,0c-0.06,0.009-0.114,0.029-0.173,0.049c-0.066,0.022-0.131,0.044-0.19,0.079
		c-0.02,0.011-0.041,0.012-0.06,0.024l-1.44,0.973v-1.144C9.003,34.196,12.144,31.056,16.003,31.056z M9.003,44.058v-2.444
		l2.166-1.463c1.013,0.289,3.505,0.905,6.334,0.905c2.659,0,4.513-0.548,5.383-0.872l2.117,1.43v2.444
		c0,4.41-3.589,7.998-8.001,7.998C12.591,52.056,9.003,48.468,9.003,44.058z M17.002,54.056c1.045,0,2.053-0.162,3.001-0.461v1.843
		l-1,0.5l-1.553-0.776c-0.022-0.011-0.047-0.01-0.069-0.019c-0.063-0.026-0.126-0.039-0.193-0.052
		c-0.063-0.012-0.122-0.024-0.185-0.024s-0.122,0.013-0.185,0.024c-0.066,0.013-0.13,0.025-0.192,0.052
		c-0.023,0.009-0.048,0.008-0.07,0.019l-1.553,0.776l-1-0.5v-1.843C14.95,53.894,15.957,54.056,17.002,54.056z"/>
	<path d="M36.509,18.049c0.006,0.057,0.032,0.104,0.047,0.156c0.015,0.056,0.024,0.111,0.049,0.162
		c0.03,0.066,0.075,0.121,0.119,0.178c0.032,0.041,0.058,0.086,0.095,0.122c0.058,0.055,0.126,0.092,0.194,0.131
		c0.04,0.022,0.072,0.054,0.115,0.071c0.116,0.047,0.242,0.075,0.374,0.075h0.001l0,0h1.5c0.771,0,1.467-0.3,1.999-0.779
		c0.532,0.479,1.229,0.779,1.999,0.779h1.5l0,0h0.001c0.132,0,0.258-0.028,0.374-0.075c0.043-0.018,0.075-0.049,0.115-0.071
		c0.068-0.039,0.137-0.076,0.194-0.131c0.038-0.036,0.063-0.081,0.095-0.122c0.044-0.057,0.089-0.111,0.119-0.178
		c0.024-0.051,0.034-0.107,0.049-0.162c0.015-0.053,0.041-0.101,0.047-0.156l0.467-4.446c0.654-0.73,1.04-1.668,1.04-2.657
		c0-2.207-1.795-4.002-4.002-4.002c-0.704,0-1.392,0.19-1.999,0.545c-0.606-0.354-1.294-0.545-1.999-0.545
		c-2.206,0-4.001,1.795-4.001,4.002c0,0.989,0.386,1.927,1.04,2.656L36.509,18.049z M39.002,8.943c0.621,0,1.066,0.283,1.33,0.521
		c0.379,0.342,0.957,0.342,1.338,0c0.264-0.237,0.709-0.521,1.33-0.521c1.104,0,2.002,0.898,2.002,2.002
		c0,0.569-0.243,1.112-0.667,1.491c-0.042,0.038-0.063,0.087-0.097,0.13c-0.043,0.053-0.09,0.1-0.121,0.161
		c-0.035,0.069-0.051,0.144-0.069,0.219c-0.011,0.046-0.036,0.084-0.041,0.132l-0.406,3.866h-0.6c-0.547,0-0.991-0.442-0.998-0.988
		c0-0.004,0.001-0.009,0.001-0.013v-0.999c0-0.553-0.447-1-1-1c-0.001,0-0.001,0-0.002,0s-0.001,0-0.002,0c-0.553,0-1,0.447-1,1
		v0.999c0,0.004,0.001,0.009,0.001,0.013c-0.007,0.546-0.451,0.988-0.998,0.988h-0.6l-0.407-3.867
		c-0.005-0.047-0.03-0.085-0.041-0.13c-0.019-0.076-0.033-0.151-0.07-0.222c-0.03-0.059-0.075-0.104-0.116-0.155
		c-0.035-0.044-0.057-0.096-0.101-0.135c-0.424-0.379-0.667-0.922-0.667-1.49C37.001,9.842,37.898,8.943,39.002,8.943z"/>
</g>
</svg>
