<svg width="64" height="64" viewBox="0 0 64 64" fill="none" xmlns="http://www.w3.org/2000/svg">
<path d="M62.998 27.0001H54.858C54.411 25.2791 52.858 24.0001 51 24.0001H48.92C50.888 21.8121 52.002 18.9841 52.002 15.9941C52.002 9.37809 46.619 3.99609 40.002 3.99609C37.01 3.99609 34.206 5.07809 32.002 7.06309C29.798 5.07809 26.994 3.99609 24.002 3.99609C17.385 3.99609 12.002 9.37809 12.002 15.9941C12.002 18.9831 13.116 21.8121 15.084 24.0001H13C11.142 24.0001 9.58895 25.2791 9.14195 27.0001H1.00195C0.448953 27.0001 0.00195312 27.4471 0.00195312 28.0001C0.00195312 28.5531 0.448953 29.0001 1.00195 29.0001H8.99995V30.9981C8.99995 43.6811 19.317 53.9981 32 53.9981C44.683 53.9981 55 43.6811 55 30.9981V29.0001H62.998C63.551 29.0001 63.998 28.5531 63.998 28.0001C63.998 27.4471 63.551 27.0001 62.998 27.0001ZM24.002 5.99609C26.777 5.99609 29.359 7.11509 31.274 9.14609C31.651 9.54809 32.352 9.54809 32.729 9.14609C34.644 7.11509 37.226 5.99609 40.001 5.99609C45.515 5.99609 50.001 10.4811 50.001 15.9941C50.001 18.9891 48.674 21.8031 46.36 23.7111C46.323 23.7411 46.304 23.7841 46.273 23.8181C46.22 23.8761 46.165 23.9291 46.127 23.9991C46.056 24.1271 46.015 24.2661 46.004 24.4091L44.108 40.9961H41C38.794 40.9961 37 39.2021 37 36.9961V33.0141C37 33.0101 37.002 33.0081 37.002 33.0041C37.002 30.2471 34.7589 28.0041 32.002 28.0041C29.248 28.0041 27.008 30.2421 27.003 32.9941C27.003 32.9981 27.001 33.0001 27.001 33.0041V36.9961C27.001 39.2021 25.207 40.9961 23.001 40.9961H19.892L17.994 24.3831C17.994 24.3821 17.994 24.3821 17.994 24.3811L17.992 24.3631C17.987 24.3241 17.966 24.2931 17.957 24.2551C17.936 24.1681 17.918 24.0801 17.874 24.0001C17.835 23.9291 17.778 23.8741 17.725 23.8151C17.693 23.7801 17.674 23.7371 17.636 23.7061C15.327 21.7981 14.003 18.9871 14.003 15.9941C14.002 10.4811 18.488 5.99609 24.002 5.99609ZM32 51.9981C20.421 51.9981 11 42.5771 11 30.9981V28.0001C11 26.8971 11.897 26.0001 13 26.0001H16.166L18.007 42.1091C18.013 42.1641 18.039 42.2101 18.054 42.2601C18.069 42.3161 18.078 42.3701 18.103 42.4201C18.135 42.4871 18.179 42.5431 18.224 42.6011C18.255 42.6411 18.281 42.6841 18.318 42.7191C18.376 42.7741 18.445 42.8121 18.514 42.8521C18.553 42.8731 18.585 42.9041 18.626 42.9201C18.742 42.9671 18.867 42.9951 18.999 42.9951H19H23.001C26.31 42.9951 29.001 40.3041 29.001 36.9951V33.0081C29.001 33.0061 29.002 33.0051 29.002 33.0031C29.002 31.3491 30.348 30.0031 32.002 30.0031C33.6539 30.0031 34.998 31.3451 35.001 32.9961C35.001 33.0001 35 33.0021 35 33.0041V36.9961C35 40.3051 37.691 42.9961 41 42.9961H45.001C45.002 42.9961 45.002 42.9961 45.002 42.9961C45.133 42.9961 45.259 42.9681 45.375 42.9211C45.416 42.9041 45.449 42.8741 45.487 42.8531C45.556 42.8131 45.626 42.7751 45.683 42.7201C45.72 42.6851 45.746 42.6421 45.777 42.6011C45.822 42.5441 45.866 42.4891 45.898 42.4221C45.921 42.3711 45.932 42.3161 45.947 42.2611C45.962 42.2101 45.988 42.1641 45.994 42.1101L47.835 26.0001H51C52.103 26.0001 53 26.8971 53 28.0001V30.9981C53 42.5771 43.579 51.9981 32 51.9981Z" fill="#36A0FC"/>
<path d="M62.998 19.9881C62.998 17.9461 60.179 15.6401 59.613 15.1991C59.252 14.9161 58.744 14.9161 58.383 15.1991C57.818 15.6401 54.998 17.9461 54.998 19.9881C54.998 22.1941 56.792 23.9881 58.998 23.9881C61.204 23.9881 62.998 22.1941 62.998 19.9881ZM56.998 19.9881C56.998 19.4051 57.947 18.2391 58.997 17.2941C59.972 18.1731 60.998 19.3611 60.998 19.9881C60.998 21.0911 60.101 21.9881 58.998 21.9881C57.895 21.9881 56.998 21.0911 56.998 19.9881Z" fill="#36A0FC"/>
<path d="M9.00195 19.9881C9.00195 17.9461 6.18295 15.6401 5.61695 15.1991C5.25595 14.9161 4.74795 14.9161 4.38695 15.1991C3.82195 15.6401 1.00195 17.9461 1.00195 19.9881C1.00195 22.1941 2.79595 23.9881 5.00195 23.9881C7.20795 23.9881 9.00195 22.1941 9.00195 19.9881ZM3.00195 19.9881C3.00195 19.4051 3.95095 18.2391 5.00095 17.2941C5.97595 18.1731 7.00195 19.3611 7.00195 19.9881C7.00195 21.0911 6.10495 21.9881 5.00195 21.9881C3.89895 21.9881 3.00195 21.0911 3.00195 19.9881Z" fill="#36A0FC"/>
<path d="M62.998 58.0042H1.00195C0.448953 58.0042 0.00195312 58.4512 0.00195312 59.0042C0.00195312 59.5572 0.448953 60.0042 1.00195 60.0042H62.998C63.551 60.0042 63.998 59.5572 63.998 59.0042C63.998 58.4512 63.551 58.0042 62.998 58.0042Z" fill="#36A0FC"/>
</svg>
