<svg width="64" height="50" viewBox="0 0 64 50" fill="none" xmlns="http://www.w3.org/2000/svg">
<path d="M2.185 32.0101H1C0.447 32.0101 0 32.4571 0 33.0101C0 33.5631 0.447 34.0101 1 34.0101H3C3.553 34.0101 4 33.5631 4 33.0101C4 32.4581 4.448 32.0101 5 32.0101H9.135L10.013 38.1481C10.02 38.1991 10.046 38.2411 10.06 38.2891C10.076 38.3411 10.087 38.3921 10.111 38.4381C10.143 38.5061 10.187 38.5631 10.234 38.6221C10.264 38.6601 10.29 38.7001 10.326 38.7331C10.385 38.7881 10.453 38.8271 10.523 38.8671C10.56 38.8881 10.592 38.9161 10.633 38.9311C10.748 38.9781 10.872 39.0061 11.002 39.0061C11.002 39.0061 11.002 39.0061 11.003 39.0061H12.503C14.157 39.0061 15.503 37.6601 15.503 36.0061V33.5061C15.503 33.2311 15.728 33.0061 16.003 33.0061C16.278 33.0061 16.503 33.2311 16.503 33.5061V36.0061C16.503 37.6601 17.849 39.0061 19.503 39.0061H21.008H21.009C21.139 39.0061 21.263 38.9781 21.378 38.9321C21.419 38.9151 21.451 38.8871 21.489 38.8661C21.558 38.8271 21.627 38.7881 21.685 38.7331C21.721 38.7001 21.747 38.6601 21.777 38.6211C21.824 38.5631 21.867 38.5071 21.9 38.4391C21.923 38.3911 21.935 38.3391 21.951 38.2881C21.965 38.2411 21.991 38.1991 21.998 38.1481L22.876 32.0081H32.998H33.003H41.123L42.001 38.1481C42.008 38.1991 42.034 38.2411 42.048 38.2891C42.064 38.3411 42.075 38.3921 42.099 38.4381C42.131 38.5061 42.175 38.5631 42.222 38.6221C42.252 38.6601 42.278 38.7001 42.314 38.7331C42.373 38.7881 42.441 38.8271 42.511 38.8671C42.548 38.8881 42.58 38.9161 42.621 38.9311C42.736 38.9781 42.86 39.0061 42.99 39.0061C42.99 39.0061 42.99 39.0061 42.991 39.0061H44.491C46.145 39.0061 47.491 37.6601 47.491 36.0061V33.5061C47.491 33.2311 47.716 33.0061 47.991 33.0061C48.266 33.0061 48.491 33.2311 48.491 33.5061V36.0061C48.491 37.6601 49.837 39.0061 51.491 39.0061H52.996H52.997C53.127 39.0061 53.251 38.9781 53.366 38.9321C53.407 38.9151 53.439 38.8871 53.477 38.8661C53.546 38.8271 53.615 38.7881 53.673 38.7331C53.709 38.7001 53.735 38.6601 53.765 38.6211C53.812 38.5631 53.855 38.5071 53.888 38.4391C53.911 38.3911 53.923 38.3391 53.939 38.2881C53.953 38.2411 53.979 38.1991 53.986 38.1481L54.864 32.0101H58.999C59.551 32.0101 59.999 32.4581 59.999 33.0101C59.999 33.5631 60.446 34.0101 60.999 34.0101H62.999C63.552 34.0101 63.999 33.5631 63.999 33.0101C63.999 32.4571 63.552 32.0101 62.999 32.0101H61.814C61.4 30.8491 60.3 30.0101 58.999 30.0101H56.186C56.707 29.1121 56.998 28.0861 56.998 27.0061C56.998 23.6971 54.307 21.0061 50.998 21.0061C49.939 21.0061 48.913 21.2881 47.995 21.8281C47.077 21.2881 46.051 21.0061 44.992 21.0061C41.683 21.0061 38.992 23.6971 38.992 27.0061C38.992 28.0701 39.289 29.1041 39.812 30.0081H33.003H32.998H24.199C24.72 29.1101 25.009 28.0851 25.009 27.0061C25.009 23.6971 22.318 21.0061 19.009 21.0061C17.95 21.0061 16.924 21.2881 16.006 21.8281C15.088 21.2881 14.062 21.0061 13.003 21.0061C9.694 21.0061 7.003 23.6971 7.003 27.0061C7.003 28.0711 7.3 29.1051 7.824 30.0101H5C3.698 30.0101 2.599 30.8491 2.185 32.0101ZM44.991 23.0061C45.849 23.0061 46.679 23.2901 47.391 23.8271C47.746 24.0971 48.241 24.0971 48.596 23.8271C49.308 23.2901 50.138 23.0061 50.996 23.0061C53.202 23.0061 54.996 24.8001 54.996 27.0061C54.996 28.2761 54.412 29.4441 53.394 30.2091C53.373 30.2251 53.364 30.2481 53.344 30.2651C53.297 30.3061 53.26 30.3521 53.222 30.4021C53.195 30.4361 53.159 30.4621 53.137 30.4991C53.123 30.5211 53.119 30.5471 53.108 30.5701C53.082 30.6241 53.067 30.6791 53.05 30.7371C53.043 30.7631 53.029 30.7881 53.024 30.8151C53.02 30.8341 53.008 30.8481 53.005 30.8671L52.127 37.0071H51.489C50.937 37.0071 50.489 36.5591 50.489 36.0071V33.5071C50.489 32.1281 49.368 31.0071 47.989 31.0071C46.61 31.0071 45.489 32.1281 45.489 33.5071V36.0071C45.489 36.5591 45.041 37.0071 44.489 37.0071H43.856L42.978 30.8651C42.974 30.8351 42.956 30.8111 42.949 30.7831C42.945 30.7671 42.938 30.7531 42.933 30.7371C42.916 30.6781 42.901 30.6211 42.874 30.5671C42.863 30.5451 42.86 30.5201 42.848 30.4991C42.824 30.4581 42.785 30.4291 42.756 30.3921C42.72 30.3471 42.685 30.3041 42.642 30.2661C42.621 30.2481 42.609 30.2221 42.586 30.2051C41.571 29.4411 40.988 28.2761 40.988 27.0071C40.991 24.8001 42.785 23.0061 44.991 23.0061ZM13.003 23.0061C13.861 23.0061 14.691 23.2901 15.403 23.8271C15.758 24.0971 16.253 24.0971 16.608 23.8271C17.32 23.2901 18.15 23.0061 19.008 23.0061C21.214 23.0061 23.008 24.8001 23.008 27.0061C23.008 28.2761 22.424 29.4441 21.406 30.2091C21.388 30.2231 21.38 30.2421 21.363 30.2571C21.362 30.2581 21.362 30.2591 21.361 30.2601C21.311 30.3031 21.272 30.3511 21.232 30.4031C21.205 30.4371 21.169 30.4631 21.147 30.5011C21.135 30.5221 21.132 30.5451 21.122 30.5661C21.095 30.6221 21.079 30.6791 21.061 30.7401C21.055 30.7621 21.043 30.7821 21.04 30.8041C21.035 30.8261 21.02 30.8441 21.018 30.8671L20.14 37.0071H19.502C18.95 37.0071 18.502 36.5591 18.502 36.0071V33.5071C18.502 32.1281 17.381 31.0071 16.002 31.0071C14.623 31.0071 13.502 32.1281 13.502 33.5071V36.0071C13.502 36.5591 13.054 37.0071 12.502 37.0071H11.87L10.992 30.8651C10.988 30.8391 10.971 30.8181 10.967 30.7931C10.962 30.7721 10.952 30.7551 10.946 30.7341C10.929 30.6771 10.916 30.6231 10.889 30.5711C10.877 30.5481 10.874 30.5211 10.861 30.4991C10.837 30.4561 10.798 30.4271 10.766 30.3901C10.732 30.3471 10.699 30.3061 10.658 30.2701C10.646 30.2591 10.638 30.2451 10.627 30.2351C10.617 30.2271 10.612 30.2151 10.603 30.2081C9.586 29.4441 9.003 28.2781 9.003 27.0081C9.003 24.8001 10.797 23.0061 13.003 23.0061Z" fill="#36A0FC"/>
<path d="M63 47.01H1C0.447 47.01 0 47.457 0 48.01C0 48.563 0.447 49.01 1 49.01H63C63.553 49.01 64 48.563 64 48.01C64 47.457 63.553 47.01 63 47.01Z" fill="#36A0FC"/>
<path d="M57.0029 14.994V6.98999C57.0029 3.68099 54.3119 0.98999 51.0029 0.98999C49.9429 0.98999 48.9179 1.27299 47.9999 1.81299C47.0819 1.27299 46.0569 0.98999 44.9969 0.98999C42.9139 0.98999 41.0779 2.05699 40.0019 3.67399C38.9259 2.05799 37.0889 0.98999 35.0059 0.98999C33.9459 0.98999 32.9209 1.27299 32.0029 1.81299C31.0849 1.27299 30.0599 0.98999 28.9999 0.98999C26.9169 0.98999 25.0799 2.05699 24.0039 3.67399C22.9279 2.05799 21.0919 0.98999 19.0089 0.98999C17.9489 0.98999 16.9239 1.27299 16.0059 1.81299C15.0879 1.27299 14.0629 0.98999 13.0029 0.98999C9.69393 0.98999 7.00293 3.68099 7.00293 6.98999V14.994C7.00293 15.547 7.44993 15.994 8.00293 15.994H56.0029C56.5559 15.994 57.0029 15.547 57.0029 14.994ZM13.0029 2.98999C13.8619 2.98999 14.6909 3.27399 15.4019 3.81199C15.7569 4.08299 16.2539 4.08299 16.6089 3.81199C17.3199 3.27399 18.1489 2.98999 19.0079 2.98999C21.1949 2.98999 22.9699 4.75399 23.0019 6.93199C23.0019 6.95199 22.9989 6.96999 22.9989 6.98999C22.9989 7.54299 23.4459 7.98999 23.9989 7.98999C24.0009 7.98999 24.0019 7.98899 24.0029 7.98899C24.0049 7.98899 24.0059 7.98999 24.0079 7.98999C24.5609 7.98999 25.0079 7.54299 25.0079 6.98999C25.0079 6.96999 25.0049 6.95199 25.0049 6.93199C25.0379 4.75399 26.8129 2.98999 28.9999 2.98999C29.8589 2.98999 30.6879 3.27399 31.3989 3.81199C31.7539 4.08299 32.2509 4.08299 32.6059 3.81199C33.3169 3.27399 34.1459 2.98999 35.0049 2.98999C37.1919 2.98999 38.9669 4.75399 38.9989 6.93199C38.9989 6.95199 38.9959 6.96999 38.9959 6.98999C38.9959 7.54299 39.4429 7.98999 39.9959 7.98999C39.9979 7.98999 39.9989 7.98899 40.0009 7.98899C40.0019 7.98899 40.0029 7.98999 40.0049 7.98999C40.5579 7.98999 41.0049 7.54299 41.0049 6.98999C41.0049 6.96999 41.0019 6.95199 41.0019 6.93199C41.0339 4.75299 42.8099 2.98999 44.9959 2.98999C45.8549 2.98999 46.6839 3.27399 47.3949 3.81199C47.7499 4.08299 48.2469 4.08299 48.6019 3.81199C49.3129 3.27399 50.1419 2.98999 51.0009 2.98999C53.2069 2.98999 55.0009 4.78399 55.0009 6.98999V13.994H9.00093V6.98999C9.00293 4.78399 10.7969 2.98999 13.0029 2.98999Z" fill="#36A0FC"/>
<path d="M32.0042 17.9919C31.4512 17.9919 31.0042 18.4389 31.0042 18.9919V24.5789L29.7102 23.2849C29.3192 22.8939 28.6872 22.8939 28.2962 23.2849C27.9052 23.6759 27.9052 24.3079 28.2962 24.6989L31.2962 27.6999C31.3882 27.7929 31.4992 27.8659 31.6222 27.9169C31.7442 27.9679 31.8742 27.9939 32.0042 27.9939C32.1342 27.9939 32.2642 27.9679 32.3862 27.9169C32.5092 27.8659 32.6202 27.7929 32.7122 27.6999L35.7122 24.6989C36.1032 24.3079 36.1032 23.6759 35.7122 23.2849C35.3212 22.8939 34.6892 22.8939 34.2982 23.2849L33.0042 24.5789V18.9919C33.0042 18.4389 32.5572 17.9919 32.0042 17.9919Z" fill="#36A0FC"/>
</svg>
