<svg width="64" height="60" viewBox="0 0 64 60" fill="none" xmlns="http://www.w3.org/2000/svg">
<path d="M62.998 43.502H54.858C54.411 41.781 52.858 40.502 51 40.502H48.92C50.888 38.314 52.002 35.486 52.002 32.496C52.002 31.943 51.555 31.496 51.002 31.496H45.999V29.502C45.999 26.197 43.314 23.51 40.012 23.503C40.008 23.503 40.004 23.5 39.999 23.5H24.004C20.694 23.5 18.002 26.192 18.002 29.502V31.496H13.002C12.449 31.496 12.002 31.943 12.002 32.496C12.002 35.486 13.116 38.314 15.082 40.502H13C11.142 40.502 9.58895 41.781 9.14195 43.502H1.00195C0.448953 43.502 0.00195312 43.949 0.00195312 44.502C0.00195312 45.055 0.448953 45.502 1.00195 45.502H9.99995C10.553 45.502 11 45.055 11 44.502C11 43.399 11.897 42.502 13 42.502H16.166L18.007 58.613C18.013 58.668 18.039 58.714 18.054 58.764C18.069 58.82 18.078 58.874 18.103 58.924C18.135 58.991 18.179 59.047 18.224 59.105C18.255 59.145 18.281 59.188 18.318 59.223C18.376 59.278 18.445 59.316 18.514 59.356C18.553 59.377 18.585 59.408 18.626 59.424C18.742 59.471 18.867 59.499 18.999 59.499H19H23.001C26.31 59.499 29.001 56.808 29.001 53.499V49.512C29.001 49.51 29.002 49.509 29.002 49.507C29.002 47.853 30.348 46.507 32.002 46.507C33.653 46.507 34.997 47.849 35.001 49.499C35.001 49.501 35 49.503 35 49.505V53.5C35 56.809 37.691 59.5 41 59.5H45.001C45.002 59.5 45.002 59.5 45.002 59.5C45.133 59.5 45.259 59.472 45.375 59.425C45.416 59.408 45.449 59.378 45.487 59.357C45.556 59.317 45.626 59.279 45.683 59.224C45.72 59.189 45.746 59.146 45.777 59.105C45.822 59.048 45.866 58.993 45.898 58.926C45.921 58.875 45.932 58.82 45.947 58.765C45.962 58.714 45.988 58.668 45.994 58.614L47.835 42.503H51C52.103 42.503 53 43.4 53 44.503C53 45.056 53.447 45.503 54 45.503H62.998C63.551 45.503 63.998 45.056 63.998 44.503C63.998 43.95 63.551 43.502 62.998 43.502ZM20.002 29.502C20.002 27.295 21.797 25.5 24.004 25.5H39.989C39.992 25.5 39.996 25.502 39.999 25.502C42.205 25.502 43.999 27.296 43.999 29.502V31.496H20.002V29.502ZM37 53.5V49.518C37 49.514 37.002 49.512 37.002 49.508C37.002 46.751 34.7589 44.508 32.002 44.508C29.25 44.508 27.011 46.744 27.004 49.494C27.003 49.498 27.001 49.502 27.001 49.506V53.5C27.001 55.706 25.207 57.5 23.001 57.5H19.892L17.994 40.887C17.994 40.886 17.994 40.886 17.994 40.885L17.992 40.867C17.987 40.827 17.966 40.796 17.956 40.758C17.936 40.671 17.918 40.584 17.874 40.504C17.831 40.425 17.769 40.361 17.707 40.298C17.681 40.27 17.666 40.235 17.636 40.21C15.587 38.516 14.319 36.109 14.058 33.496H18.984C18.991 33.496 18.997 33.5 19.004 33.5C19.011 33.5 19.017 33.496 19.024 33.496H49.95C49.688 36.11 48.418 38.518 46.364 40.213C46.32 40.249 46.298 40.298 46.261 40.339C46.216 40.392 46.164 40.438 46.131 40.5C46.059 40.628 46.018 40.768 46.007 40.912L44.109 57.5H41C38.794 57.5 37 55.706 37 53.5Z" fill="#36A0FC"/>
<path d="M40 0.5C37.008 0.5 34.203 1.583 32 3.568C29.797 1.583 26.992 0.5 24 0.5C17.383 0.5 12 5.882 12 12.498V17.5C12 18.053 12.447 18.5 13 18.5H51C51.553 18.5 52 18.053 52 17.5V12.498C52 5.882 46.617 0.5 40 0.5ZM50 16.5H14V12.498C14 6.985 18.486 2.5 24 2.5C26.775 2.5 29.358 3.619 31.271 5.652C31.65 6.052 32.349 6.052 32.728 5.652C34.642 3.619 37.225 2.5 40 2.5C45.514 2.5 50 6.985 50 12.498V16.5Z" fill="#36A0FC"/>
<path d="M50.0003 20.498C49.4473 20.498 49.0003 20.945 49.0003 21.498V26.086L48.7463 25.832C48.3553 25.441 47.7233 25.441 47.3323 25.832C46.9413 26.223 46.9413 26.855 47.3323 27.246L49.2923 29.206C49.3843 29.299 49.4953 29.372 49.6183 29.423C49.7403 29.474 49.8703 29.5 50.0003 29.5C50.1303 29.5 50.2603 29.474 50.3823 29.423C50.5053 29.372 50.6163 29.299 50.7083 29.206L52.6293 27.285C53.0203 26.894 53.0203 26.262 52.6293 25.871C52.2383 25.48 51.6063 25.48 51.2153 25.871L51.0003 26.086V21.498C51.0003 20.945 50.5533 20.498 50.0003 20.498Z" fill="#36A0FC"/>
<path d="M11.3518 27.246L13.3118 29.206C13.4038 29.299 13.5148 29.372 13.6378 29.423C13.7598 29.474 13.8898 29.5 14.0198 29.5C14.1498 29.5 14.2798 29.474 14.4018 29.423C14.5248 29.372 14.6358 29.299 14.7278 29.206L16.6488 27.285C17.0398 26.894 17.0398 26.262 16.6488 25.871C16.2578 25.48 15.6258 25.48 15.2348 25.871L15.0198 26.086V21.498C15.0198 20.945 14.5728 20.498 14.0198 20.498C13.4668 20.498 13.0198 20.945 13.0198 21.498V26.086L12.7658 25.832C12.3748 25.441 11.7428 25.441 11.3518 25.832C10.9608 26.223 10.9608 26.855 11.3518 27.246Z" fill="#36A0FC"/>
</svg>
