<svg width="64" height="64" viewBox="0 0 64 64" fill="none" xmlns="http://www.w3.org/2000/svg">
<path d="M1.00195 50.002H9.99995C10.553 50.002 11 49.555 11 49.002C11 47.899 11.897 47.002 13 47.002H16.166L18.007 63.113C18.013 63.168 18.039 63.214 18.054 63.264C18.069 63.32 18.079 63.374 18.103 63.424C18.135 63.491 18.179 63.547 18.224 63.605C18.255 63.645 18.281 63.688 18.318 63.723C18.376 63.778 18.445 63.816 18.514 63.856C18.553 63.877 18.585 63.908 18.626 63.924C18.742 63.972 18.867 64 18.999 64H19H23.001C26.31 64 29.001 61.309 29.001 58V54.013C29.001 54.011 29.002 54.01 29.002 54.008C29.002 52.354 30.348 51.008 32.002 51.008C33.653 51.008 34.997 52.35 35.001 54C35.001 54.002 35 54.004 35 54.006V58C35 61.309 37.691 64 41 64H45.001C45.002 64 45.002 64 45.002 64C45.134 64 45.259 63.972 45.375 63.925C45.416 63.908 45.449 63.878 45.487 63.857C45.556 63.817 45.626 63.779 45.683 63.724C45.72 63.689 45.746 63.646 45.777 63.605C45.822 63.548 45.866 63.493 45.898 63.426C45.921 63.375 45.932 63.32 45.947 63.265C45.962 63.214 45.988 63.168 45.994 63.114L47.835 47.003H51C52.103 47.003 53 47.9 53 49.003C53 49.556 53.447 50.003 54 50.003H62.998C63.551 50.003 63.998 49.556 63.998 49.003C63.998 48.45 63.551 48.003 62.998 48.003H54.858C54.411 46.282 52.858 45.003 51 45.003H48.92C50.888 42.815 52.002 39.987 52.002 36.997C52.002 30.382 46.619 24.999 40.002 24.999C37.01 24.999 34.205 26.081 32.002 28.067C29.799 26.081 26.994 24.999 24.002 24.999C17.385 24.999 12.002 30.381 12.002 36.997C12.002 39.987 13.116 42.815 15.082 45.003H13C11.142 45.003 9.58895 46.282 9.14195 48.003H1.00195C0.448953 48.003 0.00195312 48.45 0.00195312 49.003C0.00195312 49.556 0.448953 50.002 1.00195 50.002ZM24.002 26.999C26.777 26.999 29.36 28.118 31.274 30.15C31.651 30.551 32.352 30.551 32.729 30.15C34.643 28.118 37.226 26.999 40.001 26.999C45.515 26.999 50.001 31.484 50.001 36.997C50.001 39.992 48.674 42.806 46.36 44.714C46.316 44.751 46.292 44.8 46.256 44.843C46.212 44.895 46.161 44.941 46.128 45.001C46.056 45.13 46.015 45.269 46.004 45.413L44.109 62H41C38.794 62 37 60.206 37 58V54.018C37 54.014 37.002 54.012 37.002 54.008C37.002 51.251 34.7589 49.008 32.002 49.008C29.25 49.008 27.011 51.244 27.003 53.994C27.003 53.998 27.001 54.002 27.001 54.006V58C27.001 60.206 25.207 62 23.001 62H19.892L17.994 45.387C17.994 45.386 17.994 45.386 17.994 45.385L17.992 45.367C17.988 45.328 17.966 45.297 17.957 45.26C17.936 45.172 17.918 45.084 17.874 45.004C17.835 44.933 17.778 44.879 17.725 44.819C17.693 44.784 17.674 44.741 17.636 44.71C15.327 42.802 14.003 39.99 14.003 36.996C14.002 31.483 18.488 26.999 24.002 26.999Z" fill="#36A0FC"/>
<path d="M32.002 24C38.619 24 44.002 18.617 44.002 12C44.002 5.383 38.619 0 32.002 0C25.385 0 20.002 5.383 20.002 12C20.002 18.617 25.385 24 32.002 24ZM32.002 2C37.516 2 42.002 6.486 42.002 12C42.002 17.514 37.516 22 32.002 22C26.488 22 22.002 17.514 22.002 12C22.002 6.486 26.488 2 32.002 2Z" fill="#36A0FC"/>
<path d="M34.1833 14.382L33.9953 14.491C33.8463 14.381 33.6883 14.283 33.5163 14.208V13.998C33.5163 13.446 33.0693 12.998 32.5163 12.998C31.9633 12.998 31.5163 13.446 31.5163 13.998V14.208C31.3453 14.283 31.1873 14.38 31.0383 14.49L30.8513 14.382C30.3733 14.104 29.7613 14.269 29.4853 14.747C29.2093 15.226 29.3733 15.837 29.8513 16.113L30.0423 16.224C30.0323 16.314 30.0153 16.402 30.0153 16.495C30.0153 16.589 30.0333 16.679 30.0423 16.77L29.8513 16.881C29.3723 17.157 29.2083 17.769 29.4853 18.247C29.6713 18.567 30.0063 18.747 30.3523 18.747C30.5223 18.747 30.6943 18.704 30.8513 18.613L31.0403 18.504C31.1873 18.613 31.3453 18.709 31.5153 18.784V18.996C31.5153 19.548 31.9623 19.996 32.5153 19.996C33.0683 19.996 33.5153 19.548 33.5153 18.996V18.784C33.6853 18.709 33.8423 18.613 33.9903 18.504L34.1793 18.613C34.3363 18.704 34.5083 18.747 34.6783 18.747C35.0243 18.747 35.3603 18.568 35.5453 18.247C35.8213 17.768 35.6573 17.157 35.1793 16.881L34.9883 16.77C34.9983 16.678 35.0153 16.589 35.0153 16.495C35.0153 16.402 34.9973 16.314 34.9883 16.224L35.1803 16.113C35.6593 15.837 35.8243 15.226 35.5473 14.747C35.2733 14.271 34.6613 14.105 34.1833 14.382ZM32.0163 16.497C32.0163 16.223 32.2383 16.001 32.5113 15.998C32.5133 15.998 32.5143 15.999 32.5163 15.999C32.5183 15.999 32.5193 15.998 32.5213 15.998C32.7943 16.001 33.0163 16.223 33.0163 16.497C33.0163 16.773 32.7913 16.997 32.5163 16.997C32.2413 16.997 32.0163 16.772 32.0163 16.497Z" fill="#36A0FC"/>
<path d="M37.1751 15.539C37.3641 15.836 37.6851 15.998 38.0131 15.998C38.1951 15.998 38.3791 15.948 38.5451 15.845C39.0101 15.554 39.1511 14.939 38.8651 14.471C38.8401 14.429 38.2411 13.429 38.8381 12.574C39.9291 11.01 39.3651 9.25404 38.8601 8.46204C38.5651 7.99904 37.9541 7.86604 37.4911 8.15504C37.0251 8.44604 36.8841 9.06104 37.1701 9.52904C37.1951 9.57104 37.7941 10.573 37.1971 11.429C36.1061 12.992 36.6701 14.748 37.1751 15.539Z" fill="#36A0FC"/>
<path d="M25.6536 14.364C25.9096 14.364 26.1656 14.266 26.3606 14.071L27.9046 12.527C28.3116 12.72 28.7486 12.828 29.1896 12.828C29.9586 12.828 30.7266 12.535 31.3116 11.95L34.1396 9.11999C35.3096 7.95099 35.3096 6.04699 34.1396 4.87799C32.9696 3.70799 31.0676 3.70799 29.8976 4.87799L27.0696 7.70799C26.1496 8.62699 25.9646 9.99799 26.4916 11.112L24.9466 12.657C24.5556 13.048 24.5556 13.68 24.9466 14.071C25.1426 14.266 25.3976 14.364 25.6536 14.364ZM32.7266 6.29199C33.1166 6.68199 33.1166 7.31599 32.7266 7.70599L29.8986 10.536C29.5076 10.928 28.8726 10.925 28.4836 10.537C28.0936 10.146 28.0946 9.51199 28.4846 9.12199L31.3126 6.29199C31.7026 5.90199 32.3356 5.90199 32.7266 6.29199Z" fill="#36A0FC"/>
</svg>
