<svg xmlns="http://www.w3.org/2000/svg" fill="#36A0FC" width="63.996" height="54" viewBox="0 0 63.996 54">
  <g id="_25_clean_cleaning_tooth_dentist_dental_medicine" data-name="25 clean, cleaning, tooth, dentist, dental, medicine" transform="translate(-0.002 -5)">
    <path id="Path_134" data-name="Path 134" d="M63,43h-8.14A4,4,0,0,0,51,40H48.92A11.987,11.987,0,0,0,32,23.066,11.856,11.856,0,0,0,24,20a11.983,11.983,0,0,0-8.919,20H13a4,4,0,0,0-3.858,3H1a1,1,0,0,0,0,2h9a1,1,0,0,0,1-1,2,2,0,0,1,2-2h3.166l1.841,16.11a.829.829,0,0,0,.047.151.9.9,0,0,0,.049.16,1,1,0,0,0,.121.181.973.973,0,0,0,.094.118,1.01,1.01,0,0,0,.2.133,1.079,1.079,0,0,0,.112.068A.971.971,0,0,0,19,59h4a6.006,6.006,0,0,0,6-6V49.013s0,0,0-.005A3,3,0,0,1,35,49s0,0,0,.006V53a6.006,6.006,0,0,0,6,6h4a.989.989,0,0,0,.373-.075,1.15,1.15,0,0,0,.112-.068.98.98,0,0,0,.2-.133.911.911,0,0,0,.094-.119.953.953,0,0,0,.121-.179,1.072,1.072,0,0,0,.049-.161.881.881,0,0,0,.047-.151L47.835,42H51a2,2,0,0,1,2,2,1,1,0,0,0,1,1h9a1,1,0,0,0,0-2ZM37,53V49.018s0-.006,0-.01A5,5,0,0,0,27,49s0,.007,0,.011V53a4,4,0,0,1-4,4H19.892l-1.9-16.613v0l0-.018a.932.932,0,0,0-.033-.1A1.021,1.021,0,0,0,17.873,40a.994.994,0,0,0-.133-.164,1.076,1.076,0,0,0-.1-.128,10,10,0,1,1,13.639-14.56,1.028,1.028,0,0,0,1.455,0A9.9,9.9,0,0,1,40,22a10,10,0,0,1,6.381,17.694h0c-.008.006-.014.014-.021.02a.9.9,0,0,0-.088.108.975.975,0,0,0-.146.18,1,1,0,0,0-.123.41L44.109,57H41A4,4,0,0,1,37,53Z"/>
    <path id="Path_135" data-name="Path 135" d="M3,33V34a1,1,0,0,0,0,2V37.01a1,1,0,0,0,2,0V36a1,1,0,0,0,0-2V33a1,1,0,0,0-2,0Z"/>
    <path id="Path_136" data-name="Path 136" d="M6,5A1,1,0,0,0,5,6V7.006a1,1,0,0,0,0,2v1.007a1,1,0,0,0,2,0V9.006a1,1,0,0,0,0-2V6A1,1,0,0,0,6,5Z"/>
    <path id="Path_137" data-name="Path 137" d="M17.022,14a1.006,1.006,0,1,0,.011,0Z"/>
    <path id="Path_138" data-name="Path 138" d="M5.028,21h-.01a1.006,1.006,0,1,0,.01,0Z"/>
    <path id="Path_139" data-name="Path 139" d="M32.989,8.009a1,1,0,1,0-2,0,2,2,0,0,1-2,2,1,1,0,0,0,0,2,2,2,0,0,1,2,2,1,1,0,0,0,1,1h.006a1,1,0,0,0,1-1,2,2,0,0,1,2-2,1,1,0,0,0,0-2A2,2,0,0,1,32.989,8.009Zm-1,3.384a3.847,3.847,0,0,0-.383-.383,3.956,3.956,0,0,0,.383-.383,3.956,3.956,0,0,0,.383.383A3.847,3.847,0,0,0,31.989,11.393Z"/>
    <path id="Path_140" data-name="Path 140" d="M60,32a1,1,0,0,0-1,1V34a1,1,0,0,0,0,2V37.01a1,1,0,0,0,2,0V36a1,1,0,0,0,0-2V33A1,1,0,0,0,60,32Z"/>
    <path id="Path_141" data-name="Path 141" d="M58,5a1,1,0,0,0-1,1V7.006a1,1,0,0,0,0,2v1.007a1,1,0,0,0,2,0V9.006a1,1,0,0,0,0-2V6A1,1,0,0,0,58,5Z"/>
    <path id="Path_142" data-name="Path 142" d="M47.027,14h-.011a1.006,1.006,0,1,0,.011,0Z"/>
    <path id="Path_143" data-name="Path 143" d="M59.032,21h-.011a1.006,1.006,0,1,0,.011,0Z"/>
  </g>
</svg>
