<svg xmlns="http://www.w3.org/2000/svg" width="64" height="56.996" viewBox="0 0 64 56.996">
  <g id="_22_structure_nerve_tooth_dentist_dental_medicine" data-name="22 structure, nerve, tooth, dentist, dental, medicine" transform="translate(0 -3.502)">
    <path id="Path_99" data-name="Path 99" d="M63,33.463H55.423A17.977,17.977,0,0,0,32,6.555,17.831,17.831,0,0,0,22,3.5a17.978,17.978,0,0,0-13.386,30H1a1,1,0,0,0,0,2h9.047L10,59.5h0a.939.939,0,0,0,.045.223,1.1,1.1,0,0,0,.033.165.968.968,0,0,0,.17.253.616.616,0,0,0,.044.065,1.019,1.019,0,0,0,.215.146.881.881,0,0,0,.1.069,1.144,1.144,0,0,0,.214.044A.952.952,0,0,0,11,60.5H19A10.011,10.011,0,0,0,29,50.5V43.507s0,0,0-.005a3.016,3.016,0,1,1,6.031,0s0,0,0,.005V50.5s0,0,0,.007A10.012,10.012,0,0,0,44.981,60.5l.012,0,.007,0,.029,0h8a.889.889,0,0,0,.172-.035,1.1,1.1,0,0,0,.217-.044c.035-.016.062-.045.1-.063a1.067,1.067,0,0,0,.223-.151c.018-.018.025-.043.041-.062a1,1,0,0,0,.173-.257.966.966,0,0,0,.029-.144.944.944,0,0,0,.049-.244h0l-.05-24.033H63a1,1,0,1,0,0-2ZM22,5.5A15.862,15.862,0,0,1,31.41,8.583a1,1,0,0,0,1.18,0A15.991,15.991,0,0,1,52.353,33.7c-.011.009-.015.022-.024.031a.957.957,0,0,0-.131.166,1.211,1.211,0,0,0-.1.146c-.006.013-.015.021-.021.033a.988.988,0,0,0-.1.43l.05,23.99H45.992v-2H49a1,1,0,0,0,1-1l-.011-30A8.016,8.016,0,0,0,41.985,17.5a.893.893,0,0,0-.193.039H22A7.976,7.976,0,0,0,14.032,25.5h0L14,55.5a1,1,0,0,0,1,1h3v2H12l.05-23.99h0c0-.015-.008-.026-.008-.041A.988.988,0,0,0,12,34.257c-.013-.046-.011-.1-.028-.14-.005-.012-.016-.021-.021-.031a.909.909,0,0,0-.1-.146.872.872,0,0,0-.055-.08c-.016-.019-.023-.044-.041-.062s-.026-.016-.038-.026-.015-.023-.025-.032A16,16,0,0,1,22,5.5Zm19.009,38a9,9,0,1,0-18,0v6.914c0,.028-.017.053-.017.082a3.994,3.994,0,0,1-3,3.856V33.5a5.006,5.006,0,0,1,5-5c.006,0,.011,0,.017,0A2,2,0,0,1,27,30.5a1,1,0,0,0,2,0,3.975,3.975,0,0,0-1.381-3A3.971,3.971,0,0,0,29,24.5a1,1,0,0,0-2,0,2,2,0,0,1-1.993,2h0a.238.238,0,0,0-.031.007,7.006,7.006,0,0,0-6.971,7V54.5H16l.032-28.994h0A5.974,5.974,0,0,1,22,19.537H41.985a.886.886,0,0,0,.155-.031,6.009,6.009,0,0,1,5.851,6L48,54.5h-2.01V33.505a7.007,7.007,0,0,0-6.971-7c-.011,0-.02-.007-.031-.007h-.005a2,2,0,0,1-1.993-2,1,1,0,1,0-2,0,3.971,3.971,0,0,0,1.381,3,3.975,3.975,0,0,0-1.381,3,1,1,0,1,0,2,0,2,2,0,0,1,1.983-2c.006,0,.011,0,.017,0a5.006,5.006,0,0,1,5,5v20.84A3.994,3.994,0,0,1,41.028,50.5a.936.936,0,0,0-.019-.092V43.5Zm-3.982,7s0,0,0-.005V43.5s0-.005,0-.008A5.015,5.015,0,0,0,27,43.5s0,.005,0,.008V50.5a8.008,8.008,0,0,1-7,7.93V56.407a6,6,0,0,0,4.989-5.8.824.824,0,0,0,.022-.11v-7a7,7,0,1,1,14,0v7a1.216,1.216,0,0,0,.024.123A6,6,0,0,0,43.99,56.4v2.021A8.006,8.006,0,0,1,37.028,50.5Z" fill="#36a0fc"/>
  </g>
</svg>
