<svg width="64" height="32" viewBox="0 0 64 32" fill="none" xmlns="http://www.w3.org/2000/svg">
<path d="M60 0.496094H4C1.794 0.496094 0 2.29009 0 4.49609V17.5001C0 19.3581 1.279 20.9111 3 21.3581V30.5041C3 31.0571 3.447 31.5041 4 31.5041H60C60.553 31.5041 61 31.0571 61 30.5041V21.3581C62.721 20.9111 64 19.3581 64 17.5001V4.49609C64 2.29009 62.206 0.496094 60 0.496094ZM59 29.5041H47V24.5041H49V26.5041C49 27.0571 49.447 27.5041 50 27.5041H56C56.553 27.5041 57 27.0571 57 26.5041V20.5041C57 19.9511 56.553 19.5041 56 19.5041H50C49.447 19.5041 49 19.9511 49 20.5041V22.5041H47V20.5041C47 17.1951 49.691 14.5041 53 14.5041C56.309 14.5041 59 17.1951 59 20.5041V29.5041ZM27 22.5041C26.447 22.5041 26 22.9511 26 23.5041C26 24.0571 26.447 24.5041 27 24.5041V25.5041H23V24.5041C23.553 24.5041 24 24.0571 24 23.5041C24 22.9511 23.553 22.5041 23 22.5041V21.5041H27V22.5041ZM22 27.5041H28C28.553 27.5041 29 27.0571 29 26.5041V24.5041H31V29.5041H19V24.5041H21V26.5041C21 27.0571 21.447 27.5041 22 27.5041ZM33 24.5041H35V26.5041C35 27.0571 35.447 27.5041 36 27.5041H42C42.553 27.5041 43 27.0571 43 26.5041V24.5041H45V29.5041H33V24.5041ZM37 22.5041V21.5041H41V22.5041C40.447 22.5041 40 22.9511 40 23.5041C40 24.0571 40.447 24.5041 41 24.5041V25.5041H37V24.5041C37.553 24.5041 38 24.0571 38 23.5041C38 22.9511 37.553 22.5041 37 22.5041ZM51 22.5041V21.5041H55V25.5041H51V24.5041C51.553 24.5041 52 24.0571 52 23.5041C52 22.9511 51.553 22.5041 51 22.5041ZM45 22.5041H43V20.5041C43 19.9511 42.553 19.5041 42 19.5041H36C35.447 19.5041 35 19.9511 35 20.5041V22.5041H33V20.5041C33 17.1951 35.691 14.5041 39 14.5041C42.309 14.5041 45 17.1951 45 20.5041V22.5041ZM31 22.5041H29V20.5041C29 19.9511 28.553 19.5041 28 19.5041H22C21.447 19.5041 21 19.9511 21 20.5041V22.5041H19V20.5041C19 17.1951 21.691 14.5041 25 14.5041C28.309 14.5041 31 17.1951 31 20.5041V22.5041ZM17 22.5041H15V20.5041C15 19.9511 14.553 19.5041 14 19.5041H8C7.447 19.5041 7 19.9511 7 20.5041V26.5041C7 27.0571 7.447 27.5041 8 27.5041H14C14.553 27.5041 15 27.0571 15 26.5041V24.5041H17V29.5041H5V20.5041C5 17.1951 7.691 14.5041 11 14.5041C14.309 14.5041 17 17.1951 17 20.5041V22.5041ZM13 22.5041C12.447 22.5041 12 22.9511 12 23.5041C12 24.0571 12.447 24.5041 13 24.5041V25.5041H9V21.5041H13V22.5041ZM62 17.5001C62 18.2791 61.548 18.9481 60.896 19.2781C60.302 15.4481 56.993 12.5041 53 12.5041C49.99 12.5041 47.365 14.1771 46 16.6401C44.635 14.1771 42.01 12.5041 39 12.5041C35.99 12.5041 33.365 14.1771 32 16.6401C30.635 14.1771 28.01 12.5041 25 12.5041C21.99 12.5041 19.365 14.1771 18 16.6401C16.635 14.1771 14.01 12.5041 11 12.5041C7.007 12.5041 3.697 15.4481 3.104 19.2781C2.452 18.9481 2 18.2791 2 17.5001V4.49609C2 3.39309 2.897 2.49609 4 2.49609H60C61.103 2.49609 62 3.39309 62 4.49609V17.5001Z" fill="#36A0FC"/>
</svg>
