<svg width="64" height="54" viewBox="0 0 64 54" fill="none" xmlns="http://www.w3.org/2000/svg">
<path d="M62.998 38.003H54.858C54.411 36.282 52.858 35.003 51 35.003H48.92C50.888 32.815 52.002 29.987 52.002 26.997C52.002 20.381 46.619 14.999 40.002 14.999C37.01 14.999 34.205 16.081 32.002 18.066C29.799 16.081 26.994 14.999 24.002 14.999C17.385 14.999 12.002 20.381 12.002 26.997C12.002 29.987 13.116 32.815 15.083 35.003H13C11.142 35.003 9.58895 36.282 9.14195 38.003H1.00195C0.448953 38.003 0.00195312 38.45 0.00195312 39.003C0.00195312 39.556 0.448953 40.003 1.00195 40.003H9.99995C10.553 40.003 11 39.556 11 39.003C11 37.9 11.897 37.003 13 37.003H16.166L18.007 53.113C18.013 53.168 18.039 53.214 18.054 53.264C18.069 53.32 18.079 53.374 18.103 53.424C18.135 53.491 18.179 53.547 18.224 53.605C18.255 53.645 18.281 53.688 18.318 53.723C18.376 53.778 18.445 53.816 18.514 53.856C18.553 53.877 18.585 53.908 18.626 53.924C18.742 53.972 18.867 54 18.999 54H19H23.001C26.31 54 29.001 51.309 29.001 48V44.013C29.001 44.011 29.002 44.01 29.002 44.008C29.002 42.354 30.348 41.008 32.002 41.008C33.6539 41.008 34.997 42.35 35.001 44.001C35.001 44.003 35 44.005 35 44.007V48C35 51.309 37.691 54 41 54H45.001C45.002 54 45.002 54 45.002 54C45.134 54 45.259 53.972 45.375 53.925C45.416 53.908 45.449 53.878 45.487 53.857C45.556 53.817 45.626 53.779 45.683 53.724C45.72 53.689 45.746 53.646 45.777 53.605C45.822 53.548 45.866 53.493 45.898 53.426C45.921 53.375 45.932 53.32 45.947 53.265C45.962 53.214 45.988 53.168 45.994 53.114L47.835 37.004H51C52.103 37.004 53 37.901 53 39.004C53 39.557 53.447 40.004 54 40.004H62.998C63.551 40.004 63.998 39.557 63.998 39.004C63.998 38.451 63.551 38.003 62.998 38.003ZM37 48V44.018C37 44.014 37.002 44.012 37.002 44.008C37.002 41.251 34.7589 39.008 32.002 39.008C29.249 39.008 27.01 41.245 27.003 43.996C27.003 44 27.001 44.003 27.001 44.007V48C27.001 50.206 25.207 52 23.001 52H19.892L17.994 35.387C17.994 35.386 17.994 35.386 17.994 35.385L17.992 35.367C17.988 35.33 17.967 35.301 17.959 35.265C17.938 35.174 17.918 35.084 17.873 35.001C17.839 34.938 17.786 34.891 17.74 34.837C17.703 34.795 17.679 34.745 17.636 34.709C15.327 32.801 14.003 29.989 14.003 26.996C14.003 21.483 18.489 16.998 24.003 16.998C26.778 16.998 29.361 18.117 31.275 20.149C31.652 20.551 32.353 20.551 32.73 20.149C34.644 18.117 37.227 16.998 40.002 16.998C45.516 16.998 50.002 21.483 50.002 26.996C50.002 29.981 48.683 32.785 46.383 34.692C46.383 34.693 46.383 34.693 46.383 34.693C46.375 34.699 46.369 34.707 46.362 34.713C46.325 34.744 46.305 34.786 46.274 34.821C46.222 34.879 46.166 34.931 46.128 35.001C46.057 35.129 46.016 35.268 46.005 35.411L44.109 52H41C38.794 52 37 50.206 37 48Z" fill="#36A0FC"/>
<path d="M2.99609 27.9971V29.0031C2.44309 29.0031 1.99609 29.4501 1.99609 30.0031C1.99609 30.5561 2.44309 31.0031 2.99609 31.0031V32.0101C2.99609 32.5631 3.44309 33.0101 3.99609 33.0101C4.54909 33.0101 4.99609 32.5631 4.99609 32.0101V31.0031C5.54909 31.0031 5.99609 30.5561 5.99609 30.0031C5.99609 29.4501 5.54909 29.0031 4.99609 29.0031V27.9971C4.99609 27.4441 4.54909 26.9971 3.99609 26.9971C3.44309 26.9971 2.99609 27.4441 2.99609 27.9971Z" fill="#36A0FC"/>
<path d="M5.99609 0C5.44309 0 4.99609 0.447 4.99609 1V2.006C4.44309 2.006 3.99609 2.453 3.99609 3.006C3.99609 3.559 4.44309 4.006 4.99609 4.006V5.013C4.99609 5.566 5.44309 6.013 5.99609 6.013C6.54909 6.013 6.99609 5.566 6.99609 5.013V4.006C7.54909 4.006 7.99609 3.559 7.99609 3.006C7.99609 2.453 7.54909 2.006 6.99609 2.006V1C6.99609 0.447 6.54909 0 5.99609 0Z" fill="#36A0FC"/>
<path d="M17.0223 9.00391C16.4703 9.00391 16.0283 9.45091 16.0283 10.0039C16.0283 10.5569 16.4803 11.0039 17.0333 11.0039C17.5853 11.0039 18.0333 10.5569 18.0333 10.0039C18.0333 9.45091 17.5853 9.00391 17.0333 9.00391H17.0223Z" fill="#36A0FC"/>
<path d="M5.02841 16.0049H5.01841C4.46641 16.0049 4.02441 16.4519 4.02441 17.0049C4.02441 17.5579 4.47641 18.0049 5.02941 18.0049C5.58141 18.0049 6.02941 17.5579 6.02941 17.0049C6.02941 16.4519 5.58041 16.0049 5.02841 16.0049Z" fill="#36A0FC"/>
<path d="M32.9893 3.00903C32.9893 2.45603 32.5423 2.00903 31.9893 2.00903C31.4363 2.00903 30.9893 2.45603 30.9893 3.00903C30.9893 4.11203 30.0923 5.00903 28.9893 5.00903C28.4363 5.00903 27.9893 5.45603 27.9893 6.00903C27.9893 6.56203 28.4363 7.00903 28.9893 7.00903C30.0913 7.00903 30.9863 7.90503 30.9863 9.00503C30.9863 9.55803 31.4333 10.005 31.9863 10.005C31.9873 10.005 31.9883 10.004 31.9893 10.004C31.9903 10.004 31.9913 10.005 31.9923 10.005C32.5453 10.005 32.9923 9.55803 32.9923 9.00503C32.9923 7.90403 33.8883 7.00903 34.9893 7.00903C35.5423 7.00903 35.9893 6.56203 35.9893 6.00903C35.9893 5.45603 35.5423 5.00903 34.9893 5.00903C33.8873 5.00903 32.9893 4.11103 32.9893 3.00903ZM31.9893 6.39303C31.8703 6.25603 31.7433 6.12903 31.6063 6.01003C31.7433 5.89003 31.8703 5.76403 31.9893 5.62703C32.1083 5.76403 32.2353 5.89003 32.3723 6.01003C32.2353 6.12903 32.1083 6.25603 31.9893 6.39303Z" fill="#36A0FC"/>
<path d="M60.0039 26.9971C59.4509 26.9971 59.0039 27.4441 59.0039 27.9971V29.0031C58.4509 29.0031 58.0039 29.4501 58.0039 30.0031C58.0039 30.5561 58.4509 31.0031 59.0039 31.0031V32.0101C59.0039 32.5631 59.4509 33.0101 60.0039 33.0101C60.5569 33.0101 61.0039 32.5631 61.0039 32.0101V31.0031C61.5569 31.0031 62.0039 30.5561 62.0039 30.0031C62.0039 29.4501 61.5569 29.0031 61.0039 29.0031V27.9971C61.0039 27.4441 60.5569 26.9971 60.0039 26.9971Z" fill="#36A0FC"/>
<path d="M58.0039 0C57.4509 0 57.0039 0.447 57.0039 1V2.006C56.4509 2.006 56.0039 2.453 56.0039 3.006C56.0039 3.559 56.4509 4.006 57.0039 4.006V5.013C57.0039 5.566 57.4509 6.013 58.0039 6.013C58.5569 6.013 59.0039 5.566 59.0039 5.013V4.006C59.5569 4.006 60.0039 3.559 60.0039 3.006C60.0039 2.453 59.5569 2.006 59.0039 2.006V1C59.0039 0.447 58.5569 0 58.0039 0Z" fill="#36A0FC"/>
<path d="M47.0265 9.00391H47.0155C46.4635 9.00391 46.0215 9.45091 46.0215 10.0039C46.0215 10.5569 46.4735 11.0039 47.0265 11.0039C47.5785 11.0039 48.0265 10.5569 48.0265 10.0039C48.0265 9.45091 47.5785 9.00391 47.0265 9.00391Z" fill="#36A0FC"/>
<path d="M59.0323 16.0049H59.0213C58.4693 16.0049 58.0273 16.4519 58.0273 17.0049C58.0273 17.5579 58.4793 18.0049 59.0323 18.0049C59.5843 18.0049 60.0323 17.5579 60.0323 17.0049C60.0323 16.4519 59.5843 16.0049 59.0323 16.0049Z" fill="#36A0FC"/>
</svg>
