<svg width="48" height="64" viewBox="0 0 48 64" fill="none" xmlns="http://www.w3.org/2000/svg">
<path d="M21.994 61.999C21.996 61.999 21.998 62 22 62C22.552 62 23 62.448 23 63C23 63.553 23.447 64 24 64C24.553 64 25 63.553 25 63C25 62.448 25.449 61.999 26.001 61.999C38.132 61.998 48 52.13 48 39.999V7C48 6.448 47.553 6 47 6C46.447 6 46 6.448 46 7C46 8.654 44.654 10 43 10H34C29.037 10 25 5.962 25 1C25 0.448 24.553 0 24 0C23.447 0 23 0.448 23 1C23 5.962 18.963 10 14 10H5C3.346 10 2 8.654 2 7C2 6.448 1.553 6 1 6C0.447 6 0 6.448 0 7V39.999C0 52.128 9.866 61.996 21.994 61.999ZM2 10.975C2.838 11.609 3.87 12 5 12H14C18.439 12 22.264 9.352 24 5.556C25.736 9.352 29.561 12 34 12H43C44.13 12 45.162 11.609 46 10.975V39.999C46 51.027 37.028 59.999 26 59.999H25.999C25.229 60 24.531 60.301 24 60.78C23.471 60.302 22.777 60.004 22.01 60.001C22.006 60.001 22.004 59.999 22 59.999C10.972 59.999 2 51.027 2 39.999V10.975Z" fill="#36A0FC"/>
<path d="M22 56.9999H26C35.374 56.9999 43 49.3729 43 39.9989V15.9999C43 15.4479 42.553 14.9999 42 14.9999H34C30.564 14.9999 27.251 13.7229 24.668 11.4039C24.289 11.0629 23.711 11.0629 23.332 11.4039C20.749 13.7229 17.436 14.9999 14 14.9999H6C5.447 14.9999 5 15.4479 5 15.9999V39.9989C5 49.3729 12.626 56.9999 22 56.9999ZM7 16.9999H14C17.639 16.9999 21.157 15.7489 24 13.4599C26.843 15.7489 30.361 16.9999 34 16.9999H41V39.9989C41 48.2709 34.271 54.9999 26 54.9999H22C13.729 54.9999 7 48.2709 7 39.9989V16.9999Z" fill="#36A0FC"/>
<path d="M15.998 35.7181V44.9951C15.998 45.5481 16.445 45.9951 16.998 45.9951H19.998C21.649 45.9951 22.992 44.6541 22.997 43.0051C22.997 43.0011 22.999 42.9981 22.999 42.9951V40.9951C22.999 40.4431 23.447 39.9951 23.999 39.9951C24.551 39.9951 24.999 40.4431 24.999 40.9951V42.9951C24.999 44.6491 26.345 45.9951 27.999 45.9951H30.999C31.552 45.9951 31.999 45.5481 31.999 44.9951V35.7211C33.858 34.4191 35 32.2841 35 29.9961C35 26.1361 31.859 22.9961 28 22.9961C26.563 22.9961 25.171 23.4401 24 24.2591C22.829 23.4401 21.437 22.9961 20 22.9961C16.141 22.9961 13 26.1361 13 29.9961C13 32.2821 14.141 34.4171 15.998 35.7181ZM20 24.9961C21.228 24.9961 22.411 25.4511 23.332 26.2771C23.713 26.6191 24.287 26.6191 24.668 26.2771C25.589 25.4511 26.772 24.9961 28 24.9961C30.757 24.9961 33 27.2391 33 29.9961C33 31.7731 32.042 33.4321 30.499 34.3241C30.468 34.3421 30.449 34.3721 30.421 34.3921C30.358 34.4391 30.298 34.4871 30.246 34.5461C30.21 34.5891 30.183 34.6351 30.154 34.6841C30.118 34.7451 30.086 34.8041 30.062 34.8721C30.041 34.9331 30.034 34.9931 30.025 35.0581C30.019 35.1021 29.999 35.1411 29.999 35.1871V43.9951H27.999C27.447 43.9951 26.999 43.5471 26.999 42.9951V40.9951C26.999 39.3411 25.653 37.9951 23.999 37.9951C22.345 37.9951 20.999 39.3411 20.999 40.9951V42.9901C20.999 42.9921 20.998 42.9931 20.998 42.9951C20.998 43.5471 20.55 43.9951 19.998 43.9951H17.998V35.1871C17.998 35.1441 17.978 35.1071 17.974 35.0661C17.965 34.9971 17.956 34.9311 17.934 34.8661C17.913 34.8031 17.882 34.7501 17.85 34.6941C17.819 34.6391 17.787 34.5891 17.746 34.5401C17.699 34.4861 17.645 34.4441 17.589 34.4021C17.557 34.3771 17.535 34.3421 17.499 34.3221C15.958 33.4301 15 31.7721 15 29.9961C15 27.2391 17.243 24.9961 20 24.9961Z" fill="#36A0FC"/>
</svg>
