<svg xmlns="http://www.w3.org/2000/svg" width="52" height="64" viewBox="0 0 52 64">
  <g id="_10_implant_prosthesis_tooth_dentist_dental_medicine" data-name="10 implant, prosthesis, tooth, dentist, dental, medicine" transform="translate(-6)">
    <path id="Path_9" data-name="Path 9" d="M12,29.2V35a3,3,0,0,0,3,3H27v1H26a3,3,0,1,0,0,6h1v1H26a3,3,0,1,0,0,6h1v1H26a3,3,0,1,0,0,6h1.524l3.695,4.624a1,1,0,0,0,1.563,0L36.477,59H38a3,3,0,1,0,0-6H37V52h1a3,3,0,0,0,0-6H37V45h1a3,3,0,0,0,0-6H37V38H49a3,3,0,0,0,3-3V29.2A16.482,16.482,0,0,0,41.5,0,16.3,16.3,0,0,0,32,3.025,16.3,16.3,0,0,0,22.5,0,16.482,16.482,0,0,0,12,29.2ZM32,61.4,30.083,59h3.834ZM38,57H26a1,1,0,1,1,0-2H38a1,1,0,1,1,0,2Zm-3-4H29V52h6Zm3-3H26a1,1,0,0,1,0-2H38a1,1,0,0,1,0,2Zm-3-4H29V45h6Zm3-3H26a1,1,0,0,1,0-2H38a1,1,0,0,1,0,2Zm-3-4H29V38h6ZM22.5,2a14.348,14.348,0,0,1,8.886,3.06,1,1,0,0,0,1.229,0A14.346,14.346,0,0,1,41.5,2a14.5,14.5,0,0,1,8.885,25.96c-.017.013-.024.033-.04.047a.994.994,0,0,0-.135.155,1.1,1.1,0,0,0-.1.152,1.2,1.2,0,0,0-.057.172.959.959,0,0,0-.041.2c0,.021-.012.039-.012.06V35a1,1,0,0,1-1,1H15a1,1,0,0,1-1-1V28.75c0-.022-.012-.041-.013-.063a.931.931,0,0,0-.039-.193.956.956,0,0,0-.06-.183A1.7,1.7,0,0,0,13.651,28c-.016-.013-.022-.032-.038-.044A14.5,14.5,0,0,1,22.5,2Z" fill="#36a0fc"/>
    <path id="Path_10" data-name="Path 10" d="M41.5,7A9.511,9.511,0,0,1,51,16.5a1,1,0,0,0,2,0A11.513,11.513,0,0,0,41.5,5a1,1,0,0,0,0,2Z" fill="#36a0fc"/>
  </g>
</svg>
