<svg width="64" height="40" viewBox="0 0 64 40" fill="none" xmlns="http://www.w3.org/2000/svg">
<path d="M59 0.00292969H5C2.243 0.00292969 0 2.24593 0 5.00293V12.0029C0 14.4179 1.721 16.4369 4 16.9019V23.0999C1.721 23.5649 0 25.5839 0 27.9979V34.9959C0 37.7529 2.243 39.9959 5 39.9959L59 39.9969C61.757 39.9969 64 37.7539 64 34.9969V27.9989C64 25.5849 62.279 23.5639 60 23.0999V16.9019C62.279 16.4369 64 14.4179 64 12.0029V5.00293C64 2.24593 61.757 0.00292969 59 0.00292969ZM58 24.5039C58 25.4399 57.636 26.3179 56.975 26.9799C56.314 27.6419 55.435 28.0049 54.499 28.0049H54.498C52.57 28.0049 51.002 26.4349 51.002 24.5039C51.002 24.5019 51.001 24.5009 51.001 24.4989V21.0049H58V24.5039ZM6 21.0049H12.998V24.5039C12.998 24.5049 12.999 24.5059 12.999 24.5069C12.997 26.4369 11.429 28.0049 9.501 28.0049C7.57 28.0049 6 26.4349 6 24.5039V21.0049ZM14.998 24.4939V21.0049H22.004V24.5039C22.004 24.5049 22.005 24.5059 22.005 24.5069C22.003 26.4369 20.433 28.0049 18.502 28.0049C16.571 28.0049 15 26.4349 15 24.5039C15 24.4999 14.998 24.4979 14.998 24.4939ZM24.004 24.4939V21.0049H30.999V24.5039C30.999 24.5089 31.002 24.5129 31.002 24.5169C31.002 24.5259 31.003 24.5349 31.003 24.5429C30.982 26.4549 29.421 28.0049 27.502 28.0049C25.574 28.0049 24.006 26.4349 24.006 24.5039C24.006 24.4999 24.004 24.4979 24.004 24.4939ZM32.999 24.4649V21.0049H39.994V24.5039C39.994 24.5089 39.997 24.5129 39.997 24.5169C39.997 24.5199 39.997 24.5219 39.997 24.5239C39.986 26.4459 38.424 28.0049 36.504 28.0049C34.586 28.0049 33.026 26.4549 33.005 24.5429C33.005 24.5289 33.007 24.5169 33.007 24.5039C33.007 24.4899 33 24.4789 32.999 24.4649ZM41.994 24.4789V21.0039H49.001V24.5029C49.001 24.5039 49.002 24.5049 49.002 24.5059C49 26.4369 47.43 28.0049 45.5 28.0049C43.575 28.0049 42.009 26.4449 41.998 24.5239C41.998 24.5169 41.999 24.5109 41.999 24.5039C41.999 24.4949 41.994 24.4879 41.994 24.4789ZM58 19.0049H51.001V15.5069C51.001 13.5759 52.57 12.0049 54.499 12.0049C56.43 12.0049 58 13.5759 58 15.5069V19.0049ZM49.001 19.0049H41.994V15.5119C41.994 15.5099 41.995 15.5089 41.995 15.5069C41.995 13.5759 43.566 12.0049 45.498 12.0049C47.429 12.0049 49 13.5759 49 15.5069C49 15.5089 49.001 15.5099 49.001 15.5119V19.0049ZM39.994 19.0049H32.999V15.5069C32.999 15.4939 32.997 15.4819 32.997 15.4679C33.018 13.5549 34.579 12.0049 36.498 12.0049C38.426 12.0049 39.994 13.5759 39.994 15.5069V19.0049ZM30.999 15.5359V19.0049H24.004V15.5069C24.004 15.5009 24.003 15.4939 24.003 15.4869C24.014 13.5649 25.576 12.0049 27.496 12.0049C29.414 12.0049 30.974 13.5549 30.995 15.4679C30.995 15.4809 30.993 15.4929 30.993 15.5069C30.993 15.5169 30.999 15.5259 30.999 15.5359ZM22.004 15.5209V19.0039H14.998V15.5059C14.998 13.5749 16.569 12.0039 18.5 12.0039C20.425 12.0039 21.991 13.5649 22.002 15.4859C22.002 15.4929 22.001 15.4989 22.001 15.5059C22.001 15.5119 22.004 15.5159 22.004 15.5209ZM12.998 19.0049H6V15.5069C6 13.5759 7.571 12.0049 9.502 12.0049C11.43 12.0049 12.998 13.5759 12.998 15.5069V19.0049ZM62 27.9989V34.9969C62 36.6509 60.654 37.9969 59 37.9969L5 37.9959C3.346 37.9959 2 36.6499 2 34.9959V27.9979C2 26.6809 2.86 25.5709 4.044 25.1699C4.375 27.8899 6.693 30.0049 9.501 30.0049C11.36 30.0049 13.004 29.0739 14 27.6559C14.996 29.0739 16.641 30.0049 18.502 30.0049C20.363 30.0049 22.009 29.0739 23.005 27.6559C24 29.0739 25.644 30.0049 27.502 30.0049C29.362 30.0049 31.007 29.0749 32.004 27.6599C33 29.0749 34.645 30.0049 36.504 30.0049C38.361 30.0049 40.003 29.0749 40.998 27.6589C41.995 29.0749 43.64 30.0049 45.5 30.0049C47.36 30.0049 49.006 29.0739 50.002 27.6569C50.997 29.0739 52.64 30.0049 54.498 30.0049C54.498 30.0049 54.499 30.0049 54.5 30.0049C55.969 30.0049 57.35 29.4329 58.389 28.3939C59.27 27.5129 59.79 26.3809 59.936 25.1639C61.13 25.5589 62 26.6739 62 27.9989ZM62 12.0029C62 13.3219 61.14 14.4319 59.954 14.8329C59.62 12.1169 57.304 10.0049 54.499 10.0049C52.64 10.0049 50.996 10.9359 50 12.3539C49.004 10.9359 47.359 10.0049 45.498 10.0049C43.637 10.0049 41.991 10.9359 40.995 12.3539C40 10.9359 38.356 10.0049 36.498 10.0049C34.638 10.0049 32.993 10.9349 31.996 12.3509C31 10.9349 29.355 10.0049 27.496 10.0049C25.639 10.0049 23.997 10.9349 23.002 12.3509C22.005 10.9339 20.36 10.0049 18.5 10.0049C16.64 10.0049 14.994 10.9359 13.998 12.3529C13.003 10.9359 11.36 10.0049 9.502 10.0049C6.696 10.0049 4.38 12.1169 4.046 14.8329C2.86 14.4319 2 13.3219 2 12.0029V5.00293C2 3.34893 3.346 2.00293 5 2.00293H59C60.654 2.00293 62 3.34893 62 5.00293V12.0029Z" fill="#36A0FC"/>
</svg>
