<svg xmlns="http://www.w3.org/2000/svg" width="64" height="56.996" viewBox="0 0 64 56.996">
  <g id="_19_wisdom_glasses_tooth_dentist_dental_medicine" data-name="19 wisdom, glasses, tooth, dentist, dental, medicine" transform="translate(0 -3.502)">
    <path id="Path_61" data-name="Path 61" d="M63,33.463H55.423A17.977,17.977,0,0,0,32,6.555,17.831,17.831,0,0,0,22,3.5a17.978,17.978,0,0,0-13.386,30H1a1,1,0,0,0,0,2h9.124L12,59.576a.883.883,0,0,0,.049.176,1.015,1.015,0,0,0,.043.16,3.9,3.9,0,0,0,.215.305.974.974,0,0,0,.2.133,1.04,1.04,0,0,0,.114.072A1,1,0,0,0,13,60.5h6a10.011,10.011,0,0,0,10-10V45.509s0,0,0-.005a3.016,3.016,0,1,1,6.031,0s0,0,0,.005V50.5s0,0,0,.007a10.011,10.011,0,0,0,10,9.993h6a.991.991,0,0,0,.377-.076,1.071,1.071,0,0,0,.121-.076,1.037,1.037,0,0,0,.19-.128,1.017,1.017,0,0,0,.1-.128.969.969,0,0,0,.119-.178,1.031,1.031,0,0,0,.045-.161.943.943,0,0,0,.048-.175L53.9,35.463H63a1,1,0,1,0,0-2ZM37.028,50.5s0,0,0-.005V45.506s0-.005,0-.008A5.015,5.015,0,0,0,27,45.5s0,.005,0,.008V50.5a8.009,8.009,0,0,1-8,8H13.923l-1.878-24.07v0A.985.985,0,0,0,12,34.258a1.054,1.054,0,0,0-.049-.171c-.006-.014-.007-.027-.014-.04s-.015-.016-.021-.024c-.016-.029-.044-.053-.063-.081a.989.989,0,0,0-.134-.168c-.01-.01-.015-.023-.025-.032A15.991,15.991,0,0,1,31.409,8.584a1,1,0,0,0,1.18,0A15.991,15.991,0,0,1,52.352,33.7c-.011.009-.015.022-.024.031a.957.957,0,0,0-.131.166,1.1,1.1,0,0,0-.093.126.98.98,0,0,0-.128.4L50.1,58.5H45.029A8.01,8.01,0,0,1,37.028,50.5Z" fill="#36a0fc"/>
    <path id="Path_62" data-name="Path 62" d="M48.044,31.509h0v-4h0a1,1,0,0,0-2,0,2,2,0,0,1-2,2H35.063c-.007,0-.013,0-.02,0A3.975,3.975,0,0,0,32,30.935,3.978,3.978,0,0,0,28.957,29.5c-.007,0-.013,0-.02,0H19.956a2,2,0,0,1-2-2,1,1,0,0,0-2,0h0v4h0a6.006,6.006,0,0,0,6,6h7.505a.981.981,0,0,0,.473-.135A3.979,3.979,0,0,0,32,36.076a3.979,3.979,0,0,0,2.066,1.3.981.981,0,0,0,.473.135h7.505A6.007,6.007,0,0,0,48.044,31.509Zm-19.087,4h-7a4,4,0,0,1-4-4V30.95a3.953,3.953,0,0,0,2,.557h9s.008,0,.013,0a2,2,0,0,1-.013,4Zm13.087,0h-7a2,2,0,0,1-.013-4c.005,0,.008,0,.013,0h9a3.953,3.953,0,0,0,2-.557v.558A4,4,0,0,1,42.044,35.508Z" fill="#36a0fc"/>
    <path id="Path_63" data-name="Path 63" d="M19.961,22.5h10a1,1,0,0,0,1-1v-2h2v2a1,1,0,0,0,1,1h10a1,1,0,0,0,1-1v-5a1,1,0,0,0-1-1h-10a1,1,0,0,0-1,1v1h-2v-1a1,1,0,0,0-1-1h-10a1,1,0,0,0-1,1v5A1,1,0,0,0,19.961,22.5Zm15-5h8v3h-8Zm-14,0h8v3h-8Z" fill="#36a0fc"/>
  </g>
</svg>
