<svg width="60" height="64" viewBox="0 0 60 64" fill="none" xmlns="http://www.w3.org/2000/svg">
<path d="M53 27H55.002H55.003C55.136 27 55.263 26.972 55.38 26.924C55.424 26.905 55.458 26.873 55.499 26.849C55.566 26.81 55.635 26.774 55.691 26.72C55.729 26.683 55.754 26.636 55.786 26.594C55.829 26.536 55.875 26.482 55.906 26.415C55.928 26.365 55.935 26.31 55.95 26.256C55.967 26.197 55.994 26.144 55.999 26.081L56.96 14.259C58.866 12.746 60 10.448 60 8C60 3.589 56.411 0 52 0C50.158 0 48.415 0.618 47 1.757C45.587 0.618 43.844 0 42 0C37.589 0 34 3.589 34 8C34 10.448 35.135 12.746 37.042 14.259L38.003 26.081C38.008 26.144 38.035 26.197 38.052 26.257C38.067 26.311 38.073 26.365 38.096 26.415C38.127 26.481 38.173 26.536 38.217 26.594C38.248 26.637 38.273 26.683 38.311 26.72C38.368 26.774 38.436 26.81 38.503 26.85C38.544 26.873 38.578 26.906 38.622 26.924C38.739 26.972 38.866 27 38.999 27H39H41.002C43.759 27 46.002 24.757 46.002 22V19.996C46.002 19.444 46.449 18.996 47 18.996C47.552 18.996 48 19.444 48 19.996V22C48 24.757 50.243 27 53 27ZM57.894 6.894C55.472 6.44 53.561 4.529 53.107 2.107C55.528 2.561 57.439 4.472 57.894 6.894ZM47 16.996C45.347 16.996 44.002 18.342 44.002 19.996V22C44.002 23.654 42.656 25 41.002 25H39.922L39.001 13.667C39 13.649 38.989 13.637 38.987 13.619C38.978 13.552 38.953 13.49 38.93 13.425C38.909 13.367 38.895 13.308 38.865 13.255C38.833 13.198 38.786 13.152 38.742 13.103C38.701 13.057 38.665 13.008 38.616 12.971C38.599 12.958 38.592 12.94 38.575 12.928C36.963 11.804 36 9.962 36 8C36 4.691 38.691 2 42 2C43.626 2 45.147 2.641 46.285 3.805C46.473 3.997 46.73 4.105 47 4.105C47.269 4.105 47.526 3.997 47.715 3.804C48.636 2.863 49.809 2.272 51.081 2.076C51.562 5.624 54.372 8.435 57.921 8.917C57.671 10.523 56.783 11.98 55.428 12.925C55.407 12.939 55.398 12.961 55.379 12.976C55.345 13.003 55.319 13.039 55.288 13.071C55.231 13.132 55.175 13.189 55.136 13.259C55.108 13.309 55.094 13.364 55.074 13.419C55.051 13.484 55.025 13.547 55.016 13.615C55.013 13.634 55.002 13.648 55 13.667L54.08 25H53C51.346 25 50 23.654 50 22V19.996C50 18.342 48.654 16.996 47 16.996Z" fill="#36A0FC"/>
<path d="M21.996 50.997C22.549 50.997 22.996 50.55 22.996 49.997V48.227C24.88 46.714 26 44.43 26 41.998C26 37.587 22.411 33.998 18 33.998C16.156 33.998 14.413 34.616 13 35.755C11.585 34.616 9.842 33.998 8 33.998C3.589 33.998 0 37.587 0 41.998C0 44.43 1.118 46.713 3 48.226V49.997C3 50.55 3.447 50.997 4 50.997H9V52C8.447 52 8 52.447 8 53C8 53.553 8.447 54 9 54V55C8.447 55 8 55.447 8 56C8 56.553 8.447 57 9 57V58C8.447 58 8 58.447 8 59C8 59.553 8.447 60 9 60V60.998C9 61.332 9.167 61.644 9.445 61.83L12.447 63.832C12.615 63.944 12.809 64 13.002 64C13.195 64 13.39 63.943 13.558 63.831L16.554 61.829C16.831 61.643 16.998 61.332 16.998 60.998V60H17C17.553 60 18 59.553 18 59C18 58.447 17.553 58 17 58H16.998V57H17C17.553 57 18 56.553 18 56C18 55.447 17.553 55 17 55H16.998V54H17C17.553 54 18 53.553 18 53C18 52.447 17.553 52 17 52H16.998V50.997H21.996ZM2 41.998C2 38.689 4.691 35.998 8 35.998C9.624 35.998 11.146 36.639 12.285 37.803C12.473 37.995 12.731 38.104 13 38.104C13.27 38.104 13.527 37.996 13.715 37.803C14.853 36.639 16.374 35.998 18 35.998C21.309 35.998 24 38.689 24 41.998C24 43.96 23.037 45.802 21.425 46.926C21.402 46.943 21.389 46.968 21.367 46.987C21.312 47.032 21.266 47.082 21.222 47.137C21.184 47.186 21.149 47.234 21.121 47.287C21.091 47.344 21.07 47.402 21.052 47.465C21.032 47.529 21.019 47.593 21.013 47.66C21.01 47.689 20.995 47.716 20.995 47.746V48.997H15.997H10H5V47.744C5 47.714 4.985 47.689 4.983 47.66C4.977 47.591 4.962 47.527 4.943 47.461C4.924 47.399 4.905 47.343 4.876 47.287C4.847 47.231 4.812 47.183 4.772 47.134C4.729 47.079 4.684 47.03 4.63 46.986C4.609 46.967 4.596 46.941 4.571 46.924C2.962 45.801 2 43.959 2 41.998ZM14.998 60.464L13.001 61.798L11 60.463V60H14.998V60.464ZM14.998 58H11V57H14.998V58ZM14.998 55H11V54H14.998V55ZM14.998 52H11V50.997H14.998V52Z" fill="#36A0FC"/>
<path d="M47.0025 49.001C47.5555 49.001 48.0025 48.554 48.0025 48.001C48.0025 47.998 48.0005 47.995 48.0005 47.991V29C48.0005 28.447 47.5535 28 47.0005 28C46.4475 28 46.0005 28.447 46.0005 29V47.001H30.4135L30.7075 46.707C31.0985 46.316 31.0985 45.684 30.7075 45.293C30.3165 44.902 29.6845 44.902 29.2935 45.293L27.2945 47.293C27.2015 47.385 27.1285 47.496 27.0775 47.619C26.9755 47.863 26.9755 48.139 27.0775 48.383C27.1285 48.506 27.2015 48.617 27.2945 48.709L29.2935 50.707C29.4885 50.902 29.7445 51 30.0005 51C30.2565 51 30.5125 50.902 30.7075 50.707C31.0985 50.316 31.0985 49.684 30.7075 49.293L30.4155 49.001H47.0025Z" fill="#36A0FC"/>
<path d="M29.293 15.293C28.902 15.684 28.902 16.316 29.293 16.707C29.488 16.902 29.744 17 30 17C30.256 17 30.512 16.902 30.707 16.707L32.706 14.707C32.799 14.615 32.872 14.504 32.923 14.381C33.025 14.137 33.025 13.861 32.923 13.617C32.872 13.494 32.799 13.383 32.706 13.291L30.707 11.293C30.316 10.902 29.684 10.902 29.293 11.293C28.902 11.684 28.902 12.316 29.293 12.707L29.585 12.999H13C12.447 12.999 12 13.446 12 13.999V30.998C12 31.551 12.447 31.998 13 31.998C13.553 31.998 14 31.551 14 30.998V14.999H29.587L29.293 15.293Z" fill="#36A0FC"/>
</svg>
