<svg width="46" height="62" viewBox="0 0 46 62" fill="none" xmlns="http://www.w3.org/2000/svg">
<path d="M9.49805 43.5C4.53505 43.5 0.498047 47.537 0.498047 52.5L0.500047 59.5C0.500047 60.603 1.39705 61.5 2.50005 61.5H42.498C43.601 61.5 44.498 60.603 44.498 59.5V52.502C44.498 47.539 40.461 43.502 35.498 43.502L30.498 43.5V39.342C31.467 38.78 32.381 38.114 33.226 37.348C33.642 37.438 34.065 37.5 34.5 37.5C37.809 37.5 40.5 34.809 40.5 31.5C40.5 29.723 39.718 28.085 38.424 26.967C38.468 26.48 38.498 25.989 38.498 25.5V13.502C38.498 9.43 35.437 6.066 31.498 5.571V1.5C31.498 0.947 31.051 0.5 30.498 0.5H20.498C12.778 0.5 6.49805 6.78 6.49805 14.5V25.5C6.49805 31.406 9.72405 36.563 14.498 39.335V43.502L9.49805 43.5ZM34.619 45.502C34.904 45.996 35.171 46.503 35.394 47.028C36.128 48.757 36.501 50.597 36.501 52.498C36.501 54.974 35.847 57.381 34.617 59.5H10.382C9.15205 57.377 8.49605 54.97 8.49605 52.498C8.49605 50.607 8.86605 48.773 9.59705 47.047C9.82105 46.519 10.09 46.004 10.382 45.5L14.569 45.502C15.066 49.439 18.428 52.496 22.499 52.496C26.57 52.496 29.935 49.438 30.431 45.5L34.619 45.502ZM22.498 50.496C20.344 50.496 18.457 49.351 17.398 47.642C18.848 48.208 20.675 48.5 22.498 48.5C24.321 48.5 26.148 48.208 27.6 47.642C26.541 49.352 24.653 50.496 22.498 50.496ZM8.04505 45.654C7.94705 45.858 7.84305 46.061 7.75505 46.268C6.92005 48.242 6.49605 50.337 6.49605 52.497C6.49605 54.94 7.05905 57.327 8.11805 59.499H2.50005L2.49805 52.499C2.49805 49.139 4.88105 46.325 8.04505 45.654ZM42.498 52.502V59.5H36.882C37.94 57.33 38.502 54.943 38.502 52.498C38.502 50.327 38.075 48.224 37.234 46.245C37.149 46.046 37.048 45.853 36.956 45.657C40.117 46.33 42.498 49.143 42.498 52.502ZM20.498 2.5H29.498V6.502C29.498 7.055 29.945 7.502 30.498 7.502C33.807 7.502 36.498 10.193 36.498 13.502V17.086L34.205 14.793C34.185 14.773 34.16 14.768 34.14 14.75C34.088 14.705 34.034 14.672 33.975 14.64C33.918 14.609 33.865 14.579 33.804 14.56C33.744 14.54 33.685 14.533 33.622 14.525C33.557 14.516 33.494 14.509 33.429 14.514C33.368 14.518 33.311 14.533 33.25 14.548C33.184 14.566 33.12 14.585 33.058 14.616C33.034 14.628 33.008 14.628 32.985 14.641C32.937 14.67 28.134 17.499 22.499 17.499C16.864 17.499 12.061 14.67 12.013 14.641C11.99 14.627 11.964 14.627 11.94 14.616C11.877 14.585 11.814 14.565 11.748 14.548C11.687 14.532 11.63 14.518 11.569 14.514C11.504 14.509 11.441 14.516 11.376 14.525C11.313 14.533 11.254 14.541 11.194 14.56C11.133 14.58 11.08 14.609 11.023 14.64C10.964 14.672 10.91 14.705 10.858 14.75C10.837 14.768 10.812 14.773 10.793 14.793L8.50005 17.086V14.5C8.49805 7.883 13.881 2.5 20.498 2.5ZM8.49805 25.5V19.914L11.676 16.736C13.288 17.574 17.533 19.5 22.498 19.5C27.463 19.5 31.708 17.574 33.32 16.736L36.498 19.914V25.5C36.498 25.615 36.49 25.73 36.487 25.846C36.227 25.754 35.963 25.674 35.691 25.619C35.15 25.507 34.622 25.86 34.513 26.402C34.405 26.943 34.755 27.47 35.296 27.58C35.557 27.633 35.813 27.712 36.058 27.815C37.541 28.442 38.499 29.887 38.499 31.5C38.499 33.706 36.705 35.5 34.499 35.5C33.625 35.5 32.795 35.224 32.101 34.701C31.658 34.368 31.032 34.458 30.701 34.898C30.369 35.339 30.457 35.966 30.898 36.298C30.989 36.366 31.088 36.415 31.182 36.479C28.718 38.434 25.684 39.5 22.497 39.5C14.778 39.5 8.49805 33.22 8.49805 25.5ZM22.498 41.5C24.585 41.5 26.615 41.1 28.498 40.339V44.5V44.501C28.488 45.208 26.214 46.5 22.498 46.5C18.776 46.5 16.498 45.202 16.498 44.496V40.322C18.354 41.076 20.376 41.5 22.498 41.5Z" fill="#36A0FC"/>
<path d="M41.9314 34.6329C41.4514 34.3539 40.8404 34.5189 40.5654 34.9969C40.2884 35.4759 40.4524 36.0869 40.9294 36.3629L42.6614 37.3649C42.8194 37.4569 42.9914 37.4999 43.1614 37.4999C43.5074 37.4999 43.8434 37.3209 44.0274 37.0009C44.3044 36.5219 44.1404 35.9109 43.6634 35.6349L41.9314 34.6329Z" fill="#36A0FC"/>
<path d="M45.502 31.498C45.502 30.945 45.055 30.498 44.502 30.498H42.5C41.947 30.498 41.5 30.945 41.5 31.498C41.5 32.051 41.947 32.498 42.5 32.498H44.502C45.055 32.498 45.502 32.051 45.502 31.498Z" fill="#36A0FC"/>
<path d="M42.6632 25.632L40.9292 26.632C40.4502 26.907 40.2852 27.52 40.5622 27.997C40.7472 28.318 41.0832 28.498 41.4292 28.498C41.5982 28.498 41.7702 28.455 41.9272 28.364L43.6612 27.364C44.1402 27.089 44.3052 26.476 44.0282 25.999C43.7542 25.521 43.1432 25.354 42.6632 25.632Z" fill="#36A0FC"/>
</svg>
