<svg xmlns="http://www.w3.org/2000/svg" width="19" height="19" viewBox="0 0 19 19">
  <path id="Icon_ionic-md-globe" data-name="Icon ionic-md-globe" d="M13.375,3.375a10.278,10.278,0,0,0-10,10c0,5.316,4.684,9,10,9a8.593,8.593,0,0,0,9-9C22.375,8.059,18.691,3.375,13.375,3.375Zm-1,18c-1.826-.219-3.679-1.679-5-3-1.558-1.558-3-2.8-3-5a10.018,10.018,0,0,1,2-6,6.2,6.2,0,0,1,0,1,4.655,4.655,0,0,0,1,3c.251.362-.122.581,0,1s.671.748,1,1c.664.509,1.3,1.552,2,2,.465.3,1.136.433,1,1-.11.456.236.593,0,1a1.822,1.822,0,0,0,0,1c.347.347.622.688,1,1C12.961,19.859,12.655,20.679,12.375,21.375Zm6-3c-1.186,1.186-2.387,2.695-4,3a6.54,6.54,0,0,1,1-2,3.294,3.294,0,0,0,1-1c.171-.386.77-.645,1-1,.327-.5-.633-.841-1-1a23.785,23.785,0,0,1-3-2c-.523-.368-1.409.258-2,0a8.168,8.168,0,0,1-2-1,2.32,2.32,0,0,1-1-2c.568.021,1.623-.457,2,0,.119.144.726,1.229,1,1,.224-.187.075-.824,0-1-.232-.542.611-1.632,1-2,.507-.48,1.086-.656,1-1a2.606,2.606,0,0,0-2-1c-.088.023-.85.872-1,1,0-.266,0-.734,0-1,0-.168-.015-.892,0-1,.037-.274.811-.782,1-1a2.406,2.406,0,0,0-1,0c-.332.138-.668-.138-1,0,0-.115.017.107,0,0a8.645,8.645,0,0,1,2-1l1,1h0l1,1h0l1-1h0v-1c1.261.183,1.957,1.275,3,2-.187.017.231-.029,0,0-.1-.056-.9.039-1,0,.3.65.68,1.359,1,2,.342.685,1.867,1.277,2,2a18.7,18.7,0,0,1,0,2,14.009,14.009,0,0,0,1,3,5.553,5.553,0,0,0,1,0C21.015,16.8,19.441,17.309,18.375,18.375Z" transform="translate(-3.375 -3.375)" fill="#162162"/>
</svg>
