<svg xmlns="http://www.w3.org/2000/svg" width="1148.449" height="658" viewBox="0 0 1148.449 658">
  <g id="Group_75" data-name="Group 75" transform="translate(-292 -2013)">
    <g id="Group_63" data-name="Group 63" transform="translate(21)">
      <g id="_17_consultation_talk_dialogue_tooth_dentist_dental_medicine" data-name="17 consultation, talk, dialogue, tooth, dentist, dental, medicine" transform="translate(337 2012.542)">
        <path id="Path_45" data-name="Path 45" d="M75.107.4h-37c-.854,0-2,.146-2,1v9h-22c-.854,0-1,1.146-1,2v20c0,.854.146,2,1,2h4v1c0,.513-.423.713,0,1,.259.175.694,1,1,1a4.51,4.51,0,0,0,1,0l7-3h9v4c0,.411.71.711,1,1s.591,1,1,1h23l9,3c.161.054-.164,0,0,0,.32,0,.734.192,1,0a3.764,3.764,0,0,0,1-2v-1h3c.854,0,1-1.146,1-2V1.4C76.107.55,75.961.4,75.107.4Zm-48,30h0c-.2,0-.818.927-1,1l-5,2v-1a2.434,2.434,0,0,0-2-2h-3v-17h20v17Zm46,7h-3c-.852,0-2,.148-2,1v1l-7-2c-.158-.051.165,0,0,0h-22V3.4h34Z" transform="translate(0.893 0.055)" fill="#162162"/>
        <path id="Path_46" data-name="Path 46" d="M69.676,45.615c0-.037,0,.039,0,0v-12a5.291,5.291,0,0,0-5-5h-21a5.291,5.291,0,0,0-5,5v12c0,.022,0-.022,0,0v6h0a16.78,16.78,0,0,0,8,14v3h-3c-5.11,0-10,4.89-10,10v3c0,.854,1.146,1,2,1s1-.146,1-1v-3c0-3.407,3.593-6,7-6h3l3,9c.195.678.328,1,1,1a8.642,8.642,0,0,0,1,0,1.611,1.611,0,0,0,1-2l-2-7h0c.195.086-.215,0,0,0h0a3.869,3.869,0,0,0,1,0h0l2-1,3,1h0c.195.086-.215,0,0,0h0a3.869,3.869,0,0,0,1,0h0l-2,7a1.609,1.609,0,0,0,1,2c.142.039-.141,0,0,0,.672,0,1.805-.32,2-1l3-9h3a5.885,5.885,0,0,1,6,6v3c0,.854,1.146,1,2,1s1-.146,1-1v-3c0-5.11-3.89-10-9-10h-3v-3a16.778,16.778,0,0,0,8-14h0Zm-28-12a2.438,2.438,0,0,1,2-2h21a2.438,2.438,0,0,1,2,2v11h-25Zm17,36-2,1-2-1c-.034-.017.034.014,0,0-.1-.04.1.02,0,0s-.9-1-1-1,.1.983,0,1,.1-.042,0,0c-.034.014.034-.017,0,0l-3,1-1-1v-3a11.782,11.782,0,0,0,4,1,18.063,18.063,0,0,0,5-1Zm-5-5c-6.812,0-12-6.189-12-13h0v-4h25v4h0A13.5,13.5,0,0,1,53.676,64.615Z" transform="translate(12.324 15.842)" fill="#162162"/>
        <path id="Path_47" data-name="Path 47" d="M51.235,34.983h-1v-1a2.434,2.434,0,0,0-2-2c-.854,0-1,1.146-1,2v1h-2c-.854,0-1,1.146-1,2s.146,1,1,1h2v2c0,.854.146,1,1,1s2-.146,2-1v-2h1c.854,0,2-.146,2-1A2.434,2.434,0,0,0,51.235,34.983Z" transform="translate(17.765 17.475)" fill="#162162"/>
        <path id="Path_48" data-name="Path 48" d="M13,69.557a8.827,8.827,0,0,0-9,9v3a2.434,2.434,0,0,0,2,2c.854,0,1-1.146,1-2v-3a5.885,5.885,0,0,1,6-6h5l2,1h0a3.87,3.87,0,0,0,1,0h0a3.869,3.869,0,0,0,1,0h0l2-1,2,1c.022.011.977-.011,1,0,.195.086-.215,0,0,0h0a3.869,3.869,0,0,0,1,0h0l3-1h4a5.885,5.885,0,0,1,6,6v3a2.434,2.434,0,0,0,2,2c.854,0,1-1.146,1-2v-3a8.827,8.827,0,0,0-9-9H32v-4c4.608-2.673,8-7.3,8-13v-10h0c0-3.728-3.48-6.283-7-7v-5c0-.854-.146-2-1-2H23a14.087,14.087,0,0,0-14,14v10H9c.037,5.657,2.419,10.341,7,13v4Zm10-37h7v4a2.434,2.434,0,0,0,2,2,3.631,3.631,0,0,1,4,4h0v2l-2-1c-.065-.043.068.032,0,0-.085-.04.091-.977,0-1s-.892.006-1,0c-.091,0,.093-.011,0,0-.108.014.1.963,0,1-.063.022.06-.029,0,0a28.021,28.021,0,0,1-8,1,30.425,30.425,0,0,1-10-2c-.032-.011.031.009,0,0-.1-.026.1,0,0,0s.1-.014,0,0-.909.969-1,1,.091-.054,0,0c-.031.017.029-.019,0,0l-2,1v-2C12,36.6,17.043,32.557,23,32.557Zm-11,20v-4l3-2a44.747,44.747,0,0,0,10,1,24.392,24.392,0,0,0,8-1l3,2v4a11.771,11.771,0,0,1-12,12A11.772,11.772,0,0,1,12,52.557Zm12,15a18.064,18.064,0,0,0,5-1v3l-2,1-2-1c-.034-.017.034.014,0,0-.1-.04-.9.02-1,0s.1,0,0,0,.1-.017,0,0-.9-.042-1,0c-.036.014.034-.017,0,0l-2,1-2-1v-3A18.052,18.052,0,0,0,24,67.557Z" transform="translate(-4.003 15.901)" fill="#162162"/>
        <path id="Path_49" data-name="Path 49" d="M37.13,24.593c.009.088-.023-.08,0,0s-.039-.079,0,0c.046.1.932-.088,1,0,.049.063-.057-.056,0,0,.09.085-.105.94,0,1,.062.034-.066-.026,0,0a4.6,4.6,0,0,0,1,0h2a4.223,4.223,0,0,0,3-1,4.226,4.226,0,0,0,3,1h3c.2,0-.179.073,0,0,.066-.028-.062.034,0,0,.105-.06.912-.915,1-1,.059-.056-.049.063,0,0,.068-.088-.046.1,0,0,.037-.079-.023.085,0,0s-.009.085,0,0l1-7c1.01-1.127,1-2.473,1-4,0-3.408-2.592-7-6-7a5.98,5.98,0,0,0-3,1,5.985,5.985,0,0,0-3-1c-3.407,0-6,3.592-6,7,0,1.527-.01,2.874,1,4Zm4-15a2.972,2.972,0,0,1,2,1,1.46,1.46,0,0,0,2,0,2.979,2.979,0,0,1,2-1c1.7,0,3,2.3,3,4a2.459,2.459,0,0,1-1,2c-.065.059.053-.066,0,0-.066.082.048-.094,0,0s.028.884,0,1c-.017.071.008-.074,0,0l-1,6h-1c-.845,0-.989-1.157-1-2h0v-1a2.434,2.434,0,0,0-2-2h0c-.854,0-1,1.146-1,2v1h0a2.471,2.471,0,0,1-2,2h-1l-1-6c-.008-.073.017.069,0,0-.029-.117.057-.89,0-1-.046-.091.063.079,0,0s.068.06,0,0a2.461,2.461,0,0,1-1-2C38.13,11.889,39.425,9.593,41.13,9.593Z" transform="translate(12.87 3.865)" fill="#162162"/>
      </g>
    </g>
    <g id="Group_65" data-name="Group 65" transform="translate(77)">
      <g id="_23_calendar_appointment_tooth_dentist_dental_medicine" data-name="23 calendar, appointment, tooth, dentist, dental, medicine" transform="translate(1048.856 2024.542)">
        <path id="Path_100" data-name="Path 100" d="M11.958,17.23h-6a2.434,2.434,0,0,0-2,2v6a2.434,2.434,0,0,0,2,2h6c.854,0,1-1.146,1-2v-6C12.958,18.377,12.812,17.23,11.958,17.23Zm-2,6h-3v-3h3Z" transform="translate(2.186 7.228)" fill="#162162"/>
        <path id="Path_101" data-name="Path 101" d="M21.059,17.23h-7c-.854,0-1,1.146-1,2v6c0,.854.146,2,1,2h7c.854,0,1-1.146,1-2v-6C22.059,18.377,21.913,17.23,21.059,17.23Zm-2,6h-3v-3h3Z" transform="translate(7.085 7.228)" fill="#162162"/>
        <path id="Path_102" data-name="Path 102" d="M30.16,17.23h-7c-.854,0-1,1.146-1,2v6c0,.854.146,2,1,2h7c.854,0,1-1.146,1-2v-6C31.16,18.377,31.014,17.23,30.16,17.23Zm-2,6h-3v-3h3Z" transform="translate(11.984 7.228)" fill="#162162"/>
        <path id="Path_103" data-name="Path 103" d="M38.261,17.23h-6c-.854,0-1,1.146-1,2v6c0,.854.146,2,1,2h6a2.434,2.434,0,0,0,2-2v-6A2.436,2.436,0,0,0,38.261,17.23Zm-1,6h-3v-3h3Z" transform="translate(16.884 7.228)" fill="#162162"/>
        <path id="Path_104" data-name="Path 104" d="M11.958,25.875h-6c-.854,0-2,.146-2,1v6a2.434,2.434,0,0,0,2,2h6c.854,0,1-1.146,1-2v-6C12.958,26.023,12.812,25.875,11.958,25.875Zm-2,6h-3v-3h3Z" transform="translate(2.186 11.583)" fill="#162162"/>
        <path id="Path_105" data-name="Path 105" d="M21.059,25.875h-7c-.854,0-1,.146-1,1v6c0,.854.146,2,1,2h7c.854,0,1-1.146,1-2v-6C22.059,26.023,21.913,25.875,21.059,25.875Zm-2,6h-3v-3h3Z" transform="translate(7.085 11.583)" fill="#162162"/>
        <path id="Path_106" data-name="Path 106" d="M30.16,25.875h-7c-.854,0-1,.146-1,1v6c0,.854.146,2,1,2h7c.854,0,1-1.146,1-2v-6C31.16,26.023,31.014,25.875,30.16,25.875Zm-2,6h-3v-3h3Z" transform="translate(11.984 11.583)" fill="#162162"/>
        <path id="Path_107" data-name="Path 107" d="M11.958,33.52h-6a2.434,2.434,0,0,0-2,2v6c0,.854,1.146,1,2,1h6c.854,0,1-.146,1-1v-6C12.958,34.668,12.812,33.52,11.958,33.52Zm-2,6h-3v-3h3Z" transform="translate(2.186 15.937)" fill="#162162"/>
        <path id="Path_108" data-name="Path 108" d="M21.059,33.52h-7c-.854,0-1,1.146-1,2v6c0,.854.146,1,1,1h7c.854,0,1-.146,1-1v-6C22.059,34.668,21.913,33.52,21.059,33.52Zm-2,6h-3v-3h3Z" transform="translate(7.085 15.937)" fill="#162162"/>
        <path id="Path_109" data-name="Path 109" d="M30.16,33.52h-7c-.854,0-1,1.146-1,2v6c0,.854.146,1,1,1h7c.854,0,1-.146,1-1v-6C31.16,34.668,31.014,33.52,30.16,33.52Zm-2,6h-3v-3h3Z" transform="translate(11.984 15.937)" fill="#162162"/>
        <path id="Path_110" data-name="Path 110" d="M11.958,41.166h-6a2.434,2.434,0,0,0-2,2v6a2.434,2.434,0,0,0,2,2h6c.854,0,1-1.146,1-2v-6C12.958,42.313,12.812,41.166,11.958,41.166Zm-2,6h-3v-3h3Z" transform="translate(2.186 20.292)" fill="#162162"/>
        <path id="Path_111" data-name="Path 111" d="M21.059,41.166h-7c-.854,0-1,1.146-1,2v6c0,.854.146,2,1,2h7c.854,0,1-1.146,1-2v-6C22.059,42.313,21.913,41.166,21.059,41.166Zm-2,6h-3v-3h3Z" transform="translate(7.085 20.292)" fill="#162162"/>
        <path id="Path_112" data-name="Path 112" d="M30.16,41.166h-7c-.854,0-1,1.146-1,2v6c0,.854.146,2,1,2h7c.854,0,1-1.146,1-2v-6C31.16,42.313,31.014,41.166,30.16,41.166Zm-2,6h-3v-3h3Z" transform="translate(11.984 20.292)" fill="#162162"/>
        <path id="Path_113" data-name="Path 113" d="M38.261,25.875h-6c-.854,0-1,.146-1,1v6c0,.854.146,2,1,2h6a2.434,2.434,0,0,0,2-2v-6C40.261,26.023,39.115,25.875,38.261,25.875Zm-1,6h-3v-3h3Z" transform="translate(16.884 11.583)" fill="#162162"/>
        <path id="Path_114" data-name="Path 114" d="M41.362,34.875h6a2.434,2.434,0,0,0,2-2v-6c0-.854-1.146-1-2-1h-6c-.854,0-1,.146-1,1v6C40.362,33.729,40.508,34.875,41.362,34.875Zm2-6h3v3h-3Z" transform="translate(21.783 11.583)" fill="#162162"/>
        <path id="Path_115" data-name="Path 115" d="M41.362,27.23h6a2.434,2.434,0,0,0,2-2v-6a2.434,2.434,0,0,0-2-2h-6c-.854,0-1,1.146-1,2v6C40.362,26.084,40.508,27.23,41.362,27.23Zm2-7h3v3h-3Z" transform="translate(21.783 7.228)" fill="#162162"/>
        <path id="Path_116" data-name="Path 116" d="M77.135,49.939v-38h0c0-2.553-2.447-4-5-4h-4v-3c0-2.13-1.87-3-4-3s-4,.87-4,3v3h-9v-3c0-2.13-1.87-3-4-3s-4,.87-4,3v3h-9v-3c0-2.13-1.87-3-4-3s-4,.87-4,3v3h-9v-3c0-2.13-1.87-3-4-3s-4,.87-4,3v3h-5a3.63,3.63,0,0,0-4,4v75c0,.854.146,1,1,1h57a24.967,24.967,0,0,0,18,8,22.892,22.892,0,0,0,23-23C99.135,60.681,89.19,50.753,77.135,49.939Zm-74,29h50c.147.531.818.484,1,1h-51Zm50-10h-2v-3h2C52.854,66.944,53.279,67.885,53.135,68.939Zm2-18h-6c-.854,0-1,1.146-1,2v6c0,.854.146,1,1,1h6a5.15,5.15,0,0,0,1,0,22.873,22.873,0,0,0-2,3h-5c-.854,0-1,1.146-1,2v6c0,.854.146,2,1,2h3c0,1.038.867,2,1,3h-50v-53h71v26c-6.937.452-13.05,4.762-17,10h0v-6A2.436,2.436,0,0,0,55.135,50.939Zm-1,3v3h-3v-3Zm9-49c0-.425.575,0,1,0s1-.425,1,0v8a1,1,0,0,1-2,0Zm-17,0c0-.425.575,0,1,0s1-.425,1,0v8a1,1,0,0,1-2,0Zm-17,0c0-.425.575,0,1,0s1-.425,1,0v8a1.223,1.223,0,0,1-1,1,1.223,1.223,0,0,1-1-1Zm-17,0c0-.425.575,0,1,0s1-.425,1,0v8a1.223,1.223,0,0,1-1,1,1.223,1.223,0,0,1-1-1Zm-8,6h5v2a4.106,4.106,0,0,0,4,4,4.106,4.106,0,0,0,4-4v-2h9v2a4,4,0,0,0,8,0v-2h9v2a4,4,0,0,0,8,0v-2h9v2a4,4,0,0,0,8,0v-2h4c.852,0,2,.148,2,1h0v8h-71v-8C3.135,11.088,3.283,10.939,4.135,10.939Zm-1,74v-2h52c.281.531.68,1.495,1,2Zm73,8c-11.085,0-21-8.915-21-20s9.915-20,21-20a20,20,0,0,1,0,40Z" transform="translate(0.009 -1.481)" fill="#162162"/>
        <path id="Path_117" data-name="Path 117" d="M58.345,38.8a6.737,6.737,0,0,0-4,1,10.233,10.233,0,0,0-5-1,8.828,8.828,0,0,0-9,9,9.061,9.061,0,0,0,3,7l1,10c.011.077-.022-.073,0,0s-.039.923,0,1c.048.1.935-.083,1,0,.053.066-.062-.057,0,0,.079.073-.093-.054,0,0,.073.043-.08-.029,0,0a8.641,8.641,0,0,0,1,0c.048,0-.049,0,0,0h2c2.554,0,5-1.446,5-4v-4a1.223,1.223,0,0,1,1-1c.425,0,0,.575,0,1v4c0,2.554,2.446,4,5,4h2c.049,0-.048,0,0,0a8.308,8.308,0,0,0,1,0c.08-.031-.073.043,0,0,.093-.054-.079.073,0,0,.062-.057.946.066,1,0,.065-.083-.048.1,0,0,.037-.079-.025-.917,0-1s-.011.077,0,0l1-10a9.059,9.059,0,0,0,3-7A8.829,8.829,0,0,0,58.345,38.8Zm4,14c-.036.028.034-.029,0,0-.117.105.082-.137,0,0s-.966.839-1,1c-.008.037,0-.039,0,0l-1,9h-1c-.852,0-2-.148-2-1v-4c0-2.13-.87-4-3-4a4.106,4.106,0,0,0-4,4v4c0,.852-1.148,1-2,1h-1l-1-9c-.006-.045.011.043,0,0a7.449,7.449,0,0,0,0-1c-.1-.178-.836.122-1,0-1.569-1.18-2-3.04-2-5a5.887,5.887,0,0,1,6-6,6.756,6.756,0,0,1,4,1,1.755,1.755,0,0,0,2,0,4.045,4.045,0,0,1,3-1,5.887,5.887,0,0,1,6,6C64.346,49.763,63.915,51.62,62.345,52.8Z" transform="translate(21.799 18.657)" fill="#162162"/>
      </g>
    </g>
    <g id="Group_66" data-name="Group 66" transform="translate(86)">
      <g id="Group_56" data-name="Group 56" transform="translate(1190.88 2273.004)">
        <g id="travel" transform="translate(0 0)">
          <g id="Group_35" data-name="Group 35" transform="translate(50.313 0)">
            <g id="Group_34" data-name="Group 34">
              <path id="Path_280" data-name="Path 280" d="M282.813,8l-6-4a2.55,2.55,0,0,0-2,0l-12,6-14-6a1.578,1.578,0,0,0-1,0l-7,2c-.677.158-.879.315-1,1a2.334,2.334,0,0,0,1,2l10,7-8,3-6-3c-1.246-.621-2.938.1-4,1a3.991,3.991,0,0,0-1,4l3,7a2.721,2.721,0,0,0,3,2h5a4.588,4.588,0,0,0,1,0l11-4-1,13c-.071.632-.522.636,0,1,.3.2.651,0,1,0,.265,0,.755.121,1,0l7-3a1.972,1.972,0,0,0,1-1l5-15,14-7a3.6,3.6,0,0,0,2-3A3.612,3.612,0,0,0,282.813,8Zm-37,0h2l11,4-4,2Zm21,10a1.972,1.972,0,0,0-1,1l-5,15-4,2,2-13c.068-.6-.525-.63-1-1-.312-.241-.618-1-1-1a4.588,4.588,0,0,0-1,0l-13,6h-5l-2-7,6,3a2.945,2.945,0,0,0,2,0l32-15,5,3Z" transform="translate(-232.005 -4.009)" fill="#162162"/>
            </g>
          </g>
          <g id="Group_37" data-name="Group 37" transform="translate(0 48.573)">
            <g id="Group_36" data-name="Group 36">
              <path id="Path_281" data-name="Path 281" d="M99.12,248.415h-2l-11-18c-.033-.056.038.052,0,0-.978-1.3-3.373-2-5-2h-71c-2.392,0-5.4,1.59-6,4l-3,16c-.741.2-1,1.2-1,2v16c0,4.783,4.217,8,9,8h4c1.433,4.037,4.477,7,9,7a10.729,10.729,0,0,0,10-7h43c1.433,4.037,4.477,7,9,7a10.729,10.729,0,0,0,10-7h1c4.783,0,9-3.217,9-8v-12C104.12,251.545,101.99,248.415,99.12,248.415Zm-28-17h10a3.884,3.884,0,0,1,2,1l10,16h-22Zm-23,0h20v17h-20Zm-22,0h19v17h-19Zm-18,1c.194-.774,1.2-1,2-1h12v17h-17Zm14,46a7,7,0,1,1,7-7A7.05,7.05,0,0,1,22.12,278.415Zm62,0c-3.827,0-6-3.173-6-7s2.173-7,6-7a7,7,0,0,1,0,14Zm17-12c0,2.869-3.131,5-6,5h0c0-5.741-5.259-10-11-10a9.734,9.734,0,0,0-10,10h-3v-16h-3v16h-20v-16h-3v16h-12c0-5.741-5.259-10-11-10a9.734,9.734,0,0,0-10,10h-3c-2.87,0-6-2.131-6-5v-14h96a2.224,2.224,0,0,1,2,2Z" transform="translate(0 -227.992)" fill="#162162"/>
            </g>
          </g>
          <g id="Group_39" data-name="Group 39" transform="translate(30.869 21.875)">
            <g id="Group_38" data-name="Group 38">
              <path id="Path_282" data-name="Path 282" d="M145.6,105a8.58,8.58,0,0,0-3,3l3,2a6.291,6.291,0,0,1,2-2Z" transform="translate(-142.344 -104.88)" fill="#162162"/>
            </g>
          </g>
          <g id="Group_41" data-name="Group 41" transform="translate(38.168 20.815)">
            <g id="Group_40" data-name="Group 40">
              <rect id="Rectangle_34" data-name="Rectangle 34" width="4" height="3" transform="translate(-0.047 0.181)" fill="#162162"/>
            </g>
          </g>
          <g id="Group_43" data-name="Group 43" transform="translate(53.867 35.239)">
            <g id="Group_42" data-name="Group 42">
              <path id="Path_283" data-name="Path 283" d="M249.646,166.261l-1,3c.812.3,1.428,1.339,2,2l2-2C251.694,168.167,251,166.766,249.646,166.261Z" transform="translate(-248.392 -166.504)" fill="#162162"/>
            </g>
          </g>
          <g id="Group_45" data-name="Group 45" transform="translate(57.133 41.528)">
            <g id="Group_44" data-name="Group 44">
              <path id="Path_284" data-name="Path 284" d="M266.443,195.972h-3a4.284,4.284,0,0,1,0,1v2h4v-2C267.443,196.353,266.573,196.574,266.443,195.972Z" transform="translate(-263.456 -195.504)" fill="#162162"/>
            </g>
          </g>
          <g id="Group_47" data-name="Group 47" transform="translate(47.586 34.694)">
            <g id="Group_46" data-name="Group 46">
              <rect id="Rectangle_35" data-name="Rectangle 35" width="4" height="3" transform="translate(-0.466 0.302)" fill="#162162"/>
            </g>
          </g>
          <g id="Group_49" data-name="Group 49" transform="translate(45.107 20.815)">
            <g id="Group_48" data-name="Group 48">
              <rect id="Rectangle_36" data-name="Rectangle 36" width="3" height="3" transform="translate(0.013 0.181)" fill="#162162"/>
            </g>
          </g>
          <g id="Group_51" data-name="Group 51" transform="translate(40.647 34.694)">
            <g id="Group_50" data-name="Group 50">
              <rect id="Rectangle_37" data-name="Rectangle 37" width="3" height="3" transform="translate(0.474 0.302)" fill="#162162"/>
            </g>
          </g>
          <g id="Group_53" data-name="Group 53" transform="translate(29.493 28.867)">
            <g id="Group_52" data-name="Group 52">
              <path id="Path_285" data-name="Path 285" d="M139.627,137.25c0-.125-.01.121,0,0h-4c-.016.208,0-.21,0,0a10.7,10.7,0,0,0,1,4l3-1C139.317,139.569,139.627,138,139.627,137.25Z" transform="translate(-136 -137.12)" fill="#162162"/>
            </g>
          </g>
          <g id="Group_55" data-name="Group 55" transform="translate(32.97 33.658)">
            <g id="Group_54" data-name="Group 54">
              <path id="Path_286" data-name="Path 286" d="M154.183,159.554l-2,2a9.383,9.383,0,0,0,4,2v-3A3.958,3.958,0,0,1,154.183,159.554Z" transform="translate(-152.032 -159.216)" fill="#162162"/>
            </g>
          </g>
        </g>
      </g>
    </g>
    <g id="Group_67" data-name="Group 67" transform="translate(108)">
      <g id="_42_chair_tool_tooth_dentist_dental_medicine" data-name="42 chair, tool, tooth, dentist, dental, medicine" transform="translate(846.684 2572.542)">
        <path id="Path_209" data-name="Path 209" d="M96.318,70.458l-21-12c-.107-.066.142-.937,0-1-.21-.111.176.065,0,0s-.785.059-1,0c-.2-.057-.812.036-1,0-.216-.04.295.023,0,0-.127-.017-.869,0-1,0h-9v-14h3v3c0,.854,1.146,1,2,1h4v2a2.434,2.434,0,0,0,2,2c.854,0,1-1.146,1-2v-2h3v2a2,2,0,0,0,4,0v-2h3v2c0,.854.146,2,1,2a2.434,2.434,0,0,0,2-2v-2h4c.854,0,2-.146,2-1v-9a2.434,2.434,0,0,0-2-2h-24a2.434,2.434,0,0,0-2,2v3h-3v-33h15c-5.231.754-9,5.562-9,11a11,11,0,0,0,22,0c0-5.438-3.769-10.246-9-11h10c.854,0,2-.146,2-1v-5c0-.854-1.146-1-2-1h-31a5.885,5.885,0,0,0-6,6v34h-1a2.434,2.434,0,0,0-2-2c-.854,0-1,1.146-1,2h-2v-6c0-.854-.146-2-1-2a2.434,2.434,0,0,0-2,2v6h-2c0-.854-.146-2-1-2a2.434,2.434,0,0,0-2,2h-3c-.854,0-1,.146-1,1v5c0,2.554,1.447,5,4,5h13c.545,0,.515-.825,1-1v2h-17c-.854,0-1,1.146-1,2v3h-2l-24-33c-1.16-1.569-3.045-3-5-3a6.982,6.982,0,0,0-4,1c-2.735,2.026-3.022,6.259-1,9l26,36c.085.119-.031-.014,0,0,.2.252.744-.232,1,0,.125.108-.114.917,0,1,.23.175.649-.2,1,0,.105.06.887-.051,1,0,.29.133-.327.907,0,1,.04.014.961-.011,1,0v5h-5c-.854,0-2,.146-2,1v11c-5.231.754-9,5.565-9,11,0,.854,1.146,1,2,1h68c.854,0,1-.146,1-1,0-12.253-8.946-22.2-21-23v-5h6l18,11a5.445,5.445,0,0,0,3,1,7.511,7.511,0,0,0,6-3A5.607,5.607,0,0,0,96.318,70.458Zm-27-32h22v6h-3v-3c0-.854-1.146-1-2-1s-1,.146-1,1v3h-3v-3c0-.854-1.146-1-2-1s-2,.146-2,1v3h-3v-3c0-.854-.146-1-1-1s-2,.146-2,1v3h-3Zm19-20a8,8,0,0,1-16,0,8,8,0,0,1,16,0Zm-27-15h30v1h-30c-.854,0-1,1.146-1,2v51h-2v-51A2.942,2.942,0,0,1,61.318,3.458Zm-6,43c0,.852-.148,1-1,1h-13c-.851,0-1-.148-1-1v-3h15Zm-15,9h15v2h-15Zm-9,31h-4v-9h4Zm52,9h-65c.717-3.52,4.272-6,8-6h6c.854,0,2-.146,2-1v-11h29C73.866,77.458,82.526,85.109,83.318,95.458Zm-22-21h-27v-5h27Zm34,3a2.86,2.86,0,0,1-4,1l-19-12c-.244-.15-.714,0-1,0h-39a6.972,6.972,0,0,1-1,0c-.031-.011.031.009,0,0-.159-.045.141.063,0,0h0c-.131-.073-.864-.9-1-1-.065-.048.045.04,0,0-.116-.1.12.147,0,0-.043-.051.006,0,0,0s-.008-.011,0,0l-27-36c-1.012-1.371-.368-2.987,1-4,1.334-.984,3.019-.33,4,1l25,33c.29.394.509,1,1,1h38c.082.011.87-.008,1,0,.093.006-.108-.022,0,0s-.168-.049,0,0c.062.017-.108-.045,0,0a9.383,9.383,0,0,1,1,0h0l20,13A2.8,2.8,0,0,1,95.318,77.458Z" transform="translate(-0.003)" fill="#162162"/>
        <path id="Path_210" data-name="Path 210" d="M52.544,13.837h0a2.436,2.436,0,0,0-2,2c0,.854,1.146,1,2,1s2-.146,2-1A2.436,2.436,0,0,0,52.544,13.837Z" transform="translate(27.771 7.621)" fill="#162162"/>
        <path id="Path_211" data-name="Path 211" d="M50.545,9.1a2.434,2.434,0,0,0,2,2,2.436,2.436,0,0,0,2-2c0-.854-1.148-1-2-1h0C51.693,8.1,50.545,8.249,50.545,9.1Z" transform="translate(27.771 4.355)" fill="#162162"/>
        <path id="Path_212" data-name="Path 212" d="M55.13,15.654a2.436,2.436,0,0,0,2-2c0-.854-1.148-1-2-1h0c-.852,0-2,.146-2,1A2.434,2.434,0,0,0,55.13,15.654Z" transform="translate(29.185 6.804)" fill="#162162"/>
        <path id="Path_213" data-name="Path 213" d="M49.959,9.287h0a2.436,2.436,0,0,0-2,2c0,.854,1.146,1,2,1s2-.146,2-1A2.438,2.438,0,0,0,49.959,9.287Z" transform="translate(26.357 5.171)" fill="#162162"/>
        <path id="Path_214" data-name="Path 214" d="M55.13,12.288c.852,0,2-.146,2-1a2.436,2.436,0,0,0-2-2h0a2.436,2.436,0,0,0-2,2C53.13,12.142,54.276,12.288,55.13,12.288Z" transform="translate(29.185 5.17)" fill="#162162"/>
        <path id="Path_215" data-name="Path 215" d="M49.959,12.655h0c-.852,0-2,.146-2,1a2.434,2.434,0,0,0,2,2,2.436,2.436,0,0,0,2-2C51.959,12.8,50.81,12.655,49.959,12.655Z" transform="translate(26.357 6.803)" fill="#162162"/>
      </g>
    </g>
    <g id="Group_62" data-name="Group 62" transform="translate(21)">
      <g id="_26_hand_support_tooth_dentist_dental_medicine" data-name="26 hand, support, tooth, dentist, dental, medicine" transform="translate(346.598 2570.631)">
        <path id="Path_144" data-name="Path 144" d="M6.666,55.063h0c-.852,0-2,.146-2,1a2.434,2.434,0,0,0,2,2c.852,0,1-1.146,1-2S7.518,55.063,6.666,55.063Z" transform="translate(2.736 25.306)" fill="#162162"/>
        <path id="Path_145" data-name="Path 145" d="M91.4,40.128a18.383,18.383,0,0,0-2,0h0l-28,5a7.722,7.722,0,0,0-6-6h0l-24-5c-.051-.011.054.006,0,0s-.949,0-1,0h-12v-2c0-.854-.146-1-1-1H1.4c-.854,0-1,.146-1,1v42c0,.854.146,2,1,2h16c.854,0,1-1.146,1-2v-1l34,4c.068.008-.066,0,0,0a6.177,6.177,0,0,0,1,0c.04-.014-.04.015,0,0s-.04.02,0,0l42-22h0c2.381-1.376,3-4.253,3-7C98.4,43.87,95.659,40.128,91.4,40.128Zm-76,33H3.4v-39h12Zm78-21-41,22-34-4v-33h12l24,5c.008,0-.006,0,0,0s0,0,0,0c2.222.383,4,1.738,4,4,0,2.554-1.446,5-4,5-.161,0-.842.017-1,0h0c-.011,0,.011,0,0,0l-19-2c-.863-.076-1.934,1.148-2,2s.149.934,1,1l20,2c.04,0-.039,0,0,0h0c.215.019.781,0,1,0a6.806,6.806,0,0,0,7-6l29-5h0a7.715,7.715,0,0,1,1,0c2.554,0,4,2.446,4,5A4.4,4.4,0,0,1,93.4,52.128Z" transform="translate(0 12.242)" fill="#162162"/>
        <path id="Path_146" data-name="Path 146" d="M53.314,44.369h3a4.509,4.509,0,0,0,1,0c.068-.029-.063.037,0,0,.1-.06-.085.083,0,0,.06-.057-.051.065,0,0,.066-.09.952-.9,1-1,.034-.077-.023.083,0,0s-.008.1,0,0l1-18a13.329,13.329,0,0,0,5-10,11.771,11.771,0,0,0-12-12c-2.845,0-5.816.241-8,2-2.184-1.759-5.155-2-8-2a11.771,11.771,0,0,0-12,12c0,3.782,1.056,7.663,4,10l2,18c.008.1-.026-.091,0,0s-.036-.077,0,0c.048.1-.068.91,0,1,.048.066-.059-.057,0,0,.088.083.9-.062,1,0,.063.036-.068-.028,0,0,.181.074-.205,0,0,0h4c4.25-.008,7-2.747,7-7v-3a2.44,2.44,0,0,1,2-2c.852,0,1,1.148,1,2v3C45.314,41.622,49.064,44.361,53.314,44.369Zm-9-15a5.292,5.292,0,0,0-5,5v3a3.63,3.63,0,0,1-4,4h-2l-2-17c0-.026,0,.026,0,0-.015-.113.042-.893,0-1-.029-.079.043.071,0,0-.06-.105.086.093,0,0-.049-.053.057.046,0,0-.028-.022.029.02,0,0a10.031,10.031,0,0,1-4-8,8.827,8.827,0,0,1,9-9,10.293,10.293,0,0,1,7,3,1.344,1.344,0,0,0,2,0,10.3,10.3,0,0,1,7-3,8.827,8.827,0,0,1,9,9,10.045,10.045,0,0,1-4,8c-.031.022.029-.023,0,0-.056.043.049-.053,0,0-.086.093-.94-.108-1,0-.043.076.032-.083,0,0-.036.1.014.895,0,1,0,.029,0-.029,0,0l-1,17h-2c-2.554,0-5-1.446-5-4v-3C48.316,31.813,46.868,29.369,44.314,29.369Z" transform="translate(13.088 -3)" fill="#162162"/>
        <path id="Path_147" data-name="Path 147" d="M43.06,10.2a2.919,2.919,0,0,1,3,3c0,.854.146,2,1,2a2.434,2.434,0,0,0,2-2,5.862,5.862,0,0,0-6-6c-.854,0-2,.146-2,1A2.434,2.434,0,0,0,43.06,10.2Z" transform="translate(22.341 -0.836)" fill="#162162"/>
      </g>
    </g>
    <g id="Group_64" data-name="Group 64" transform="translate(21)">
      <g id="_12_search_magnifier_tooth_dentist_dental_medicine" data-name="12 search, magnifier, tooth, dentist, dental, medicine" transform="translate(552.942 2284.264)">
        <path id="Path_14" data-name="Path 14" d="M61.425,13.1a33.941,33.941,0,1,0-48,48,33.941,33.941,0,0,0,48-48Zm-3,46c-5.833,5.833-12.749,9-21,9a31,31,0,1,1,0-62c8.251,0,15.165,3.167,21,9A31.312,31.312,0,0,1,58.425,59.1Z" transform="translate(1.633 1.633)" fill="#162162"/>
        <path id="Path_15" data-name="Path 15" d="M97.058,85.736l-18-18a2.711,2.711,0,0,0-3,0l-1,1-6-6a38.493,38.493,0,0,0-3-51c-7.292-7.291-16.687-12-27-12s-20.706,4.709-28,12a37.38,37.38,0,0,0-11,27,37.389,37.389,0,0,0,11,27c7.291,7.292,17.687,11,28,11a35.835,35.835,0,0,0,23-8l7,7-1,1a1.331,1.331,0,0,0,0,2l18,18a6.42,6.42,0,0,0,5,2c2.063,0,4.544-.542,6-2s2-3.937,2-6a6.417,6.417,0,0,0-2-5Zm-84-22a34.656,34.656,0,0,1-10-25,34.65,34.65,0,0,1,10-25,37.96,37.96,0,0,1,26-11c9.488,0,18.291,4.293,25,11a35.281,35.281,0,0,1,0,50,34.648,34.648,0,0,1-25,10C29.57,73.736,19.767,70.443,13.058,63.736Zm52,3c.377-.349.634-.636,1-1s.653-.622,1-1l6,6-2,2Zm29,28a4.083,4.083,0,0,1-6,0l-17-17,1-1h0l4-5h0l2-1,16,17h0c.874.873,2,1.763,2,3A7.212,7.212,0,0,1,94.058,94.736Z" transform="translate(0 0)" fill="#162162"/>
        <path id="Path_16" data-name="Path 16" d="M37.437,14.116a10.265,10.265,0,0,0-6,2,13.542,13.542,0,0,0-7-2c-5.96,0-10,5.04-10,11,0,3.533,1.132,6.989,4,9v14c0,.854,1.146,1,2,1h4c2.55,0,4.991-1.453,5-4h0v-3a2.438,2.438,0,0,1,2-2c.852,0,1,1.148,1,2v3c0,2.554,2.446,4,5,4h4c.854,0,2-.146,2-1v-14a11.477,11.477,0,0,0,5-9A11.151,11.151,0,0,0,37.437,14.116Zm4,17c-.048.029-.955-.031-1,0-.1.073.08.909,0,1-.056.068.045-.076,0,0-.056.094.036-.105,0,0s.014.9,0,1c-.008.066,0-.071,0,0v13h-3c-.852,0-2-.148-2-1v-3c0-2.554-1.446-5-4-5a5.291,5.291,0,0,0-5,5v3h0c0,.852-1.148,1-2,1h-3v-13c0-.066.006.065,0,0-.014-.107.034-.9,0-1s.049.086,0,0,.063.076,0,0,.086.065,0,0c-.049-.039.056-.969,0-1-2.38-1.379-4-3.254-4-6,0-4.258,2.742-8,7-8a10.058,10.058,0,0,1,6,2,1.46,1.46,0,0,0,2,0,7.36,7.36,0,0,1,5-2c4.258,0,7,3.742,7,8C44.437,27.863,43.82,29.737,41.437,31.116Z" transform="translate(7.621 7.62)" fill="#162162"/>
      </g>
    </g>
    <path id="Path_289" data-name="Path 289" d="M665.5,2014.5l245-151" transform="translate(133 257)" fill="none" stroke="#162162" stroke-width="3" stroke-dasharray="10"/>
    <path id="Icon_material-keyboard-arrow-down" data-name="Icon material-keyboard-arrow-down" d="M11.183,11.76l7.107,7.091L25.4,11.76l2.183,2.183-9.29,9.29L9,13.943Z" transform="translate(1040.113 2143.61) rotate(-119)" fill="#162162"/>
    <g id="Group_60" data-name="Group 60" transform="translate(21)">
      <path id="Path_288" data-name="Path 288" d="M665.5,2014.5h291" transform="translate(52 86)" fill="none" stroke="#162162" stroke-width="3" stroke-dasharray="10"/>
      <path id="Icon_material-keyboard-arrow-down-2" data-name="Icon material-keyboard-arrow-down" d="M11.183,11.76l7.107,7.091L25.4,11.76l2.183,2.183-9.29,9.29L9,13.943Z" transform="translate(992.735 2118.113) rotate(-89)" fill="#162162"/>
    </g>
    <g id="Group_58" data-name="Group 58" transform="translate(21)">
      <path id="Path_287" data-name="Path 287" d="M686.882,2197.945c98.748-96.655,0-149.909,0-149.909" transform="translate(-548.73 355.005) rotate(-17)" fill="none" stroke="#162162" stroke-width="3" stroke-dasharray="10"/>
      <path id="Icon_material-keyboard-arrow-down-3" data-name="Icon material-keyboard-arrow-down" d="M11.183,11.76l7.107,7.091L25.4,11.76l2.183,2.183-9.29,9.29L9,13.943Z" transform="matrix(0.899, 0.438, -0.438, 0.899, 740.779, 2235.387)" fill="#162162"/>
    </g>
    <g id="Group_59" data-name="Group 59" transform="translate(1091.84 2189.451) rotate(-19)">
      <path id="Path_287-2" data-name="Path 287" d="M0,0C98.748,96.656,0,149.909,0,149.909" transform="translate(41.97 156.191) rotate(-163)" fill="none" stroke="#162162" stroke-width="3" stroke-dasharray="10"/>
      <path id="Icon_material-keyboard-arrow-down-4" data-name="Icon material-keyboard-arrow-down" d="M2.183,11.473,9.29,4.382,16.4,11.473,18.58,9.29,9.29,0,0,9.29Z" transform="matrix(-0.899, 0.438, -0.438, -0.899, 54.042, 160.32)" fill="#162162"/>
    </g>
    <path id="Path_290" data-name="Path 290" d="M1309.5,2345.5s13.372,130.385-113,213" transform="translate(129 82)" fill="none" stroke="#162162" stroke-width="3" stroke-dasharray="10"/>
    <g id="Group_61" data-name="Group 61" transform="translate(1572.926 4740.262) rotate(180)">
      <path id="Path_288-2" data-name="Path 288" d="M665.926,2014h87.531" transform="translate(52 86)" fill="none" stroke="#162162" stroke-width="3" stroke-dasharray="10"/>
      <path id="Icon_material-keyboard-arrow-down-5" data-name="Icon material-keyboard-arrow-down" d="M2.183,0,9.29,7.091,16.4,0,18.58,2.183l-9.29,9.29L0,2.183Z" transform="translate(801.622 2109.319) rotate(-89)" fill="#162162"/>
    </g>
    <g id="Group_69" data-name="Group 69" transform="translate(7.459 83.459)">
      <circle id="Ellipse_1" data-name="Ellipse 1" cx="25" cy="25" r="25" transform="translate(284.541 1957.541)" fill="#36a0fc"/>
      <text id="_1" data-name="1" transform="translate(301.541 1991.541)" fill="#f4faff" font-size="29" font-family="Nunito-Bold, Nunito" font-weight="700"><tspan x="0" y="0">1</tspan></text>
    </g>
    <g id="Group_70" data-name="Group 70" transform="translate(218.459 341.459)">
      <circle id="Ellipse_1-2" data-name="Ellipse 1" cx="25" cy="25" r="25" transform="translate(284.541 1957.541)" fill="#36a0fc"/>
      <text id="_2" data-name="2" transform="translate(301.541 1991.541)" fill="#f4faff" font-size="29" font-family="Nunito-Bold, Nunito" font-weight="700"><tspan x="0" y="0">2</tspan></text>
    </g>
    <g id="Group_71" data-name="Group 71" transform="translate(771.459 83.459)">
      <circle id="Ellipse_1-3" data-name="Ellipse 1" cx="25" cy="25" r="25" transform="translate(284.541 1957.541)" fill="#36a0fc"/>
      <text id="_3" data-name="3" transform="translate(301.541 1991.541)" fill="#f4faff" font-size="29" font-family="Nunito-Bold, Nunito" font-weight="700"><tspan x="0" y="0">3</tspan></text>
    </g>
    <g id="Group_72" data-name="Group 72" transform="translate(922.459 342.459)">
      <circle id="Ellipse_1-4" data-name="Ellipse 1" cx="25" cy="25" r="25" transform="translate(284.541 1957.541)" fill="#36a0fc"/>
      <text id="_4" data-name="4" transform="translate(301.541 1991.541)" fill="#f4faff" font-size="29" font-family="Nunito-Bold, Nunito" font-weight="700"><tspan x="0" y="0">4</tspan></text>
    </g>
    <g id="Group_73" data-name="Group 73" transform="translate(594.459 646.459)">
      <circle id="Ellipse_1-5" data-name="Ellipse 1" cx="25" cy="25" r="25" transform="translate(284.541 1957.541)" fill="#36a0fc"/>
      <text id="_5" data-name="5" transform="translate(301.541 1991.541)" fill="#f4faff" font-size="29" font-family="Nunito-Bold, Nunito" font-weight="700"><tspan x="0" y="0">5</tspan></text>
    </g>
    <g id="Group_74" data-name="Group 74" transform="translate(11.459 647.459)">
      <circle id="Ellipse_1-6" data-name="Ellipse 1" cx="25" cy="25" r="25" transform="translate(284.541 1957.541)" fill="#36a0fc"/>
      <text id="_6" data-name="6" transform="translate(301.541 1991.541)" fill="#f4faff" font-size="29" font-family="Nunito-Bold, Nunito" font-weight="700"><tspan x="0" y="0">6</tspan></text>
    </g>
  </g>
</svg>
