<svg id="Group_28" data-name="Group 28" xmlns="http://www.w3.org/2000/svg" xmlns:xlink="http://www.w3.org/1999/xlink" width="164" height="130" viewBox="0 0 164 130">
  <defs>
    <clipPath id="clip-path">
      <rect id="Rectangle_27" data-name="Rectangle 27" width="164" height="130" fill="#fff"/>
    </clipPath>
  </defs>
  <g id="Group_27" data-name="Group 27" transform="translate(0 0)" clip-path="url(#clip-path)">
    <path id="Path_263" data-name="Path 263" d="M22.247,40c-3.356-6.952-6.076-14-6-22,.09-9.591,6.531-17.1,16-18,9.9-.936,18.779,2.027,28,6-3.982-.229-8.014-.859-12-1-19.36-.684-26.372,14.474-25,31,.187,2.248,2.14,1.842,4,2,2.681.227,5.471-.736,8,1-3.912,2.217-8.924.677-13,1" transform="translate(1.753 0)" fill="#fff"/>
    <path id="Path_264" data-name="Path 264" d="M112.53,37.808c2.218-6.029,4.4-12.251,4-19-.412-6.987-3.985-10.316-11-10-5.077.228-9.369,2.138-14,4-8.1,3.256-15.8,4.528-24,0,11.94,2.518,21.379-1.509,31-8,1.491-1.008,4.229-1.579,6-2,6.455-1.537,13.1-2.687,18,3,4.766,5.528,2.71,12.156,0,18-2.467,5.32-4.9,10.608-9,15-.752-.177-.83-.244-1-1" transform="translate(7.47 0.192)" fill="#fff"/>
    <path id="Path_265" data-name="Path 265" d="M82.766,97.284c-2.738-5.624-5.1-11.463-8-17-1.258-2.4-2.777-5.448-6-5-2.891.4-3.1,3.584-4,6a133.322,133.322,0,0,0-6,22c-.581,3.028-.77,6.386-3,9,.262-13.226.969-26.8,7-39,2.636-5.333,7.957-4.738,12,0,5.868,6.875,6.478,15.5,8,24" transform="translate(6.234 7.716)" fill="#fff"/>
    <path id="Path_266" data-name="Path 266" d="M84.607,124.051c9.81-16.4,11.221-33.706,11-51-.044-3.506.816-6.5,1-10,.5-9.512,3.783-12,14-8-2.381,1.757-4.846,1.158-7,1-3.433-.25-5.019,1.66-5,5,.058,10.52,1,20.5,0,31-.774,8.119-2.306,16.62-6,24a17.494,17.494,0,0,1-8,8" transform="translate(9.393 5.949)" fill="#fff"/>
    <path id="Path_267" data-name="Path 267" d="M38.021,75.564c2.848,11.012,4.853,22.339,9,33,1.373,3.531,3.2,7.426,5,12-14.628-10.52-16.309-24.938-16-40,.849-1.509.231-3.959,2-5" transform="translate(3.979 8.436)" fill="#fff"/>
    <path id="Path_268" data-name="Path 268" d="M113.483,57.18c-.068-6.445-1.023-12.557-1-19,.006-1.274-.209-3.526,2-4,1.972-.424,3.112,1.487,4,3,3.117,5.305,5.726,9.9,10,15v-18c2.9,2.033,1.928,4.668,2,7,.142,4.6.084,9.393,0,14-.021,1.168.638,2.376-1,3-1.838.7-2.247-.74-3-2-3.019-5.049-6.026-9.926-9-15-.637-1.087-.579-2.576-2-3-1.311,4.9-.541,10.076-1,15-.131,1.4,1.529,3.412-1,4" transform="translate(12.517 3.82)" fill="#fff"/>
    <path id="Path_269" data-name="Path 269" d="M52.76,35.2c-3.6-1.932-7.288-.51-11-1-3.041-.4-4.072,1.243-4,4,.146,5.54.9,11.459,1,17,.026,1.46-1.51,4.029,1,4,2.582-.028,1.921-2.593,2-4,.217-3.819-2.042-9.25,5-8,1.25.221,4.063,1.467,4-1-.058-2.218-2.571-.6-4-1a2.654,2.654,0,0,0-1,0c-2.617.207-3.966-.3-4-4s.857-4,4-4c2.4,0,4.783,1,7-1Z" transform="translate(4.24 3.801)" fill="#fff"/>
    <path id="Path_270" data-name="Path 270" d="M19,35.2c-2.509,7.38-5.517,14.611-8,22-.389,1.159-.622,2.092-2,2-1.142-.076-1.7-1.12-2-2-2.322-6.773-4.669-13.23-7-20-.31-.9-.136-2.686,1-3,1.586-.438,1.548.67,2,2,1.888,5.57,3.929,11.982,6,18,3.787-6.3,4.053-14.228,8-20,.556.226,1.444.773,2,1" transform="translate(0 3.804)" fill="#fff"/>
    <path id="Path_271" data-name="Path 271" d="M149.3,35.18c-.168,1.969-1.894,2.174-3,2-4.069-.643-4.136,1.732-4,5,.192,4.609.068,9.386,0,14-.017,1.148-.028,2.91-2,3-2.088.1-.981-1.893-1-3-.079-4.615-.3-9.406,0-14,.248-3.718-.938-5.654-5-5-.882.142-1.761.151-2-1-.243-1.171,1-1.994,2-2,4.614-.023,9.386-.019,14,0,.777,0,.8.084,1,1" transform="translate(14.699 3.82)" fill="#fff"/>
    <path id="Path_272" data-name="Path 272" d="M39.553,78.041c-.088,1.9.17,4.166-2,5-1.059-7.037-2.441-13.923-3-21-.376-4.749-2.78-6.4-7-6-1.809.173-4.332,1.792-6,0,7.332-3.908,13.4-2.457,15,5,1.219,5.677,1.959,11.286,3,17" transform="translate(2.447 5.96)" fill="#fff"/>
    <path id="Path_273" data-name="Path 273" d="M109.3,34.221c.461.467.539.534,1,1-4.592,3.237-9.309,1.658-14,1,3.96-2.721,8.932-.472,13-2" transform="translate(10.704 3.779)" fill="#fff"/>
    <path id="Path_274" data-name="Path 274" d="M21.561,36.1c3.926-2.057,8.96-.261,13-1,.787,1.229-.109,2.057-1,2-3.737-.238-8.359.668-12-1" transform="translate(2.439 3.897)" fill="#fff"/>
    <path id="Path_275" data-name="Path 275" d="M115.45,55.762c-.014,1.253.471,3.834-2,1,2.072-4.106.473-7.777,1-12,.256-2.064-.939-5.242,1-7" transform="translate(12.55 4.238)" fill="#fff"/>
    <path id="Path_276" data-name="Path 276" d="M22.537,45.124c3.117-1.5,5.49-1.267,10,0-4.376,2.133-6.771,1.607-10,0" transform="translate(2.463 4.876)" fill="#fff"/>
    <path id="Path_277" data-name="Path 277" d="M96.289,45.119c3.026-2.047,5.92-.7,9,0-3.016,2.564-5.913,1.121-9,0" transform="translate(10.711 4.881)" fill="#fff"/>
    <path id="Path_278" data-name="Path 278" d="M89.931,39.238c-2.583-3.807-10.549-7.231-15-5-3.537,1.774-1.276,6.179-2,9a11.391,11.391,0,0,0,0,3c0,3.136-.07,6.867,0,10,.027,1.148-.87,2.37,1,3,3.964,1.331,12.631-1.129,15-4,3.519-4.262,4.18-11.317,1-16m-1,8c-.518,6.355-4.841,9.84-11,9-2.237-.3-2-1.5-2-3,0-4.249.272-8.768,0-13-.213-3.347,1.38-3.534,4-3,6.393.147,9.523,3.586,9,10" transform="translate(8.069 3.762)" fill="#fff"/>
    <path id="Path_279" data-name="Path 279" d="M71.072,57.2c-2.223-6.819-3.611-14.239-6-21a2.6,2.6,0,0,0-5,0c-2.71,6.662-4.746,13.152-7,20,.628.211,1.371.79,2,1,1.352-2.392,1.821-6.141,6-6,4.271.144,6.317,1.922,7,6,.22,1.312.711,2.09,2,2,1.331-.092,1.318-1.023,1-2m-6-8c-.442,1.76-4.172.357-7,1,1.076-3.4,2.151-6.438,3-9a18.207,18.207,0,0,1,1-3c1.368,4.154,3.831,7.708,3,11" transform="translate(5.928 3.798)" fill="#fff"/>
  </g>
</svg>
