<svg xmlns="http://www.w3.org/2000/svg" width="258.752" height="76.258" viewBox="0 0 258.752 76.258"><g transform="translate(-350 -257.399)"><g transform="translate(350 257.733)"><path d="M402.714,295.717l.027-.219a21.729,21.729,0,0,0-.1-6.205,11.012,11.012,0,0,0-1.9-4.807,4.687,4.687,0,0,0-2.935-1.889,7.4,7.4,0,0,0-4.6,1q.733.19,1.516.319c.511.084,1.062.151,1.649.2a2.406,2.406,0,0,1-.357,4.8c-.677-.052-1.366-.137-2.064-.253-.673-.111-1.338-.254-1.991-.424a23.068,23.068,0,0,1-5.661-2.782c-.886-.534-1.8-1.082-2.508-1.47-3.189-1.737-6.563-2.738-9.01,1.755-1.485,2.728-1.447,6.866-.518,11.1,1.119,5.09,3.513,10.153,6.142,13.139.418.474-.539,1.625-.113,1.251a16.753,16.753,0,0,0,.92-3.795c.948-4.961,2.058-10.769,7.757-10.289,5.239.442,6.617,6.148,7.727,10.747l.454,1.869a31.946,31.946,0,0,0,5.565-14.041Zm4.984-2.22,15.431-.019a2.4,2.4,0,0,1,2.4,2.4h.01a37.685,37.685,0,1,1-1.584-10.846,2.406,2.406,0,0,1-4.611,1.374,33.016,33.016,0,1,0,1.29,11.874l-13.48.017a37.4,37.4,0,0,1-6.255,14.466c-2.294,3.239-4.251,3.671-6.122,2.346-1.538-1.09-2.1-3.4-2.747-6.091-.746-3.091-1.673-6.927-3.455-7.077-1.393-.118-2.065,3.395-2.638,6.394-.524,2.74-1,5.213-2.463,6.5-1.822,1.6-3.934,1.435-6.681-1.683-3.127-3.551-5.947-9.449-7.233-15.3-1.15-5.236-1.091-10.557,1.007-14.409,4.453-8.178,10.166-6.59,15.521-3.673.833.454,1.531.865,2.187,1.257,3.862-2.783,7.371-3.68,10.343-3.172a9.381,9.381,0,0,1,5.946,3.715,15.773,15.773,0,0,1,2.817,6.914,24.655,24.655,0,0,1,.319,5.014Zm-10.224,17.513c.2.236.324.366.067.184A.726.726,0,0,1,397.475,311.011Z" transform="translate(-350 -258.109)" fill="#15224a" fill-rule="evenodd"/></g><g transform="translate(429.941 257.399)"><path d="M529.666,288.491a12.514,12.514,0,0,1-4.935-.933,7.515,7.515,0,0,1-3.5-3.027,10.437,10.437,0,0,1-1.306-5.578V267.466a10.439,10.439,0,0,1,1.306-5.578,7.535,7.535,0,0,1,3.483-3.027,12.034,12.034,0,0,1,4.789-.933,12.877,12.877,0,0,1,5.122.954,8.21,8.21,0,0,1,3.5,2.737,7.11,7.11,0,0,1,1.286,4.271,2.514,2.514,0,0,1-.663,2.053,3.277,3.277,0,0,1-2.032.518,4.319,4.319,0,0,1-1.866-.373,1.416,1.416,0,0,1-.829-1.327,6.17,6.17,0,0,0-.394-1.928,3.3,3.3,0,0,0-1.244-1.555,4.779,4.779,0,0,0-2.716-.622,4.2,4.2,0,0,0-3.172,1.182,5.055,5.055,0,0,0-1.14,3.629v11.487a5.054,5.054,0,0,0,1.14,3.629,4.2,4.2,0,0,0,3.172,1.182,4.273,4.273,0,0,0,3.193-1.182,5,5,0,0,0,1.161-3.629v-2.4h-3.359a1.382,1.382,0,0,1-1.223-.664,2.635,2.635,0,0,1,0-2.9,1.383,1.383,0,0,1,1.223-.663h7.05a1.559,1.559,0,0,1,1.265.518,1.9,1.9,0,0,1,.436,1.265v4.852a10.579,10.579,0,0,1-1.286,5.578,7.392,7.392,0,0,1-3.5,3.027A12.668,12.668,0,0,1,529.666,288.491Z" transform="translate(-519.921 -257.679)" fill="#15224a"/><path d="M572.7,288.242a3.157,3.157,0,0,1-1.617-.435,1.418,1.418,0,0,1-.746-1.306V259.628a1.345,1.345,0,0,1,.85-1.306,4.569,4.569,0,0,1,3.711,0,1.347,1.347,0,0,1,.829,1.306v23.886h10.16a1.259,1.259,0,0,1,1.2.726,3.737,3.737,0,0,1,0,3.256,1.255,1.255,0,0,1-1.2.746Z" transform="translate(-546.621 -257.679)" fill="#15224a"/><path d="M620.81,288.491a12.517,12.517,0,0,1-4.935-.933,7.517,7.517,0,0,1-3.5-3.027,10.438,10.438,0,0,1-1.306-5.578V267.466a10.439,10.439,0,0,1,1.306-5.578,7.517,7.517,0,0,1,3.5-3.027,12.517,12.517,0,0,1,4.935-.933,12.671,12.671,0,0,1,4.956.933,7.393,7.393,0,0,1,3.5,3.027,10.584,10.584,0,0,1,1.285,5.578v11.487a10.583,10.583,0,0,1-1.285,5.578,7.393,7.393,0,0,1-3.5,3.027A12.671,12.671,0,0,1,620.81,288.491Zm0-4.728A4.317,4.317,0,0,0,624,282.6a4.986,4.986,0,0,0,1.161-3.649V267.466A4.987,4.987,0,0,0,624,263.817a4.319,4.319,0,0,0-3.193-1.161,4.246,4.246,0,0,0-3.173,1.161,5.043,5.043,0,0,0-1.14,3.649v11.487a5.042,5.042,0,0,0,1.14,3.649A4.244,4.244,0,0,0,620.81,283.763Z" transform="translate(-568.186 -257.679)" fill="#15224a"/><path d="M664.729,288.242a2.737,2.737,0,0,1-1.721-.5,1.479,1.479,0,0,1-.643-1.2V259.67a1.417,1.417,0,0,1,.746-1.306,3.153,3.153,0,0,1,1.618-.436h8.045a13.3,13.3,0,0,1,4.022.6,6.153,6.153,0,0,1,3.111,2.177,7.34,7.34,0,0,1,1.2,4.521,8.43,8.43,0,0,1-.954,4.209,5.418,5.418,0,0,1-2.571,2.384,7.1,7.1,0,0,1,2.239,1.265,5.436,5.436,0,0,1,1.493,2.115,8.982,8.982,0,0,1,.539,3.38v.871a10.413,10.413,0,0,1-1.1,5.163,6.431,6.431,0,0,1-2.986,2.779,10.134,10.134,0,0,1-4.209.85Zm3.027-18.537H672.4a3.043,3.043,0,0,0,2.509-.995,4.5,4.5,0,0,0,.394-4.458,2.9,2.9,0,0,0-1.161-1.182,3.623,3.623,0,0,0-1.783-.414h-4.6Zm0,13.809H672.4a4.034,4.034,0,0,0,2.986-1.078,4.711,4.711,0,0,0,1.078-3.441v-.664a4.467,4.467,0,0,0-1.078-3.421,4.294,4.294,0,0,0-2.986-.974h-4.645Z" transform="translate(-595.351 -257.679)" fill="#15224a"/><path d="M710.808,287.962a4.417,4.417,0,0,1-1.535-.29,3.909,3.909,0,0,1-1.327-.788,1.533,1.533,0,0,1-.54-1.161,3.37,3.37,0,0,1,.042-.415l8-26.085a2.231,2.231,0,0,1,1.306-1.368,5.471,5.471,0,0,1,4.375,0,2.235,2.235,0,0,1,1.286,1.368l8,26.085a1.751,1.751,0,0,1,.083.415,1.535,1.535,0,0,1-.56,1.14,3.963,3.963,0,0,1-1.348.809,4.419,4.419,0,0,1-1.534.29,2.614,2.614,0,0,1-1.14-.228,1.22,1.22,0,0,1-.643-.85l-1.576-5.515h-9.538l-1.535,5.515a1.213,1.213,0,0,1-.663.85A2.758,2.758,0,0,1,710.808,287.962Zm4.52-10.823h7.215l-3.608-12.731Z" transform="translate(-619.203 -257.399)" fill="#15224a"/><path d="M764.863,288.242a3.157,3.157,0,0,1-1.618-.435,1.419,1.419,0,0,1-.746-1.306V259.628a1.345,1.345,0,0,1,.85-1.306,4.57,4.57,0,0,1,3.712,0,1.348,1.348,0,0,1,.829,1.306v23.886h10.16a1.26,1.26,0,0,1,1.2.726,3.738,3.738,0,0,1,0,3.256,1.256,1.256,0,0,1-1.2.746Z" transform="translate(-648.376 -257.679)" fill="#15224a"/><path d="M807.437,288.242a3.158,3.158,0,0,1-1.618-.435,1.418,1.418,0,0,1-.746-1.306V259.628a1.345,1.345,0,0,1,.85-1.306,4.57,4.57,0,0,1,3.712,0,1.347,1.347,0,0,1,.829,1.306v23.886h10.16a1.26,1.26,0,0,1,1.2.726,3.737,3.737,0,0,1,0,3.256,1.255,1.255,0,0,1-1.2.746Z" transform="translate(-670.921 -257.679)" fill="#15224a"/><path d="M846.483,288.242a3.989,3.989,0,0,1-1.846-.435,1.4,1.4,0,0,1-.85-1.306V276.091a1.036,1.036,0,0,0-.125-.539l-8.584-14.846a1.015,1.015,0,0,1-.1-.311,1.648,1.648,0,0,1-.021-.228,1.49,1.49,0,0,1,.581-1.161,4.341,4.341,0,0,1,1.41-.788,4.776,4.776,0,0,1,1.576-.29,1.559,1.559,0,0,1,1,.269,2.675,2.675,0,0,1,.622.809l6.345,11.984,6.3-11.984a3.2,3.2,0,0,1,.663-.809,1.557,1.557,0,0,1,1-.269,4.6,4.6,0,0,1,1.555.29,4.667,4.667,0,0,1,1.41.788,1.476,1.476,0,0,1,.6,1.161,1.737,1.737,0,0,1-.021.228,1.016,1.016,0,0,1-.1.311L849.3,275.552a1.041,1.041,0,0,0-.124.539V286.5a1.4,1.4,0,0,1-.85,1.306A3.991,3.991,0,0,1,846.483,288.242Z" transform="translate(-686.744 -257.679)" fill="#15224a"/><path d="M523.343,385.371a.97.97,0,0,1-.684-.249.766.766,0,0,1-.27-.581V355.886a.765.765,0,0,1,.27-.58.967.967,0,0,1,.684-.249h7.341a10.172,10.172,0,0,1,4.271.871,6.593,6.593,0,0,1,3.007,2.758,9.989,9.989,0,0,1,1.1,5.038V376.7a9.987,9.987,0,0,1-1.1,5.039,6.588,6.588,0,0,1-3.007,2.758,10.172,10.172,0,0,1-4.271.871Zm1.12-1.991h6.262a6.264,6.264,0,0,0,4.6-1.638,6.81,6.81,0,0,0,1.658-5.039v-12.98a6.812,6.812,0,0,0-1.658-5.038,6.268,6.268,0,0,0-4.6-1.638h-6.262Z" transform="translate(-521.228 -309.113)" fill="#15224a"/><path d="M572.264,385.371a1.043,1.043,0,0,1-.663-.228.769.769,0,0,1-.29-.643V355.928a.771.771,0,0,1,.29-.643,1.046,1.046,0,0,1,.663-.228h14.763a.739.739,0,0,1,.663.311,1.146,1.146,0,0,1,.207.643,1.227,1.227,0,0,1-.228.705.735.735,0,0,1-.643.332H573.383v12.192h6.553a.772.772,0,0,1,.643.29,1.108,1.108,0,0,1,.228.7,1.052,1.052,0,0,1-.207.622.76.76,0,0,1-.663.29h-6.553V383.38h13.644a.751.751,0,0,1,.643.311,1.2,1.2,0,0,1,.228.726,1.145,1.145,0,0,1-.207.643.741.741,0,0,1-.663.311Z" transform="translate(-547.134 -309.113)" fill="#15224a"/><path d="M616.684,385.371a1.193,1.193,0,0,1-.726-.228.75.75,0,0,1-.311-.643V355.928a.731.731,0,0,1,.311-.685,1.379,1.379,0,0,1,.726-.186,1.022,1.022,0,0,1,.684.27,2.973,2.973,0,0,1,.559.663,5.975,5.975,0,0,1,.415.767l12.026,23.679v-24.55a.7.7,0,0,1,.311-.622,1.281,1.281,0,0,1,.726-.207,1.312,1.312,0,0,1,.7.207.686.686,0,0,1,.332.622V384.5a.735.735,0,0,1-.332.643,1.224,1.224,0,0,1-.7.228,1.068,1.068,0,0,1-.871-.518,7.511,7.511,0,0,1-.622-1.017L617.72,359.95V384.5a.735.735,0,0,1-.332.643A1.224,1.224,0,0,1,616.684,385.371Z" transform="translate(-570.612 -309.113)" fill="#15224a"/><path d="M668.579,385.371a1.192,1.192,0,0,1-.725-.228.749.749,0,0,1-.311-.643V357.048h-7.174a.807.807,0,0,1-.663-.311,1.064,1.064,0,0,1,0-1.369.805.805,0,0,1,.663-.311h16.38a.818.818,0,0,1,.684.29,1.048,1.048,0,0,1,.229.663,1.278,1.278,0,0,1-.208.726.784.784,0,0,1-.7.311h-7.133V384.5a.751.751,0,0,1-.311.643A1.2,1.2,0,0,1,668.579,385.371Z" transform="translate(-593.81 -309.113)" fill="#15224a"/></g><g transform="translate(411.374 293.116)"><rect width="197.377" height="4.8" rx="2.4" fill="#15224a"/></g></g></svg>