<svg xmlns="http://www.w3.org/2000/svg" width="258" height="76.036" viewBox="0 0 258 76.036"><g transform="translate(-350 -257.399)"><g transform="translate(350 257.732)"><path d="M402.561,295.608l.027-.218a21.667,21.667,0,0,0-.1-6.187,10.98,10.98,0,0,0-1.89-4.793,4.674,4.674,0,0,0-2.926-1.884,7.381,7.381,0,0,0-4.588,1q.731.189,1.512.318c.509.084,1.059.15,1.644.195a2.4,2.4,0,0,1-.356,4.785c-.675-.052-1.362-.137-2.058-.252-.671-.11-1.335-.253-1.985-.423a23,23,0,0,1-5.645-2.774c-.883-.532-1.791-1.079-2.5-1.466-3.18-1.732-6.544-2.73-8.984,1.75-1.481,2.72-1.442,6.846-.517,11.064,1.116,5.076,3.5,10.124,6.124,13.1.417.472-.537,1.621-.113,1.247a16.706,16.706,0,0,0,.918-3.784c.946-4.947,2.052-10.738,7.734-10.259,5.224.441,6.6,6.131,7.7,10.715l.453,1.864a31.853,31.853,0,0,0,5.548-14Zm4.97-2.213,15.386-.019a2.393,2.393,0,0,1,2.392,2.393h.01a37.576,37.576,0,1,1-1.579-10.814,2.4,2.4,0,1,1-4.6,1.37,32.92,32.92,0,1,0,1.286,11.839l-13.441.017a37.293,37.293,0,0,1-6.237,14.424c-2.287,3.229-4.239,3.661-6.1,2.339-1.534-1.086-2.092-3.395-2.739-6.073-.744-3.082-1.668-6.907-3.445-7.057-1.389-.117-2.059,3.385-2.631,6.375-.522,2.732-.993,5.2-2.456,6.486-1.817,1.6-3.923,1.431-6.662-1.678-3.118-3.541-5.93-9.422-7.212-15.26-1.147-5.221-1.087-10.526,1-14.367,4.44-8.154,10.137-6.571,15.476-3.663.831.453,1.526.862,2.18,1.253,3.851-2.775,7.349-3.67,10.313-3.163a9.354,9.354,0,0,1,5.929,3.7,15.727,15.727,0,0,1,2.808,6.894,24.59,24.59,0,0,1,.318,5Zm-10.194,17.462c.2.235.323.365.067.183A.723.723,0,0,1,397.337,310.857Z" transform="translate(-350 -258.109)" fill="#fff" fill-rule="evenodd"/></g><g transform="translate(429.708 257.399)"><path d="M529.638,288.4a12.476,12.476,0,0,1-4.92-.93,7.493,7.493,0,0,1-3.494-3.019,10.407,10.407,0,0,1-1.3-5.562V267.438a10.408,10.408,0,0,1,1.3-5.562,7.513,7.513,0,0,1,3.473-3.019,12,12,0,0,1,4.775-.93,12.839,12.839,0,0,1,5.107.951,8.185,8.185,0,0,1,3.494,2.729,7.089,7.089,0,0,1,1.282,4.259,2.507,2.507,0,0,1-.661,2.047,3.268,3.268,0,0,1-2.027.517,4.306,4.306,0,0,1-1.86-.372,1.411,1.411,0,0,1-.827-1.323,6.151,6.151,0,0,0-.393-1.923,3.29,3.29,0,0,0-1.24-1.55,4.766,4.766,0,0,0-2.709-.62,4.189,4.189,0,0,0-3.163,1.178,5.04,5.04,0,0,0-1.137,3.618v11.453a5.04,5.04,0,0,0,1.137,3.618,4.188,4.188,0,0,0,3.163,1.178,4.261,4.261,0,0,0,3.184-1.178,4.982,4.982,0,0,0,1.158-3.618v-2.4H530.63a1.378,1.378,0,0,1-1.22-.662,2.627,2.627,0,0,1,0-2.894,1.379,1.379,0,0,1,1.22-.661h7.029a1.554,1.554,0,0,1,1.261.517,1.9,1.9,0,0,1,.435,1.261v4.838a10.548,10.548,0,0,1-1.282,5.562,7.37,7.37,0,0,1-3.494,3.019A12.63,12.63,0,0,1,529.638,288.4Z" transform="translate(-519.921 -257.68)" fill="#fff"/><path d="M572.7,288.154a3.147,3.147,0,0,1-1.613-.434,1.413,1.413,0,0,1-.744-1.3V259.623a1.341,1.341,0,0,1,.848-1.3,4.555,4.555,0,0,1,3.7,0,1.343,1.343,0,0,1,.827,1.3V283.44h10.131a1.255,1.255,0,0,1,1.2.724,3.726,3.726,0,0,1,0,3.246,1.251,1.251,0,0,1-1.2.744Z" transform="translate(-546.689 -257.68)" fill="#fff"/><path d="M620.782,288.4a12.48,12.48,0,0,1-4.921-.93,7.5,7.5,0,0,1-3.494-3.019,10.407,10.407,0,0,1-1.3-5.562V267.438a10.408,10.408,0,0,1,1.3-5.562,7.5,7.5,0,0,1,3.494-3.019,12.482,12.482,0,0,1,4.921-.93,12.635,12.635,0,0,1,4.941.93,7.372,7.372,0,0,1,3.494,3.019,10.554,10.554,0,0,1,1.282,5.562v11.453a10.552,10.552,0,0,1-1.282,5.562,7.371,7.371,0,0,1-3.494,3.019A12.633,12.633,0,0,1,620.782,288.4Zm0-4.714a4.3,4.3,0,0,0,3.184-1.158,4.972,4.972,0,0,0,1.157-3.639V267.438a4.973,4.973,0,0,0-1.157-3.639,4.306,4.306,0,0,0-3.184-1.158,4.234,4.234,0,0,0-3.164,1.158,5.028,5.028,0,0,0-1.136,3.639v11.453a5.027,5.027,0,0,0,1.136,3.639A4.232,4.232,0,0,0,620.782,283.688Z" transform="translate(-568.31 -257.68)" fill="#fff"/><path d="M664.722,288.154a2.729,2.729,0,0,1-1.716-.5,1.474,1.474,0,0,1-.641-1.2V259.665a1.413,1.413,0,0,1,.744-1.3,3.145,3.145,0,0,1,1.613-.434h8.021a13.26,13.26,0,0,1,4.011.6,6.135,6.135,0,0,1,3.1,2.171,7.319,7.319,0,0,1,1.2,4.507,8.406,8.406,0,0,1-.951,4.2,5.4,5.4,0,0,1-2.563,2.377,7.085,7.085,0,0,1,2.233,1.261,5.421,5.421,0,0,1,1.489,2.109,8.956,8.956,0,0,1,.537,3.37v.868a10.383,10.383,0,0,1-1.1,5.148,6.414,6.414,0,0,1-2.977,2.77,10.105,10.105,0,0,1-4.2.848Zm3.018-18.483h4.631a3.034,3.034,0,0,0,2.5-.992,4.484,4.484,0,0,0,.393-4.445,2.9,2.9,0,0,0-1.158-1.178,3.612,3.612,0,0,0-1.778-.413h-4.59Zm0,13.769h4.631a4.022,4.022,0,0,0,2.977-1.075,4.7,4.7,0,0,0,1.075-3.431v-.662a4.455,4.455,0,0,0-1.075-3.411,4.281,4.281,0,0,0-2.977-.971H667.74Z" transform="translate(-595.546 -257.68)" fill="#fff"/><path d="M710.8,287.873a4.4,4.4,0,0,1-1.53-.289,3.9,3.9,0,0,1-1.323-.786,1.528,1.528,0,0,1-.538-1.157,3.366,3.366,0,0,1,.042-.414l7.98-26.009a2.224,2.224,0,0,1,1.3-1.364,5.455,5.455,0,0,1,4.362,0,2.228,2.228,0,0,1,1.282,1.364l7.98,26.009a1.747,1.747,0,0,1,.083.414,1.531,1.531,0,0,1-.558,1.137,3.954,3.954,0,0,1-1.344.806,4.406,4.406,0,0,1-1.53.289,2.606,2.606,0,0,1-1.137-.227,1.217,1.217,0,0,1-.641-.848l-1.571-5.5h-9.51l-1.53,5.5a1.21,1.21,0,0,1-.661.848A2.75,2.75,0,0,1,710.8,287.873Zm4.507-10.792H722.5l-3.6-12.694Z" transform="translate(-619.459 -257.399)" fill="#fff"/><path d="M764.856,288.154a3.146,3.146,0,0,1-1.613-.434,1.414,1.414,0,0,1-.744-1.3V259.623a1.341,1.341,0,0,1,.848-1.3,4.557,4.557,0,0,1,3.7,0,1.344,1.344,0,0,1,.826,1.3V283.44H778a1.257,1.257,0,0,1,1.2.724,3.525,3.525,0,0,1,.372,1.633,3.561,3.561,0,0,1-.372,1.613,1.252,1.252,0,0,1-1.2.744Z" transform="translate(-648.708 -257.68)" fill="#fff"/><path d="M807.43,288.154a3.148,3.148,0,0,1-1.613-.434,1.414,1.414,0,0,1-.744-1.3V259.623a1.341,1.341,0,0,1,.848-1.3,4.556,4.556,0,0,1,3.7,0,1.343,1.343,0,0,1,.827,1.3V283.44h10.13a1.256,1.256,0,0,1,1.2.724,3.525,3.525,0,0,1,.372,1.633,3.561,3.561,0,0,1-.372,1.613,1.252,1.252,0,0,1-1.2.744Z" transform="translate(-671.311 -257.68)" fill="#fff"/><path d="M846.449,288.154a3.977,3.977,0,0,1-1.84-.434,1.392,1.392,0,0,1-.847-1.3V276.039a1.032,1.032,0,0,0-.124-.538l-8.559-14.8a1.011,1.011,0,0,1-.1-.31,1.657,1.657,0,0,1-.021-.227,1.485,1.485,0,0,1,.579-1.158,4.329,4.329,0,0,1,1.406-.786,4.762,4.762,0,0,1,1.571-.289,1.554,1.554,0,0,1,.992.268,2.663,2.663,0,0,1,.62.807l6.326,11.95L852.734,259a3.187,3.187,0,0,1,.661-.807,1.552,1.552,0,0,1,.993-.268,4.583,4.583,0,0,1,1.55.289,4.653,4.653,0,0,1,1.406.786,1.473,1.473,0,0,1,.6,1.158,1.729,1.729,0,0,1-.021.227,1.013,1.013,0,0,1-.1.31l-8.559,14.8a1.039,1.039,0,0,0-.124.538v10.379a1.394,1.394,0,0,1-.848,1.3A3.979,3.979,0,0,1,846.449,288.154Z" transform="translate(-687.175 -257.68)" fill="#fff"/><path d="M523.34,385.283a.967.967,0,0,1-.682-.248.764.764,0,0,1-.269-.579V355.884a.763.763,0,0,1,.269-.578.964.964,0,0,1,.682-.248h7.319a10.142,10.142,0,0,1,4.259.868,6.573,6.573,0,0,1,3,2.75,9.96,9.96,0,0,1,1.1,5.023v12.942a9.958,9.958,0,0,1-1.1,5.024,6.568,6.568,0,0,1-3,2.75,10.141,10.141,0,0,1-4.259.868Zm1.116-1.985H530.7a6.247,6.247,0,0,0,4.59-1.633,6.79,6.79,0,0,0,1.654-5.024V363.7a6.792,6.792,0,0,0-1.654-5.023,6.25,6.25,0,0,0-4.59-1.633h-6.244Z" transform="translate(-521.231 -309.247)" fill="#fff"/><path d="M572.261,385.283a1.04,1.04,0,0,1-.661-.227.767.767,0,0,1-.289-.641V355.925a.769.769,0,0,1,.289-.641,1.043,1.043,0,0,1,.661-.227h14.721a.737.737,0,0,1,.661.31,1.142,1.142,0,0,1,.207.641,1.224,1.224,0,0,1-.227.7.733.733,0,0,1-.641.331h-13.6V369.2h6.533a.77.77,0,0,1,.641.289,1.106,1.106,0,0,1,.227.7,1.049,1.049,0,0,1-.206.621.757.757,0,0,1-.661.289h-6.533v12.2h13.6a.749.749,0,0,1,.641.31,1.2,1.2,0,0,1,.227.724,1.14,1.14,0,0,1-.207.641.738.738,0,0,1-.661.31Z" transform="translate(-547.204 -309.247)" fill="#fff"/><path d="M616.681,385.283a1.189,1.189,0,0,1-.724-.227.748.748,0,0,1-.31-.641V355.925a.729.729,0,0,1,.31-.683,1.375,1.375,0,0,1,.724-.186,1.019,1.019,0,0,1,.682.269,2.962,2.962,0,0,1,.558.661,5.952,5.952,0,0,1,.414.765l11.992,23.61V355.884a.7.7,0,0,1,.31-.62,1.278,1.278,0,0,1,.724-.206,1.309,1.309,0,0,1,.7.206.684.684,0,0,1,.331.62v28.531a.733.733,0,0,1-.331.641,1.221,1.221,0,0,1-.7.227,1.064,1.064,0,0,1-.869-.516,7.484,7.484,0,0,1-.62-1.014l-12.156-23.817v24.479a.733.733,0,0,1-.331.641A1.221,1.221,0,0,1,616.681,385.283Z" transform="translate(-570.743 -309.247)" fill="#fff"/><path d="M668.552,385.283a1.189,1.189,0,0,1-.723-.227.747.747,0,0,1-.31-.641V357.042h-7.154a.8.8,0,0,1-.661-.31,1.06,1.06,0,0,1,0-1.365.8.8,0,0,1,.661-.31H676.7a.816.816,0,0,1,.682.289,1.045,1.045,0,0,1,.228.661,1.274,1.274,0,0,1-.207.724.782.782,0,0,1-.7.31h-7.112v27.373a.749.749,0,0,1-.31.641A1.193,1.193,0,0,1,668.552,385.283Z" transform="translate(-594.001 -309.247)" fill="#fff"/></g><g transform="translate(411.196 293.012)"><rect width="196.804" height="4.786" rx="2.393" fill="#fff"/></g></g></svg>