<?xml version="1.0" encoding="utf-8"?>
<!-- Generator: Adobe Illustrator 16.0.0, SVG Export Plug-In . SVG Version: 6.00 Build 0)  -->
<!DOCTYPE svg PUBLIC "-//W3C//DTD SVG 1.1//EN" "http://www.w3.org/Graphics/SVG/1.1/DTD/svg11.dtd">
<svg version="1.1" id="icons" xmlns="http://www.w3.org/2000/svg" xmlns:xlink="http://www.w3.org/1999/xlink" x="0px" y="0px"
	 width="64px" height="64px" viewBox="0 0 64 64" enable-background="new 0 0 64 64" xml:space="preserve">
<g>
	<path d="M61,8.499H3c-1.654,0-3,1.346-3,3v41.002c0,1.654,1.346,3,3,3h58c1.654,0,3-1.346,3-3V11.499
		C64,9.845,62.654,8.499,61,8.499z M62,52.501c0,0.552-0.448,1-1,1H3c-0.552,0-1-0.448-1-1V11.499c0-0.551,0.448-1,1-1h58
		c0.552,0,1,0.449,1,1V52.501z"/>
	<path d="M48,37.501h-1.142C46.942,37.176,47,36.844,47,36.502c0-2.207-1.795-4.002-4.002-4.002c-0.704,0-1.392,0.19-1.999,0.545
		C40.393,32.69,39.705,32.5,39,32.5c-1.2,0-2.266,0.542-3,1.382c-0.734-0.84-1.8-1.382-3.001-1.382c-0.704,0-1.392,0.19-1.999,0.545
		c-0.606-0.355-1.294-0.545-1.999-0.545c-1.2,0-2.266,0.542-3,1.382c-0.734-0.84-1.8-1.382-3.001-1.382
		c-0.704,0-1.392,0.19-1.999,0.545c-0.606-0.355-1.294-0.545-1.999-0.545c-2.206,0-4.001,1.795-4.001,4.002
		c0,0.342,0.058,0.674,0.142,0.999H14c-0.553,0-1,0.447-1,1v7.998c0,0.553,0.447,1,1,1h34c0.553,0,1-0.447,1-1v-7.998
		C49,37.948,48.553,37.501,48,37.501z M39,34.5c0.621,0,1.066,0.283,1.33,0.521c0.379,0.342,0.957,0.342,1.338,0
		c0.264-0.237,0.709-0.521,1.33-0.521c1.104,0,2.002,0.898,2.002,2.002c0,0.569-0.243,1.112-0.667,1.491
		c-0.036,0.032-0.053,0.075-0.083,0.111c-0.047,0.055-0.094,0.106-0.128,0.171c-0.033,0.063-0.049,0.129-0.067,0.197
		c-0.014,0.046-0.04,0.086-0.047,0.135L43.623,41.5h-0.624c-0.547,0-0.991-0.442-0.998-0.988c0-0.004,0.001-0.008,0.001-0.013
		c0-0.553-0.447-1-1-1c-0.001,0-0.001,0-0.002,0s-0.001,0-0.002,0c-0.553,0-1,0.447-1,1c0,0.005,0.001,0.009,0.001,0.013
		c-0.007,0.546-0.451,0.988-0.998,0.988h-0.624l-0.386-2.894c-0.007-0.05-0.033-0.089-0.047-0.136
		c-0.019-0.067-0.034-0.133-0.066-0.195c-0.035-0.067-0.084-0.12-0.132-0.176c-0.029-0.035-0.045-0.076-0.08-0.107
		c-0.422-0.377-0.663-0.916-0.666-1.481c0-0.003,0.001-0.006,0.001-0.009S37,36.496,37,36.492C37.006,35.394,37.899,34.5,39,34.5z
		 M29.001,34.5c0.621,0,1.066,0.283,1.33,0.521c0.379,0.342,0.957,0.342,1.338,0c0.264-0.237,0.709-0.521,1.33-0.521
		c1.101,0,1.995,0.894,2.001,1.992c0,0.004-0.001,0.007-0.001,0.01S35,36.508,35,36.511c-0.003,0.566-0.244,1.105-0.666,1.482
		c-0.034,0.03-0.05,0.072-0.079,0.106c-0.049,0.056-0.098,0.109-0.133,0.177c-0.033,0.063-0.048,0.128-0.066,0.194
		c-0.014,0.047-0.04,0.087-0.047,0.137L33.624,41.5H33c-0.547,0-0.991-0.442-0.998-0.988c0-0.004,0.001-0.008,0.001-0.013
		c0-0.553-0.447-1-1-1c-0.001,0-0.001,0-0.002,0s-0.001,0-0.002,0c-0.553,0-1,0.447-1,1c0,0.005,0.001,0.009,0.001,0.013
		c-0.007,0.546-0.451,0.988-0.998,0.988h-0.624l-0.386-2.894c-0.007-0.049-0.033-0.088-0.046-0.134
		c-0.019-0.068-0.035-0.135-0.068-0.199c-0.034-0.063-0.08-0.113-0.126-0.167c-0.03-0.037-0.048-0.081-0.085-0.114
		c-0.422-0.377-0.663-0.916-0.666-1.481c0-0.003,0.001-0.006,0.001-0.009s-0.001-0.006-0.001-0.01
		C27.006,35.394,27.9,34.5,29.001,34.5z M19.002,34.5c0.621,0,1.066,0.283,1.33,0.521c0.379,0.342,0.957,0.342,1.338,0
		C21.934,34.783,22.379,34.5,23,34.5c1.101,0,1.996,0.894,2.001,1.992c0,0.004-0.001,0.007-0.001,0.01s0.001,0.006,0.001,0.009
		c-0.003,0.566-0.244,1.105-0.666,1.482c-0.035,0.031-0.052,0.074-0.082,0.109c-0.047,0.056-0.095,0.107-0.13,0.173
		c-0.032,0.063-0.048,0.129-0.066,0.196c-0.014,0.047-0.04,0.086-0.047,0.136L23.625,41.5h-0.624c-0.547,0-0.991-0.442-0.998-0.988
		c0-0.004,0.001-0.008,0.001-0.013c0-0.553-0.447-1-1-1c-0.001,0-0.001,0-0.002,0s-0.001,0-0.002,0c-0.553,0-1,0.447-1,1
		c0,0.005,0.001,0.009,0.001,0.013c-0.007,0.546-0.451,0.988-0.998,0.988h-0.624l-0.386-2.894c-0.007-0.049-0.033-0.089-0.046-0.135
		c-0.02-0.067-0.035-0.134-0.068-0.197c-0.034-0.065-0.082-0.118-0.13-0.174c-0.029-0.035-0.046-0.077-0.081-0.108
		c-0.424-0.379-0.667-0.922-0.667-1.49C17.001,35.398,17.898,34.5,19.002,34.5z M47,45.499H15v-5.998h1.095l0.417,3.131
		c0.007,0.052,0.032,0.094,0.047,0.143c0.016,0.054,0.027,0.106,0.051,0.156c0.032,0.066,0.075,0.121,0.119,0.178
		c0.032,0.04,0.059,0.083,0.096,0.118c0.058,0.054,0.125,0.092,0.193,0.13c0.039,0.022,0.072,0.052,0.114,0.068
		c0.115,0.047,0.239,0.075,0.37,0.075c0,0,0,0,0.001,0l0,0h1.5c0.771,0,1.467-0.301,1.999-0.779
		c0.532,0.479,1.229,0.779,1.999,0.779h1.5l0,0c0.001,0,0.001,0,0.001,0c0.131,0,0.255-0.028,0.371-0.075
		c0.041-0.017,0.073-0.045,0.111-0.067c0.069-0.039,0.138-0.077,0.196-0.132c0.036-0.034,0.062-0.075,0.093-0.114
		c0.045-0.058,0.09-0.114,0.122-0.182c0.023-0.049,0.034-0.102,0.05-0.154c0.015-0.049,0.04-0.092,0.047-0.144l0.416-3.131h0.186
		l0.417,3.131c0.007,0.052,0.032,0.094,0.047,0.143c0.016,0.054,0.026,0.106,0.051,0.156c0.032,0.066,0.075,0.121,0.119,0.178
		c0.032,0.04,0.059,0.083,0.096,0.118c0.058,0.054,0.125,0.092,0.193,0.13c0.039,0.022,0.072,0.052,0.114,0.068
		c0.115,0.047,0.24,0.075,0.37,0.075h0.001l0,0h1.5c0.771,0,1.467-0.301,1.999-0.779C31.533,43.199,32.229,43.5,33,43.5h1.5l0,0
		h0.001c0.13,0,0.255-0.028,0.37-0.075c0.042-0.017,0.074-0.045,0.112-0.067c0.069-0.039,0.138-0.077,0.196-0.132
		c0.036-0.034,0.062-0.075,0.093-0.114c0.046-0.058,0.09-0.114,0.122-0.182c0.023-0.049,0.034-0.102,0.05-0.154
		c0.015-0.049,0.04-0.092,0.047-0.144l0.416-3.131h0.186l0.417,3.131c0.007,0.052,0.032,0.094,0.047,0.143
		c0.016,0.054,0.027,0.106,0.051,0.156c0.032,0.066,0.075,0.121,0.119,0.178c0.032,0.04,0.059,0.083,0.096,0.118
		c0.058,0.054,0.125,0.092,0.193,0.13c0.039,0.022,0.072,0.052,0.114,0.068c0.115,0.047,0.239,0.075,0.37,0.075c0,0,0,0,0.001,0l0,0
		h1.5c0.771,0,1.467-0.301,1.999-0.779c0.532,0.479,1.229,0.779,1.999,0.779h1.5l0,0c0.001,0,0.001,0,0.001,0
		c0.131,0,0.255-0.028,0.371-0.075c0.041-0.017,0.073-0.045,0.111-0.067c0.069-0.039,0.138-0.077,0.196-0.132
		c0.036-0.034,0.062-0.075,0.093-0.114c0.045-0.058,0.09-0.114,0.122-0.182c0.023-0.049,0.034-0.102,0.05-0.154
		c0.015-0.049,0.04-0.092,0.047-0.144l0.416-3.131H47V45.499z"/>
	<path d="M48,16.503H14c-0.553,0-1,0.448-1,1v8c0,0.552,0.447,1,1,1h1.141C15.057,26.828,15,27.16,15,27.501
		c0,2.207,1.795,4.003,4.002,4.003c0.704,0,1.392-0.19,1.999-0.545c0.606,0.355,1.294,0.545,1.999,0.545c1.2,0,2.266-0.542,3-1.383
		c0.734,0.84,1.8,1.383,3.001,1.383c0.704,0,1.392-0.19,1.999-0.545c0.606,0.355,1.294,0.545,1.999,0.545c1.2,0,2.266-0.542,3-1.383
		c0.734,0.84,1.8,1.383,3.001,1.383c0.704,0,1.392-0.19,1.999-0.545c0.606,0.355,1.294,0.545,1.999,0.545
		c2.206,0,4.001-1.796,4.001-4.003c0-0.341-0.057-0.673-0.142-0.998H48c0.553,0,1-0.448,1-1v-8C49,16.951,48.553,16.503,48,16.503z
		 M23,29.504c-0.621,0-1.066-0.283-1.33-0.521c-0.379-0.343-0.957-0.342-1.338,0c-0.264,0.238-0.709,0.521-1.33,0.521
		c-1.104,0-2.002-0.898-2.002-2.003c0-0.569,0.243-1.112,0.667-1.49c0.017-0.015,0.023-0.036,0.038-0.051
		c0.072-0.073,0.136-0.151,0.184-0.244c0.025-0.05,0.034-0.103,0.051-0.156c0.017-0.055,0.045-0.104,0.053-0.163l0.385-2.894h0.624
		c0.547,0,0.991,0.442,0.998,0.988c0,0.004-0.001,0.008-0.001,0.013c0,0.552,0.447,1,1,1c0.001,0,0.001,0,0.002,0s0.001,0,0.002,0
		c0.553,0,1-0.448,1-1c0-0.004-0.001-0.008-0.001-0.013c0.007-0.546,0.451-0.988,0.998-0.988h0.624l0.386,2.894
		c0.008,0.06,0.036,0.11,0.055,0.166c0.016,0.052,0.024,0.104,0.05,0.152c0.047,0.094,0.112,0.174,0.186,0.248
		c0.014,0.014,0.02,0.034,0.035,0.047c0.422,0.377,0.663,0.917,0.666,1.481c0,0.003-0.001,0.006-0.001,0.009
		c0,0.003,0.001,0.006,0.001,0.01C24.994,28.61,24.101,29.504,23,29.504z M32.999,29.504c-0.621,0-1.066-0.283-1.33-0.521
		c-0.379-0.343-0.957-0.342-1.338,0c-0.264,0.238-0.709,0.521-1.33,0.521c-1.101,0-1.995-0.894-2.001-1.993
		c0-0.003,0.001-0.006,0.001-0.01c0-0.003-0.001-0.006-0.001-0.009c0.003-0.565,0.244-1.105,0.666-1.481
		c0.017-0.015,0.023-0.036,0.038-0.051c0.072-0.073,0.136-0.151,0.184-0.244c0.025-0.05,0.034-0.103,0.051-0.156
		c0.017-0.055,0.045-0.104,0.053-0.163l0.385-2.894H29c0.547,0,0.991,0.442,0.998,0.988c0,0.004-0.001,0.008-0.001,0.013
		c0,0.552,0.447,1,1,1c0.001,0,0.001,0,0.002,0s0.001,0,0.002,0c0.553,0,1-0.448,1-1c0-0.004-0.001-0.008-0.001-0.013
		c0.007-0.546,0.451-0.988,0.998-0.988h0.624l0.386,2.894c0.008,0.06,0.036,0.11,0.055,0.166c0.016,0.052,0.024,0.104,0.049,0.152
		c0.048,0.094,0.113,0.174,0.186,0.248c0.015,0.014,0.021,0.034,0.036,0.047c0.422,0.377,0.663,0.917,0.666,1.481
		c0,0.003-0.001,0.006-0.001,0.009c0,0.003,0.001,0.006,0.001,0.01C34.994,28.61,34.1,29.504,32.999,29.504z M42.998,29.504
		c-0.621,0-1.066-0.283-1.33-0.521c-0.379-0.343-0.957-0.342-1.338,0c-0.264,0.238-0.709,0.521-1.33,0.521
		c-1.101,0-1.996-0.894-2.001-1.993c0-0.003,0.001-0.006,0.001-0.01c0-0.003-0.001-0.006-0.001-0.009
		c0.003-0.565,0.244-1.105,0.666-1.481c0.017-0.015,0.023-0.036,0.038-0.051c0.072-0.073,0.136-0.151,0.184-0.244
		c0.025-0.05,0.034-0.103,0.051-0.156c0.017-0.055,0.045-0.104,0.053-0.163l0.385-2.894h0.624c0.547,0,0.991,0.442,0.998,0.988
		c0,0.004-0.001,0.008-0.001,0.013c0,0.552,0.447,1,1,1c0.001,0,0.001,0,0.002,0s0.001,0,0.002,0c0.553,0,1-0.448,1-1
		c0-0.004-0.001-0.008-0.001-0.013c0.007-0.546,0.451-0.988,0.998-0.988h0.624l0.386,2.894c0.008,0.06,0.036,0.11,0.055,0.166
		c0.016,0.052,0.024,0.104,0.05,0.152c0.047,0.094,0.112,0.174,0.186,0.248c0.014,0.014,0.02,0.034,0.035,0.047
		c0.424,0.379,0.667,0.922,0.667,1.491C44.999,28.605,44.102,29.504,42.998,29.504z M47,24.503h-1.095l-0.417-3.132
		c-0.006-0.046-0.031-0.083-0.043-0.126c-0.018-0.065-0.034-0.127-0.064-0.187c-0.03-0.06-0.068-0.111-0.109-0.163
		c-0.037-0.048-0.073-0.094-0.118-0.134c-0.052-0.045-0.108-0.079-0.168-0.113c-0.052-0.03-0.102-0.059-0.158-0.079
		c-0.064-0.022-0.132-0.031-0.201-0.041c-0.044-0.006-0.083-0.026-0.129-0.026h-1.5c-0.771,0-1.467,0.3-1.999,0.779
		c-0.532-0.479-1.229-0.779-1.999-0.779h-1.5c-0.046,0-0.085,0.02-0.13,0.026c-0.068,0.009-0.135,0.018-0.198,0.04
		c-0.059,0.021-0.109,0.05-0.163,0.081c-0.058,0.034-0.113,0.066-0.164,0.111c-0.046,0.041-0.082,0.087-0.12,0.136
		c-0.04,0.052-0.079,0.102-0.108,0.162c-0.03,0.059-0.046,0.121-0.064,0.186c-0.012,0.044-0.037,0.081-0.043,0.127l-0.415,3.121
		h-0.188l-0.416-3.121c-0.006-0.046-0.031-0.082-0.043-0.125c-0.019-0.066-0.034-0.129-0.064-0.188
		c-0.03-0.059-0.067-0.108-0.107-0.159c-0.039-0.05-0.075-0.097-0.123-0.139c-0.05-0.044-0.104-0.076-0.161-0.109
		c-0.054-0.031-0.105-0.061-0.164-0.081c-0.064-0.023-0.13-0.031-0.199-0.041c-0.044-0.006-0.083-0.026-0.129-0.026h-1.5
		c-0.771,0-1.467,0.3-1.999,0.779c-0.532-0.479-1.229-0.779-1.999-0.779h-1.5c-0.046,0-0.086,0.02-0.13,0.026
		c-0.068,0.009-0.134,0.017-0.197,0.04c-0.06,0.021-0.111,0.051-0.166,0.083c-0.057,0.033-0.111,0.065-0.16,0.108
		c-0.048,0.042-0.084,0.089-0.123,0.139c-0.04,0.051-0.078,0.101-0.107,0.159c-0.03,0.06-0.046,0.122-0.064,0.188
		c-0.012,0.043-0.037,0.08-0.043,0.126l-0.415,3.121h-0.188l-0.416-3.121c-0.006-0.046-0.031-0.083-0.043-0.126
		c-0.018-0.065-0.034-0.128-0.064-0.188s-0.068-0.109-0.108-0.161c-0.038-0.048-0.074-0.095-0.12-0.136
		c-0.051-0.045-0.106-0.078-0.166-0.111c-0.052-0.03-0.102-0.06-0.16-0.08c-0.064-0.022-0.131-0.031-0.2-0.041
		c-0.044-0.006-0.083-0.026-0.129-0.026h-1.5c-0.771,0-1.467,0.3-1.999,0.779c-0.532-0.479-1.229-0.779-1.999-0.779h-1.5
		c-0.046,0-0.085,0.02-0.13,0.026c-0.068,0.009-0.135,0.018-0.199,0.04c-0.058,0.021-0.108,0.05-0.16,0.08
		c-0.06,0.034-0.115,0.067-0.167,0.112c-0.045,0.04-0.08,0.086-0.118,0.134c-0.041,0.052-0.08,0.103-0.11,0.163
		c-0.029,0.059-0.045,0.121-0.063,0.185c-0.013,0.044-0.038,0.081-0.044,0.127l-0.416,3.132H15v-6h32V24.503z"/>
	<path d="M57.999,45.501H54c-0.553,0-1,0.447-1,1s0.447,1,1,1h3.999c0.553,0,1-0.447,1-1S58.552,45.501,57.999,45.501z"/>
	<path d="M56,48.501h-2c-0.553,0-1,0.447-1,1s0.447,1,1,1h2c0.553,0,1-0.447,1-1S56.553,48.501,56,48.501z"/>
	<path d="M9.952,13.478H5.953c-0.553,0-1,0.448-1,1s0.447,1,1,1h3.999c0.553,0,1-0.448,1-1S10.505,13.478,9.952,13.478z"/>
	<path d="M7.953,16.476h-2c-0.553,0-1,0.448-1,1s0.447,1,1,1h2c0.553,0,1-0.448,1-1S8.506,16.476,7.953,16.476z"/>
</g>
</svg>
