<svg xmlns="http://www.w3.org/2000/svg" width="124" height="73.736" viewBox="0 0 124 73.736"><g transform="translate(-3585 -1738.264)"><g transform="translate(3585 1738.264)"><path d="M46.27,10.423A25.347,25.347,0,0,0,10.423,46.268,25.347,25.347,0,0,0,46.27,10.423ZM44.641,44.639A23.043,23.043,0,0,1,12.052,12.052,23.043,23.043,0,0,1,44.641,44.639Z" transform="translate(0.456 0.456)" fill="#162162"/><path d="M72.048,63.9,58.707,50.559a1.151,1.151,0,0,0-1.629,0l-.816.816-4.8-4.8a28.8,28.8,0,1,0-4.886,4.888l4.8,4.8-.815.815a1.151,1.151,0,0,0,0,1.629L63.9,72.048A5.759,5.759,0,1,0,72.048,63.9ZM10.065,47.54A26.5,26.5,0,1,1,28.8,55.3,26.335,26.335,0,0,1,10.065,47.54Zm38.27,2.423c.281-.26.562-.522.835-.794s.535-.553.794-.835L54.633,53,53,54.634ZM70.418,70.419a3.536,3.536,0,0,1-4.886,0L53,57.892l.812-.813h0a0,0,0,0,0,0,0l3.252-3.252,0,0,0,0L57.892,53,70.419,65.533h0a3.452,3.452,0,0,1,0,4.885Z" transform="translate(0 0)" fill="#162162"/><path d="M31.283,14a8.025,8.025,0,0,0-4.608,1.455,8.053,8.053,0,1,0-9.219,13.207V39.349A1.151,1.151,0,0,0,18.607,40.5h3.456a3.46,3.46,0,0,0,3.455-3.445s0-.007,0-.012v-2.3a1.152,1.152,0,1,1,2.3,0v2.3A3.461,3.461,0,0,0,31.282,40.5h3.456a1.151,1.151,0,0,0,1.152-1.152V28.664A8.053,8.053,0,0,0,31.283,14Zm2.879,13.056c-.036.022-.056.055-.09.078a1.286,1.286,0,0,0-.2.177,1.231,1.231,0,0,0-.106.159,1.144,1.144,0,0,0-.106.217,1.132,1.132,0,0,0-.043.215,1.192,1.192,0,0,0-.03.147V38.2h-2.3a1.153,1.153,0,0,1-1.152-1.152v-2.3a3.456,3.456,0,1,0-6.913,0v2.3s0,0,0,.006A1.153,1.153,0,0,1,22.064,38.2h-2.3V28.049a1.42,1.42,0,0,0-.028-.139,1.183,1.183,0,0,0-.046-.23,1.089,1.089,0,0,0-.1-.2,1.141,1.141,0,0,0-.12-.177,1.125,1.125,0,0,0-.181-.159.873.873,0,0,0-.1-.092,5.758,5.758,0,1,1,6.72-9.273,1.15,1.15,0,0,0,1.539,0,5.757,5.757,0,1,1,6.718,9.276Z" transform="translate(2.13 2.13)" fill="#162162"/></g><g transform="translate(3673.3 1756.873)"><circle cx="18" cy="18" r="18" transform="translate(-0.3 0.127)" fill="#36a0fc"/><text transform="translate(11.7 25.127)" fill="#f4faff" font-size="20" font-family="Nunito-Bold, Nunito" font-weight="700"><tspan x="0" y="0">2</tspan></text></g></g></svg>