<svg xmlns="http://www.w3.org/2000/svg" width="119" height="72.237" viewBox="0 0 119 72.237"><g transform="translate(-3590 -1645.961)"><g transform="translate(3590 1645.961)"><path d="M58.072-.055H31.029A1.126,1.126,0,0,0,29.9,1.072V7.84H14.125A1.126,1.126,0,0,0,13,8.967V23.611a1.126,1.126,0,0,0,1.127,1.127h2.254v1.127a1.126,1.126,0,0,0,1.127,1.127,1.116,1.116,0,0,0,.418-.08l5.431-2.174,6.548.011v3.385a1.127,1.127,0,0,0,1.127,1.127h0l16.718-.014,6.588,2.195a1.112,1.112,0,0,0,.356.059,1.126,1.126,0,0,0,1.127-1.126V29.247h2.252A1.126,1.126,0,0,0,59.2,28.12V1.072A1.126,1.126,0,0,0,58.072-.055ZM23.141,22.484h0a1.13,1.13,0,0,0-.418.08L18.632,24.2v-.589a1.126,1.126,0,0,0-1.127-1.127H15.252V10.094H29.9V22.5Zm33.8,4.509H54.694a1.127,1.127,0,0,0-1.127,1.126v.692l-5.28-1.76a1.16,1.16,0,0,0-.356-.057h0l-15.774.012V2.2h24.79Z" transform="translate(-2.863 0.055)" fill="#162162"/><path d="M59.913,41.468c0-.027.017-.053.017-.081V32.327a3.384,3.384,0,0,0-3.38-3.38H40.767a3.384,3.384,0,0,0-3.38,3.38v8.967c0,.016-.009.028-.009.044V45.8c0,.009,0,.016,0,.024s0,.016,0,.024a11.264,11.264,0,0,0,5.634,9.742v2.65H40.758A6.767,6.767,0,0,0,34,65v2.25a1.127,1.127,0,0,0,2.254,0V65A4.512,4.512,0,0,1,40.758,60.5h2.53l2.02,7.068a1.129,1.129,0,0,0,1.083.818,1.167,1.167,0,0,0,.31-.043,1.129,1.129,0,0,0,.775-1.393l-1.553-5.434.015,0a1.11,1.11,0,0,0,.45.106H46.4a1.105,1.105,0,0,0,.45-.106c.017-.008.034,0,.05-.012l1.75-.874,1.75.874c.016.008.033,0,.05.012a1.11,1.11,0,0,0,.45.106H50.9a1.106,1.106,0,0,0,.45-.106l.015,0-1.553,5.434a1.128,1.128,0,0,0,.775,1.393,1.18,1.18,0,0,0,.31.043,1.127,1.127,0,0,0,1.083-.818L54,60.5h2.53A4.512,4.512,0,0,1,61.04,65v2.25a1.127,1.127,0,0,0,2.254,0V65a6.767,6.767,0,0,0-6.761-6.761H54.279V55.591a11.26,11.26,0,0,0,5.634-9.741h0v-4.38ZM39.64,32.326A1.127,1.127,0,0,1,40.767,31.2H56.549a1.127,1.127,0,0,1,1.127,1.127v7.932H39.64ZM52.025,58.67l-1.127.563-1.75-.874c-.025-.012-.053-.011-.078-.021a1.118,1.118,0,0,0-.219-.059,1.078,1.078,0,0,0-.207-.027,1.2,1.2,0,0,0-.208.027,1.034,1.034,0,0,0-.217.059c-.025.01-.053.009-.078.021l-1.75.874-1.127-.563V56.595a11.259,11.259,0,0,0,6.761,0V58.67Zm-3.381-3.81a9.023,9.023,0,0,1-9.013-9.012c0-.009,0-.016,0-.024s0-.015,0-.024V42.512H57.659v3.334h0A9.024,9.024,0,0,1,48.644,54.861Z" transform="translate(-0.201 3.732)" fill="#162162"/><path d="M49.629,34.222H48.5V33.074a1.127,1.127,0,0,0-2.254,0v1.148H45.12a1.127,1.127,0,0,0,0,2.254h1.128v1.119a1.127,1.127,0,0,0,2.254,0V36.475h1.128a1.127,1.127,0,1,0,0-2.254Z" transform="translate(1.067 4.112)" fill="#162162"/><path d="M10.764,58.352A6.767,6.767,0,0,0,4,65.113v2.252a1.127,1.127,0,1,0,2.254,0V65.113a4.512,4.512,0,0,1,4.507-4.507h3.114l2.016,1.008c.016.008.033,0,.05.012a1.11,1.11,0,0,0,.45.106H16.4a1.106,1.106,0,0,0,.45-.106c.017-.008.034,0,.05-.012l1.75-.874,1.75.874c.016.008.033,0,.05.012a1.11,1.11,0,0,0,.45.106h.009a1.106,1.106,0,0,0,.45-.106c.017-.008.034,0,.05-.012l2.016-1.008h3.114a4.512,4.512,0,0,1,4.507,4.507v2.252a1.127,1.127,0,1,0,2.254,0V65.113a6.767,6.767,0,0,0-6.761-6.761H24.285V55.7a11.26,11.26,0,0,0,5.634-9.741V39.2h0a5.642,5.642,0,0,0-4.507-5.519V30.182a1.126,1.126,0,0,0-1.127-1.127H17.524A10.152,10.152,0,0,0,7.383,39.2v6.818c0,.007,0,.012,0,.019a11.263,11.263,0,0,0,5.63,9.668v2.651H10.764ZM17.524,31.31h5.634v3.38a1.126,1.126,0,0,0,1.127,1.127,3.384,3.384,0,0,1,3.38,3.379h0v1.289l-1.623-1.1a1.112,1.112,0,0,0-.152-.063.877.877,0,0,0-.416-.108,1.151,1.151,0,0,0-.2,0,1.039,1.039,0,0,0-.225.06,1.116,1.116,0,0,0-.137.035,14.2,14.2,0,0,1-5.7,1.011,25.1,25.1,0,0,1-6.97-1.069c-.024-.008-.048,0-.071-.009a1.059,1.059,0,0,0-.223-.027.755.755,0,0,0-.408.055,1.086,1.086,0,0,0-.214.089c-.023.012-.046.014-.068.027l-1.623,1.1V39.2A7.9,7.9,0,0,1,17.524,31.31ZM9.637,45.96V43.206l2.441-1.648a27.243,27.243,0,0,0,7.137,1.02,17.552,17.552,0,0,0,6.065-.983l2.385,1.611V45.96a9.014,9.014,0,0,1-18.028,0ZM18.65,57.225a11.224,11.224,0,0,0,3.381-.519v2.077l-1.127.563-1.75-.874c-.025-.012-.053-.011-.078-.021a1.624,1.624,0,0,0-.426-.086,1.2,1.2,0,0,0-.208.027,1.024,1.024,0,0,0-.216.059c-.026.01-.054.009-.079.021l-1.75.874-1.127-.563V56.706A11.2,11.2,0,0,0,18.65,57.225Z" transform="translate(-4.003 3.745)" fill="#162162"/><path d="M36.7,19.457a.994.994,0,0,0,.053.176.979.979,0,0,0,.055.183,1.038,1.038,0,0,0,.134.2,1.281,1.281,0,0,0,.107.137,1.1,1.1,0,0,0,.219.148,1.178,1.178,0,0,0,.13.08,1.12,1.12,0,0,0,.421.085H39.51a3.355,3.355,0,0,0,2.252-.878,3.357,3.357,0,0,0,2.252.878h1.691a1.12,1.12,0,0,0,.421-.085,1.379,1.379,0,0,0,.13-.08,1.064,1.064,0,0,0,.219-.148,1.153,1.153,0,0,0,.107-.137,1,1,0,0,0,.134-.2,1.1,1.1,0,0,0,.055-.183,1.087,1.087,0,0,0,.053-.176l.526-5.01a4.488,4.488,0,0,0-5.59-6.889,4.464,4.464,0,0,0-2.252-.614,4.481,4.481,0,0,0-3.336,7.5ZM39.509,9.2a2.219,2.219,0,0,1,1.5.587,1.128,1.128,0,0,0,1.508,0,2.224,2.224,0,0,1,1.5-.587,2.255,2.255,0,0,1,1.5,3.936,1.054,1.054,0,0,0-.109.146,1.061,1.061,0,0,0-.136.181,1.1,1.1,0,0,0-.078.247,1.136,1.136,0,0,0-.046.149l-.457,4.356h-.676A1.127,1.127,0,0,1,42.891,17.1s0-.01,0-.015V15.958a1.126,1.126,0,0,0-1.127-1.127h0a1.126,1.126,0,0,0-1.127,1.127v1.126s0,.01,0,.015a1.127,1.127,0,0,1-1.125,1.113h-.676l-.459-4.357a1.107,1.107,0,0,0-.046-.146,1.094,1.094,0,0,0-.079-.25,1.038,1.038,0,0,0-.131-.175,1.049,1.049,0,0,0-.114-.152,2.254,2.254,0,0,1,1.5-3.935Z" transform="translate(-0.073 0.942)" fill="#162162"/></g><g transform="translate(3673.3 1663.873)"><circle cx="18" cy="18" r="18" transform="translate(-0.3 0.127)" fill="#36a0fc"/><text transform="translate(11.7 25.127)" fill="#f4faff" font-size="20" font-family="Nunito-Bold, Nunito" font-weight="700"><tspan x="0" y="0">1</tspan></text></g></g></svg>