<svg xmlns="http://www.w3.org/2000/svg" width="123.402" height="65.888" viewBox="0 0 123.402 65.888"><g transform="translate(-3585.598 -2160.631)"><g transform="translate(3585.598 2160.631)"><path d="M6.167,55H6.155a1.143,1.143,0,1,0,.011,0Z" transform="translate(0.683 4.072)" fill="#162162"/><path d="M67.023,37.816a5.835,5.835,0,0,0-.964.08l-.012,0L45.273,41.063a5.639,5.639,0,0,0-4.5-4.288c-.006,0-.01-.006-.016-.007L22.936,33.292c-.037-.008-.073,0-.112,0s-.066-.02-.1-.02H13.632V32.136A1.135,1.135,0,0,0,12.5,31H1.136A1.135,1.135,0,0,0,0,32.136V62.808a1.135,1.135,0,0,0,1.136,1.136H12.5a1.135,1.135,0,0,0,1.136-1.136V61.83l24.845,3.241a1.3,1.3,0,0,0,.148.009,1.117,1.117,0,0,0,.357-.066c.03-.01.059-.023.089-.034s.061-.02.091-.035L69.833,48.431l.006,0c.009,0,.018-.007.026-.011a5.68,5.68,0,0,0-2.841-10.6ZM11.36,61.672H2.272v-28.4H11.36ZM68.744,46.436,38.407,62.77,13.632,59.538V35.544H22.61L40.323,39h.016s0,0,.008,0a3.409,3.409,0,0,1-.587,6.766,3.23,3.23,0,0,1-.349-.019c-.008,0-.014,0-.022,0s-.014,0-.022-.006l-14.29-1.11A1.136,1.136,0,0,0,24.9,46.9l14.29,1.11c.03,0,.06,0,.089,0h0c.158.014.315.027.476.027a5.68,5.68,0,0,0,5.58-4.689l21.079-3.209.011,0h0a3.567,3.567,0,0,1,.588-.049,3.407,3.407,0,0,1,1.721,6.348Z" transform="translate(0 0.808)" fill="#162162"/><path d="M45.615,33.671l.011,0H47.9a1.126,1.126,0,0,0,.428-.086,1.286,1.286,0,0,0,.135-.085,1.054,1.054,0,0,0,.217-.147,1.218,1.218,0,0,0,.109-.143,1.177,1.177,0,0,0,.136-.2,1.32,1.32,0,0,0,.05-.181,1.074,1.074,0,0,0,.056-.2L50.125,19.2A9.079,9.079,0,1,0,38.811,5a9,9,0,0,0-5.68-2A9.074,9.074,0,0,0,27.5,19.2l1.093,13.43a1,1,0,0,0,.056.2.672.672,0,0,0,.187.383,1.019,1.019,0,0,0,.107.143,1.187,1.187,0,0,0,.218.148,1.277,1.277,0,0,0,.135.084,1.126,1.126,0,0,0,.428.086H32l.011,0a5.685,5.685,0,0,0,5.669-5.679V25.715a1.135,1.135,0,1,1,2.271,0v2.277A5.685,5.685,0,0,0,45.615,33.671Zm-6.8-11.363A3.412,3.412,0,0,0,35.4,25.715v2.277A3.412,3.412,0,0,1,32,31.4H30.77L29.723,18.526c0-.019-.014-.034-.016-.053a1.048,1.048,0,0,0-.072-.239.963.963,0,0,0-.066-.17,1.188,1.188,0,0,0-.172-.21,1.153,1.153,0,0,0-.109-.115c-.02-.016-.03-.039-.051-.053A6.818,6.818,0,0,1,33.13,5.271,6.761,6.761,0,0,1,38,7.321a1.17,1.17,0,0,0,1.624,0,6.816,6.816,0,1,1,8.763,10.363c-.023.016-.032.039-.053.056a1.025,1.025,0,0,0-.108.114,1.105,1.105,0,0,0-.17.21,1.325,1.325,0,0,0-.07.181,1.122,1.122,0,0,0-.066.224c0,.022-.016.037-.018.059L46.851,31.4H45.626a3.412,3.412,0,0,1-3.408-3.408V25.716A3.411,3.411,0,0,0,38.811,22.307Z" transform="translate(3.27 -3)" fill="#162162"/><path d="M42.179,9.248a2.3,2.3,0,0,1,2.3,2.3,1.136,1.136,0,1,0,2.272,0,4.577,4.577,0,0,0-4.571-4.571,1.136,1.136,0,0,0,0,2.272Z" transform="translate(5.581 -2.459)" fill="#162162"/></g><g transform="translate(3673.3 2175.873)"><circle cx="18" cy="18" r="18" transform="translate(-0.3 0.127)" fill="#36a0fc"/><text transform="translate(11.7 25.127)" fill="#f4faff" font-size="20" font-family="Nunito-Bold, Nunito" font-weight="700"><tspan x="0" y="0">6</tspan></text></g></g></svg>